<svg xmlns="http://www.w3.org/2000/svg" width="100" height="74" fill="none"><path fill="#1A232E" d="M0 0h100v74H0z"/><path fill="#161616" fill-opacity=".25" d="M0 0h100v73.731H0z"/><path fill="#323232" d="M99.446 4.372H.554A.555.555 0 0 1 0 3.817V.555C0 .248.248 0 .554 0h98.892c.306 0 .554.248.554.555v3.262a.555.555 0 0 1-.554.555Z"/><path fill="#F04B4B" d="M3.215 2.814a.787.787 0 1 0-.001-1.574.787.787 0 0 0 0 1.574Z"/><path fill="#F3A850" d="M6.2 2.814a.787.787 0 1 0-.001-1.574.787.787 0 0 0 0 1.574Z"/><path fill="#5CDC3C" d="M9.185 2.814a.787.787 0 1 0-.001-1.574.787.787 0 0 0 .001 1.574Z"/><path fill="#fff" d="M96.521 1.485h-3.437a.255.255 0 0 1 0-.51h3.437a.255.255 0 0 1 .001.51ZM96.521 2.44h-3.437a.255.255 0 0 1 0-.51h3.437a.255.255 0 0 1 .001.51ZM96.521 3.397h-3.437a.255.255 0 0 1 0-.51h3.437a.255.255 0 0 1 .001.51Z"/><path fill="#F0F0F0" d="M28.198 64.828c.364-2.93 2.177-5.816 4.968-6.77a13.618 13.618 0 0 0 0 9.34c.43 1.16 1.027 2.407.623 3.578-.25.728-.864 1.285-1.55 1.634-.687.348-1.449.514-2.2.677l-.149.122c-1.194-2.699-2.056-5.651-1.692-8.581Z"/><path fill="#fff" d="M33.194 58.114a11.633 11.633 0 0 0-2.887 6.543 5.011 5.011 0 0 0 .057 1.568c.114.5.36.96.713 1.332.321.353.691.678.921 1.103a1.76 1.76 0 0 1 .086 1.436c-.203.583-.603 1.058-1.01 1.51-.453.5-.932 1.014-1.124 1.678-.023.08-.147.04-.123-.04.334-1.156 1.455-1.813 1.99-2.854.248-.485.353-1.05.12-1.562-.205-.448-.586-.783-.915-1.139a3.066 3.066 0 0 1-.745-1.276 4.635 4.635 0 0 1-.117-1.56 11.29 11.29 0 0 1 .822-3.427 11.837 11.837 0 0 1 2.125-3.41c.056-.062.142.036.087.098Z"/><path fill="#fff" d="M30.342 63.87a1.742 1.742 0 0 1-1.326-1.828.064.064 0 0 1 .068-.06.064.064 0 0 1 .061.067 1.615 1.615 0 0 0 1.237 1.697c.082.02.04.142-.04.123Zm.548 3.529a3.361 3.361 0 0 0 1.5-1.937c.023-.08.147-.04.123.041a3.496 3.496 0 0 1-1.564 2.012c-.072.043-.13-.074-.059-.117Zm.722-7.1a.985.985 0 0 0 .935-.047c.071-.044.13.073.058.116a1.104 1.104 0 0 1-1.034.055.067.067 0 0 1-.041-.082.065.065 0 0 1 .082-.042Z"/><path fill="#F0F0F0" d="m41.672 63.291-.132.087c-.587.387-1.143.82-1.66 1.298l-.121.11a13.708 13.708 0 0 0-2.973 4.076c-.29.61-.534 1.24-.729 1.887-.268.892-.489 1.882-1.02 2.612-.056.077-.115.15-.178.22H30.05c-.01-.006-.022-.01-.033-.016l-.192.01.024-.104.015-.06.009-.038a.327.327 0 0 1 .003-.012l.008-.034c.048-.196.097-.393.149-.59a19.63 19.63 0 0 1 1.646-4.326c.022-.04.044-.083.068-.123.332-.607.713-1.186 1.14-1.731.234-.298.483-.583.747-.855a9.33 9.33 0 0 1 2.334-1.75c1.724-.912 3.72-1.262 5.563-.705l.14.044Z"/><path fill="#fff" d="M41.661 63.352a11.609 11.609 0 0 0-6.24 3.484 5.005 5.005 0 0 0-.897 1.286 2.875 2.875 0 0 0-.231 1.494c.044.476.144.958.072 1.436-.082.495-.371.93-.795 1.198-.513.343-1.118.482-1.715.596-.663.128-1.353.25-1.906.664-.067.05-.14-.057-.074-.107.962-.721 2.252-.57 3.304-1.079.491-.237.914-.625 1.036-1.175.106-.481.004-.978-.045-1.46-.064-.496-.005-1 .172-1.469a4.63 4.63 0 0 1 .844-1.316c.783-.885 1.7-1.64 2.718-2.24a11.805 11.805 0 0 1 3.747-1.442c.082-.016.091.114.01.13Z"/><path fill="#fff" d="M35.923 66.229a1.745 1.745 0 0 1 .04-2.258c.056-.063.155.02.1.083a1.617 1.617 0 0 0-.033 2.1c.053.065-.054.139-.107.075Zm-1.684 3.148a3.355 3.355 0 0 0 2.361-.642c.068-.05.142.057.075.107a3.49 3.49 0 0 1-2.46.663c-.083-.009-.06-.137.024-.128Zm4.845-5.233a.988.988 0 0 0 .775.525c.083.009.06.136-.023.128a1.105 1.105 0 0 1-.859-.579.067.067 0 0 1 .017-.09c.03-.02.07-.013.09.016Z"/><path fill="#E6E6E6" d="M32.413 22.747H16.508a1.857 1.857 0 0 1-1.854-1.857v-8.673a1.857 1.857 0 0 1 1.854-1.856h15.905a1.857 1.857 0 0 1 1.854 1.856v8.673a1.857 1.857 0 0 1-1.854 1.857Z"/><path fill="#6C63FF" d="M56.695 22.747H40.79a1.857 1.857 0 0 1-1.854-1.857v-8.673a1.857 1.857 0 0 1 1.854-1.856h15.905a1.857 1.857 0 0 1 1.854 1.856v8.673a1.857 1.857 0 0 1-1.854 1.857Z"/><path fill="#E6E6E6" d="M80.978 22.747H65.073a1.857 1.857 0 0 1-1.854-1.857v-8.673a1.857 1.857 0 0 1 1.854-1.856h15.905a1.857 1.857 0 0 1 1.854 1.856v8.673a1.857 1.857 0 0 1-1.854 1.857Z"/><path fill="#F2F2F2" d="M32.413 42.072H16.508a1.857 1.857 0 0 1-1.854-1.857v-8.673a1.857 1.857 0 0 1 1.854-1.856h15.905a1.857 1.857 0 0 1 1.854 1.856v8.673a1.857 1.857 0 0 1-1.854 1.857Z"/><path fill="#E6E6E6" d="M56.695 42.072H40.79a1.857 1.857 0 0 1-1.854-1.857v-8.673a1.857 1.857 0 0 1 1.854-1.856h15.905a1.857 1.857 0 0 1 1.854 1.856v8.673a1.857 1.857 0 0 1-1.854 1.857Z"/><path fill="#6C63FF" d="M57.819 43.668a2.842 2.842 0 0 0 2.84-2.844 2.842 2.842 0 0 0-2.84-2.845 2.842 2.842 0 0 0-2.841 2.845 2.842 2.842 0 0 0 2.84 2.844Z"/><path fill="#fff" d="M58.998 40.585h-.966v-.967a.228.228 0 1 0-.455 0v.967h-.965a.227.227 0 0 0-.161.388c.042.043.1.067.16.067h.966v.967a.228.228 0 1 0 .455 0v-.967h.966a.227.227 0 0 0 .16-.389.227.227 0 0 0-.16-.066Z"/><path fill="#6C63FF" d="M82.474 24.841a2.842 2.842 0 0 0 2.841-2.844 2.842 2.842 0 0 0-2.84-2.844 2.842 2.842 0 0 0-2.841 2.844 2.842 2.842 0 0 0 2.84 2.844Z"/><path fill="#fff" d="M83.654 21.758h-.966v-.967a.227.227 0 1 0-.455 0v.967h-.965a.227.227 0 0 0-.161.389c.043.043.1.067.16.067h.966v.967a.228.228 0 0 0 .228.227.227.227 0 0 0 .227-.227v-.967h.966a.227.227 0 0 0 .16-.389.227.227 0 0 0-.16-.066Z"/><path fill="#6C63FF" d="M33.84 43.688a2.842 2.842 0 0 0 2.841-2.844A2.842 2.842 0 0 0 33.841 38 2.842 2.842 0 0 0 31 40.844a2.842 2.842 0 0 0 2.84 2.844Z"/><path fill="#fff" d="M35.02 40.605h-.966v-.967a.228.228 0 0 0-.454 0v.967h-.966a.227.227 0 0 0 0 .456h.966v.967a.228.228 0 1 0 .454 0v-.967h.966a.227.227 0 0 0 .16-.389.227.227 0 0 0-.16-.067Z"/><path fill="#6C63FF" d="M33.536 24.592a2.842 2.842 0 0 0 2.84-2.844 2.842 2.842 0 0 0-2.84-2.844 2.843 2.843 0 0 0-2.84 2.844 2.842 2.842 0 0 0 2.84 2.844Z"/><path fill="#fff" d="M34.716 21.509h-.966v-.967a.228.228 0 1 0-.455 0v.967h-.966a.228.228 0 0 0 0 .455h.966v.967a.228.228 0 1 0 .455 0v-.967h.965a.227.227 0 0 0 .161-.388.227.227 0 0 0-.16-.067Z"/><path fill="#9E616A" d="M54.804 17.819a1.132 1.132 0 0 1-.912 1.474l-1.314 8.977-2.154-1.054 2.167-8.96a1.138 1.138 0 0 1 .913-1.201 1.135 1.135 0 0 1 1.3.764Zm-15.689 28.75a1.132 1.132 0 0 0-.435-1.678l.886-9.548-1.856.952-.58 9.201a1.139 1.139 0 0 0 1.317 1.525c.27-.064.508-.224.668-.452Zm1.268-4.829 7.965-.307.46-8.28h-9.19l.765 8.587Zm-1.478 29.246h1.361l.647-5.256h-2.008v5.256Z"/><path fill="#2F2E41" d="m38.567 70.314 2.152-.129v.923l2.045 1.414a.577.577 0 0 1-.327 1.051h-2.561l-.442-.912-.172.912h-.966l.271-3.26Z"/><path fill="#9E616A" d="M44.959 70.986h1.36l.648-5.256h-2.009v5.256Z"/><path fill="#615F80" d="M40.273 39.796s-2.383 1.926-1.092 8.806c-.196.023.027.412.027.412l.186 5.605.144.642-.479 1.037.198 1.127-.61 10.222 2.25.291 2.151-10.615.41-1.194.411-1.046-.222-1.116.182-1.731 1.24-5.839.304 10.126-.423.967.235 1.061-.525.564-.207 9.474 2.397.112 1.984-9.55-.154-1.22.264-.9v-2.105l.452-.994.986-5.417s.297-4.233-1.872-9.216l-8.237.497Z"/><path fill="#5B578C" d="M41.244 26.27s-3.01.596-3.529 3.166c-.518 2.57-.852 8.386-.852 8.386l.113.81 2.912.676 1.858-8.15-.502-4.888Zm6.869.867s.305-.428 2.014-.494c.07-.003-.017-.142-.017-.142l.822-4.022 2.738 1.518-.462 4.216-4.5 5.124-.595-6.2Z"/><path fill="#5B578C" d="M46.406 39.125c-1.289 0-3.23-.142-6.15-.577a.893.893 0 0 1-.75-.748.677.677 0 0 1-.113-.767l.003-.006-.067-.078a.724.724 0 0 1-.048-.874l-.904-6.48a2.733 2.733 0 0 1 1.896-2.995l.334-.104 1.263-1.654h.025l4.054.054 1.316 1.673 2.127.502.005.033.494 2.856c.257 1.486-.332 2.07-1.084 3.377l.221 3.67.1.182a.495.495 0 0 1-.118.62c.067.192.072.4.013.595l-.052.172c0 .005-.014.075-.126.16-.203.154-.784.389-2.439.389Z"/><path fill="#2F2E41" d="m44.621 70.314 2.151-.129v.923l2.046 1.414a.577.577 0 0 1-.327 1.051h-2.562l-.441-.912-.173.912h-.965l.271-3.26Z"/><path fill="#9E616A" d="M46.88 21.237a3.18 3.18 0 1 0-6.275-1.02 3.18 3.18 0 1 0 6.275 1.02Z"/><path fill="#2F2E41" d="M45.602 17.618c-1.165-.803-2.191-.925-3.034-.697a1.108 1.108 0 0 0-.443-.394c-.657-1.658-2.658-2.654-4.374-2.17-1.728.487-2.92 2.403-2.595 4.17.201 1.096.89 2.045 1.167 3.124.536 2.088-.772 4.48-2.818 5.154 1.937.39 4.07-.796 4.765-2.647.337-.9.358-1.882.4-2.842a9.435 9.435 0 0 1 .243-1.968c.074-.29.179-.57.313-.838a2.865 2.865 0 0 1 1.37-1.331 1.097 1.097 0 0 0 .16.985c-.455.57-.702 1.186-.702 1.555-.944 1.728.406 3.211 2.13 4.156a3.53 3.53 0 0 0 2.259.394l.072-.308.098.278.326.931c.377.182.75.382 1.12.6-.14-.661-.254-1.32-.332-1.966-.109-.878.269-2.185.541-2.98.17-.49.256-1.004.257-1.523v-.022l.265.853.966-.413c-.18-1.031 0-2.203-2.154-2.101Z"/><path fill="#F2F2F2" d="M75.953 39.563h-9.964a1.162 1.162 0 0 1-1.161-1.163v-5.433a1.166 1.166 0 0 1 1.161-1.163h9.964a1.162 1.162 0 0 1 1.161 1.163V38.4a1.165 1.165 0 0 1-1.161 1.163Z"/><path fill="#6C63FF" d="M76.1 37.356a1.51 1.51 0 1 0-.003-3.02 1.51 1.51 0 0 0 .002 3.02Z"/><path fill="#fff" d="M76.726 35.719h-.513v-.514a.121.121 0 0 0-.12-.12.12.12 0 0 0-.121.12v.514h-.513a.12.12 0 0 0-.121.12.12.12 0 0 0 .12.121h.514v.514a.12.12 0 1 0 .24 0v-.514h.514a.121.121 0 0 0 .085-.206.12.12 0 0 0-.085-.035Z"/><path fill="#6C63FF" d="M80.012 38.02H71.8a1.316 1.316 0 0 1-1.314-1.315v-4.908a.242.242 0 0 1 .484 0v1.315l9.537.868a.726.726 0 0 1 .71.772l-.48 2.566a.729.729 0 0 1-.726.703ZM70.97 33.6v3.106c0 .459.372.83.83.83h8.21a.243.243 0 0 0 .243-.242.24.24 0 0 1 .004-.044l.48-2.56a.242.242 0 0 0-.242-.224.2.2 0 0 1-.022-.002l-9.503-.864ZM69.62 40.284a.404.404 0 1 0-.001-.808.404.404 0 0 0 0 .808ZM79.689 40.284a.404.404 0 1 0 0-.808.404.404 0 0 0 0 .808Z"/><path fill="#6C63FF" d="M80.093 39.476H69.296a.242.242 0 0 1 0-.485h10.797a.242.242 0 0 1 0 .485Zm-8.719-7.517h-2.098a.242.242 0 0 1 0-.485h2.099a.242.242 0 0 1 0 .485Z"/><path fill="#6C63FF" d="M73.058 39.352a.24.24 0 0 1-.158-.058l-1.591-1.37a.243.243 0 1 1 .315-.368l1.592 1.37a.243.243 0 0 1-.158.426Zm.335-1.48a.242.242 0 0 1-.242-.242v-3.893a.242.242 0 1 1 .485 0v3.893a.243.243 0 0 1-.242.242Zm5.116 0a.242.242 0 0 1-.242-.242v-3.57a.242.242 0 0 1 .484 0v3.57a.243.243 0 0 1-.242.242Z"/></svg>