<svg width="800" height="800" viewBox="0 0 800 800" fill="none" xmlns="http://www.w3.org/2000/svg">
<g clip-path="url(#clip0_0_1)">
<mask id="mask0_0_1" style="mask-type:luminance" maskUnits="userSpaceOnUse" x="0" y="0" width="800" height="800">
<path d="M800 0H0V800H800V0Z" fill="white"/>
</mask>
<g mask="url(#mask0_0_1)">
<path d="M400 800C620.914 800 800 620.914 800 400C800 179.086 620.914 0 400 0C179.086 0 0 179.086 0 400C0 620.914 179.086 800 400 800Z" fill="#354493"/>
<path d="M627.847 208H172.545C145.286 208 123 230.31 123 257.551V542.453C123 569.677 145.284 591.991 172.545 591.991H627.847C655.106 591.991 677.396 569.679 677.396 542.453V257.554C677.396 230.315 655.106 208 627.847 208Z" fill="url(#paint0_linear_0_1)"/>
<path d="M398.14 475.032L191.747 586.794L192.084 591.996L400.547 479.63L398.14 475.032Z" fill="#B5B4B0"/>
<path d="M632.05 255.371L499.805 357.209L400.544 479.634L602.366 592H627.845C646.143 592 662.168 581.934 670.755 567.068L653.667 453.55L632.05 255.371Z" fill="#B5B4B0"/>
<path d="M400.547 479.63L677.396 265.282V257.554C677.396 230.31 655.11 208.002 627.847 208.002H616.824L407.151 386.986L189.009 208.002H172.545C145.286 208.002 123 230.313 123 257.554V542.456C123 569.679 145.284 591.994 172.545 591.994H192.084V314.183L400.547 479.63Z" fill="#DD4B40"/>
<path d="M677.396 542.453V265.28L602.369 323.367V591.991H627.847C655.106 591.996 677.396 569.681 677.396 542.453Z" fill="#A43026"/>
</g>
</g>
<defs>
<linearGradient id="paint0_linear_0_1" x1="123" y1="400.001" x2="542.855" y2="400.001" gradientUnits="userSpaceOnUse">
<stop stop-color="#F3F1E8"/>
<stop offset="1" stop-color="#E3E0D0"/>
</linearGradient>
<clipPath id="clip0_0_1">
<rect width="800" height="800" fill="white"/>
</clipPath>
</defs>
</svg>
