<svg width="564" height="457" viewBox="0 0 564 457" fill="none" xmlns="http://www.w3.org/2000/svg">
<circle cx="282" cy="203" r="203" fill="white" fill-opacity="0.04"/>
<path d="M63 261.653C69.8061 269.529 77.1545 276.919 84.9917 283.769L381.848 284.533C389.685 277.683 397.034 270.292 403.839 262.416L63 261.653Z" fill="#3F3D56"/>
<path d="M212.914 187.694V266.045H269.105V187.694C269.106 187.128 268.921 186.578 268.58 186.127C268.234 185.671 267.753 185.337 267.205 185.172C266.945 185.089 266.673 185.047 266.399 185.05H215.628C215.272 185.05 214.92 185.117 214.59 185.25C214.262 185.382 213.963 185.576 213.71 185.822C213.459 186.067 213.259 186.359 213.121 186.681C212.984 187.002 212.914 187.346 212.914 187.694ZM234.843 214.616C234.843 213.062 235.475 211.571 236.6 210.472C237.736 209.369 239.258 208.754 240.842 208.756C242.432 208.756 243.958 209.373 245.083 210.472C245.638 211.011 246.079 211.655 246.381 212.366C246.682 213.078 246.838 213.843 246.84 214.616V223.706C246.838 224.479 246.682 225.244 246.381 225.956C246.079 226.667 245.638 227.311 245.083 227.85C243.948 228.953 242.425 229.569 240.842 229.566C239.258 229.569 237.735 228.953 236.6 227.85C236.045 227.311 235.604 226.667 235.302 225.956C235.001 225.244 234.845 224.479 234.843 223.706V214.616Z" fill="#2F2E41"/>
<path d="M212.742 263.539V271.095C212.744 271.487 212.902 271.861 213.185 272.139C213.47 272.417 213.852 272.574 214.251 272.577H267.768C268.167 272.576 268.55 272.419 268.836 272.14C269.119 271.863 269.277 271.487 269.277 271.095V263.539H212.742ZM124.517 69.6467V212.706C124.52 213.613 124.704 214.51 125.058 215.344C125.412 216.179 125.93 216.934 126.58 217.566C127.913 218.86 129.698 219.584 131.556 219.581H348.579C350.437 219.583 352.222 218.86 353.554 217.566C354.205 216.934 354.722 216.179 355.077 215.344C355.431 214.51 355.615 213.613 355.617 212.706V69.6467C355.613 68.7407 355.428 67.8446 355.073 67.0111C354.718 66.1775 354.201 65.4232 353.55 64.7924C352.218 63.4998 350.435 62.7774 348.579 62.7786H131.556C129.7 62.7775 127.916 63.4999 126.584 64.7924C125.934 65.4232 125.416 66.1775 125.061 67.011C124.706 67.8446 124.521 68.7407 124.517 69.6467Z" fill="#3F3D56"/>
<path d="M129.608 71.4267V210.941C129.61 211.425 129.709 211.904 129.898 212.35C130.088 212.796 130.364 213.2 130.712 213.537C131.424 214.229 132.377 214.616 133.37 214.616H346.772C347.765 214.616 348.718 214.229 349.43 213.537C349.778 213.2 350.055 212.796 350.244 212.35C350.434 211.904 350.532 211.425 350.534 210.941V71.4267C350.533 70.9416 350.435 70.4616 350.246 70.0149C350.057 69.5682 349.78 69.1638 349.433 68.8255C348.72 68.1325 347.766 67.7448 346.772 67.7447H133.37C132.371 67.7463 131.415 68.1357 130.71 68.8255C130.362 69.1638 130.086 69.5682 129.896 70.0149C129.707 70.4616 129.609 70.9416 129.608 71.4267Z" fill="#6C63FF"/>
<path d="M173.123 274.358C173.34 274.623 173.616 274.838 173.93 274.985C174.244 275.132 174.589 275.207 174.937 275.205H301.897C302.244 275.205 302.586 275.129 302.901 274.982C303.213 274.838 303.489 274.625 303.709 274.361C303.927 274.1 304.083 273.793 304.165 273.462C304.247 273.132 304.252 272.788 304.181 272.455L302.21 263.31C302.128 262.936 301.952 262.589 301.699 262.301C301.443 262.01 301.119 261.787 300.755 261.653C300.491 261.551 300.21 261.499 299.927 261.5H176.9C176.617 261.499 176.335 261.551 176.071 261.653C175.708 261.787 175.384 262.01 175.128 262.3C174.874 262.591 174.698 262.937 174.616 263.31L172.645 272.455C172.575 272.787 172.581 273.132 172.664 273.461C172.747 273.791 172.903 274.098 173.123 274.358Z" fill="#2F2E41"/>
<path d="M176.9 263.409C176.816 263.412 176.734 263.442 176.668 263.494C176.602 263.546 176.554 263.618 176.531 263.699L174.558 272.848C174.548 272.901 174.549 272.956 174.563 273.008C174.577 273.061 174.603 273.109 174.638 273.15L174.646 273.161C174.681 273.204 174.725 273.239 174.776 273.262C174.826 273.285 174.881 273.296 174.937 273.295H301.897C301.952 273.296 302.007 273.285 302.057 273.262C302.107 273.238 302.152 273.204 302.187 273.162C302.223 273.121 302.25 273.072 302.265 273.019C302.279 272.967 302.281 272.911 302.27 272.858L300.297 263.703C300.277 263.62 300.229 263.546 300.162 263.493C300.095 263.44 300.012 263.41 299.927 263.409H176.9Z" fill="white"/>
<path d="M140.231 86.9624H339.911C340.115 86.9538 340.308 86.8685 340.45 86.7238C340.59 86.5806 340.669 86.388 340.669 86.1873C340.669 85.9867 340.59 85.7941 340.45 85.6508C340.307 85.5058 340.115 85.4203 339.911 85.4115H140.23C140.027 85.4203 139.835 85.5058 139.692 85.6508C139.551 85.7941 139.473 85.9867 139.473 86.1873C139.473 86.388 139.551 86.5806 139.692 86.7238C139.833 86.8685 140.027 86.9538 140.231 86.9624ZM326.318 81.4504C328.888 81.4504 330.971 79.3701 330.971 76.8033C330.971 76.1927 330.85 75.5881 330.616 75.024C330.382 74.46 330.039 73.9476 329.607 73.5161C329.175 73.0846 328.662 72.7424 328.098 72.5091C327.534 72.2758 326.929 72.1559 326.318 72.1563C325.707 72.1559 325.103 72.2758 324.538 72.5091C323.974 72.7424 323.461 73.0846 323.029 73.5161C322.597 73.9476 322.254 74.46 322.02 75.024C321.786 75.5881 321.665 76.1927 321.665 76.8033C321.665 77.414 321.786 78.0186 322.02 78.5826C322.254 79.1467 322.597 79.6591 323.029 80.0906C323.461 80.5221 323.974 80.8643 324.538 81.0976C325.103 81.3309 325.707 81.4508 326.318 81.4504ZM310.242 81.4504C312.812 81.4504 314.895 79.3701 314.895 76.8033C314.895 76.1927 314.774 75.5881 314.54 75.024C314.306 74.46 313.963 73.9476 313.531 73.5161C313.099 73.0846 312.586 72.7424 312.022 72.5091C311.457 72.2758 310.853 72.1559 310.242 72.1563C309.631 72.1559 309.027 72.2758 308.462 72.5091C307.898 72.7424 307.385 73.0846 306.953 73.5161C306.521 73.9476 306.178 74.46 305.944 75.024C305.71 75.5881 305.589 76.1927 305.589 76.8033C305.589 77.414 305.71 78.0186 305.944 78.5826C306.178 79.1467 306.521 79.6591 306.953 80.0906C307.385 80.5221 307.898 80.8643 308.462 81.0976C309.027 81.3309 309.631 81.4508 310.242 81.4504ZM294.166 81.4504C296.736 81.4504 298.819 79.3701 298.819 76.8033C298.819 76.1927 298.698 75.5881 298.464 75.024C298.23 74.46 297.887 73.9476 297.455 73.5161C297.023 73.0846 296.51 72.7424 295.946 72.5091C295.381 72.2758 294.776 72.1559 294.166 72.1563C293.555 72.1559 292.95 72.2758 292.386 72.5091C291.822 72.7424 291.309 73.0846 290.877 73.5161C290.445 73.9476 290.102 74.46 289.868 75.024C289.634 75.5881 289.513 76.1927 289.513 76.8033C289.513 77.414 289.634 78.0186 289.868 78.5826C290.102 79.1467 290.445 79.6591 290.877 80.0906C291.309 80.5221 291.822 80.8643 292.386 81.0976C292.95 81.3309 293.555 81.4508 294.166 81.4504ZM149.06 74.1545C149.059 74.2648 149.081 74.374 149.124 74.4758C149.166 74.5775 149.229 74.6696 149.308 74.7465C149.469 74.9054 149.686 74.9945 149.912 74.9944H161.331C161.56 74.9944 161.779 74.9053 161.941 74.7473C162.021 74.6697 162.085 74.5769 162.128 74.4743C162.172 74.3718 162.194 74.2616 162.194 74.1502C162.194 74.0388 162.172 73.9286 162.128 73.826C162.085 73.7235 162.021 73.6306 161.941 73.5531C161.778 73.3941 161.559 73.3054 161.331 73.3059H149.912C149.685 73.3091 149.467 73.3998 149.307 73.5586C149.228 73.6364 149.166 73.7291 149.124 73.8313C149.081 73.9334 149.06 74.0438 149.06 74.1545ZM149.06 77.3242C149.059 77.4346 149.081 77.544 149.123 77.6459C149.166 77.7477 149.229 77.84 149.308 77.917C149.469 78.0753 149.686 78.1642 149.912 78.1649H161.331C161.56 78.1649 161.779 78.0758 161.941 77.9178C162.021 77.8402 162.085 77.7473 162.128 77.6448C162.171 77.5422 162.194 77.432 162.194 77.3207C162.194 77.2093 162.171 77.0991 162.128 76.9966C162.085 76.894 162.021 76.8012 161.941 76.7236C161.778 76.5648 161.559 76.4761 161.331 76.4764H149.912C149.685 76.4788 149.467 76.5695 149.307 76.729C149.228 76.8068 149.166 76.8995 149.124 77.0017C149.081 77.1039 149.06 77.2135 149.06 77.3242ZM149.06 80.4876C149.058 80.7098 149.148 80.924 149.307 81.0828C149.467 81.2423 149.685 81.3331 149.912 81.3354H161.331C161.56 81.3354 161.779 81.2463 161.941 81.0883C162.021 81.0106 162.084 80.9178 162.128 80.8152C162.171 80.7126 162.193 80.6025 162.193 80.4912C162.193 80.3799 162.171 80.2697 162.128 80.1671C162.084 80.0646 162.021 79.9717 161.941 79.8941C161.778 79.7353 161.559 79.6466 161.331 79.6469H149.912C149.686 79.6476 149.469 79.7366 149.308 79.8948C149.229 79.9719 149.166 80.0641 149.123 80.166C149.081 80.2678 149.059 80.3772 149.06 80.4876ZM310.158 110.641H169.983C168.15 110.64 166.389 111.354 165.074 112.631C164.433 113.254 163.922 113.999 163.572 114.823C163.222 115.646 163.041 116.531 163.038 117.426V184.072C163.04 185.871 163.773 187.595 165.074 188.867C166.389 190.144 168.15 190.858 169.983 190.857H310.158C311.991 190.858 313.753 190.144 315.067 188.867C315.709 188.244 316.22 187.499 316.57 186.675C316.92 185.852 317.102 184.967 317.105 184.072V117.426C317.102 116.531 316.92 115.646 316.57 114.823C316.221 113.999 315.71 113.254 315.068 112.631C313.753 111.353 311.992 110.639 310.158 110.641ZM315.54 117.426V136.87H266.27V112.169H310.157C311.578 112.168 312.943 112.721 313.961 113.711C314.459 114.193 314.855 114.771 315.126 115.409C315.397 116.047 315.538 116.733 315.54 117.426ZM215.436 163.1V138.398H264.706V163.1H215.436ZM264.706 164.628V189.328H215.436V164.628H264.706ZM213.872 163.1H164.602V138.398H213.872V163.1ZM215.436 136.87V112.169H264.706V136.87H215.436ZM266.27 138.398H315.54V163.1H266.27V138.398ZM169.983 112.169H213.872V136.87H164.602V117.427C164.604 116.734 164.745 116.048 165.016 115.41C165.287 114.772 165.683 114.194 166.18 113.711C167.199 112.722 168.563 112.169 169.983 112.169ZM164.602 184.072V164.628H213.872V189.328H169.983C168.563 189.329 167.199 188.776 166.18 187.787C165.683 187.304 165.287 186.727 165.016 186.089C164.745 185.451 164.604 184.765 164.602 184.072ZM310.158 189.328H266.27V164.628H315.54V184.072C315.538 184.765 315.397 185.451 315.126 186.089C314.855 186.727 314.46 187.304 313.962 187.787C312.943 188.776 311.579 189.329 310.158 189.328Z" fill="#3F3D56"/>
<path d="M232.947 127.562C231.703 125.552 230.229 123.406 227.92 122.75C225.247 121.989 222.501 123.5 220.172 124.989C213.213 129.439 206.505 134.267 200.076 139.452L200.084 139.53L215.079 138.52C218.69 138.277 222.425 138.001 225.617 136.331C226.828 135.698 228.009 134.852 229.38 134.793C231.085 134.72 232.572 135.883 233.74 137.098C240.651 144.287 242.651 155.28 250.405 161.596C245.507 149.801 239.669 138.419 232.947 127.561V127.562Z" fill="white"/>
<path d="M275.426 188.534C274.662 187.591 274.349 187.371 273.596 186.419C267.462 178.671 261.687 170.646 256.288 162.369C252.622 156.75 249.134 151.017 245.83 145.178C243.038 140.253 240.379 135.255 237.855 130.188C237.54 129.557 237.233 128.922 236.929 128.285C236.21 126.789 235.505 125.286 234.748 123.81C233.961 122.03 232.763 120.462 231.253 119.234C230.528 118.698 229.668 118.374 228.769 118.301C227.501 118.307 226.258 118.654 225.171 119.307C217.002 123.5 209.359 128.648 202.405 134.644C195.476 140.584 189.268 147.316 183.907 154.702C183.744 154.93 183.357 154.711 183.522 154.482C184.172 153.585 184.835 152.697 185.51 151.818C193.911 140.905 204.21 131.52 215.938 124.093C217.913 122.843 219.924 121.652 221.969 120.522C222.998 119.946 224.039 119.392 225.092 118.859C226.105 118.279 227.237 117.936 228.403 117.856C232.42 117.795 234.501 122.24 235.929 125.231C236.378 126.172 236.833 127.11 237.293 128.045C239.032 131.598 240.837 135.117 242.708 138.602C247.469 147.471 252.644 156.111 258.216 164.494C263.813 172.914 269.365 180.352 275.741 188.226C275.916 188.444 275.603 188.755 275.426 188.534ZM202.007 132.45C201.773 132.195 201.542 131.94 201.307 131.687C199.455 129.686 197.467 127.707 194.923 126.559C193.706 125.994 192.383 125.695 191.041 125.681C189.657 125.718 188.291 126.009 187.012 126.54C186.405 126.776 185.812 127.045 185.227 127.331C184.56 127.659 183.904 128.01 183.252 128.363C179.586 130.342 176.067 132.582 172.723 135.066C171.57 135.922 170.44 136.807 169.333 137.721C168.305 138.569 167.296 139.44 166.308 140.334C166.097 140.524 165.782 140.216 165.993 140.025C166.99 139.123 168.007 138.244 169.046 137.389C170.446 136.236 171.882 135.126 173.352 134.063C175.643 132.406 178.013 130.861 180.453 129.432C181.675 128.718 182.915 128.033 184.171 127.379C184.549 127.182 184.933 126.988 185.321 126.805C186.203 126.371 187.118 126.007 188.058 125.718C189.392 125.296 190.799 125.161 192.189 125.32C193.532 125.511 194.826 125.948 196.002 126.609C198.5 127.973 200.437 130.082 202.322 132.14C202.513 132.349 202.199 132.659 202.007 132.45Z" fill="white"/>
<path d="M253.19 153.19L259.175 151.051L262.147 149.989C263.108 149.612 264.088 149.283 265.082 149.003C265.952 148.76 266.873 148.771 267.738 149.036C268.504 149.313 269.208 149.739 269.808 150.29C270.419 150.839 270.987 151.432 271.508 152.063C272.155 152.822 272.792 153.59 273.433 154.354C281.365 163.831 289.144 173.435 296.768 183.161L297.702 184.355C297.874 184.575 298.262 184.358 298.087 184.135C289.743 173.458 281.211 162.929 272.495 152.553C271.93 151.88 271.373 151.201 270.753 150.576C270.223 149.954 269.577 149.441 268.85 149.067C268.117 148.69 267.319 148.459 266.499 148.386C265.505 148.42 264.525 148.63 263.604 149.007C262.603 149.361 261.605 149.721 260.606 150.079L254.578 152.232L253.071 152.77C252.804 152.865 252.919 153.287 253.19 153.19ZM194.134 129.078C192.592 128.338 190.885 128.011 189.178 128.131C187.472 128.25 185.826 128.81 184.402 129.758C189.731 130.656 195.004 131.858 200.195 133.358C198.041 132.126 196.355 130.193 194.134 129.078ZM184.372 129.753L183.787 130.218C183.985 130.055 184.19 129.902 184.402 129.758L184.372 129.753Z" fill="white"/>
<path d="M269.584 153.212C269.055 152.453 268.325 151.858 267.476 151.493L266.653 151.525C272.916 162.337 281.376 171.784 291.512 179.287L269.584 153.212ZM265.734 141.375C268.351 141.375 270.472 139.302 270.472 136.745C270.472 134.189 268.351 132.116 265.734 132.116C263.117 132.116 260.995 134.189 260.995 136.745C260.995 139.302 263.117 141.375 265.734 141.375Z" fill="white"/>
<path d="M334.497 188.183C335.426 188.183 336.318 187.821 336.984 187.174C337.309 186.858 337.568 186.48 337.745 186.063C337.922 185.646 338.014 185.198 338.016 184.745V113.696C338.015 113.243 337.924 112.794 337.747 112.377C337.57 111.959 337.311 111.582 336.985 111.266C336.319 110.619 335.426 110.257 334.497 110.259C333.568 110.257 332.675 110.619 332.008 111.266C331.683 111.582 331.424 111.959 331.247 112.377C331.07 112.794 330.978 113.243 330.978 113.696V184.745C330.979 185.198 331.072 185.646 331.249 186.063C331.426 186.48 331.685 186.858 332.01 187.174C332.676 187.821 333.568 188.183 334.497 188.183Z" fill="#3F3D56"/>
<path d="M334.497 188.183C335.426 188.183 336.318 187.821 336.984 187.174C337.309 186.858 337.568 186.48 337.745 186.063C337.922 185.646 338.014 185.198 338.016 184.745V169.68C337.608 169.137 337.078 168.698 336.469 168.398C335.856 168.095 335.181 167.937 334.497 167.937C333.813 167.937 333.138 168.095 332.525 168.398C331.916 168.698 331.386 169.137 330.978 169.68V184.745C330.979 185.198 331.072 185.646 331.249 186.063C331.426 186.48 331.685 186.858 332.01 187.174C332.676 187.821 333.568 188.183 334.497 188.183Z" fill="#2F2E41"/>
<path d="M334.497 173.668C335.496 173.668 336.455 173.279 337.172 172.583C337.521 172.243 337.8 171.837 337.991 171.388C338.181 170.94 338.28 170.457 338.282 169.97V153.769C337.843 153.185 337.274 152.713 336.619 152.39C335.959 152.064 335.233 151.894 334.497 151.894C333.761 151.894 333.035 152.064 332.375 152.39C331.72 152.713 331.151 153.185 330.712 153.769V169.971C330.713 170.459 330.812 170.941 331.003 171.39C331.194 171.839 331.472 172.245 331.822 172.584C332.539 173.28 333.498 173.669 334.497 173.669V173.668Z" fill="#6C63FF"/>
<path d="M334.497 170.721C335.225 170.722 335.925 170.438 336.448 169.931C336.703 169.683 336.906 169.387 337.045 169.059C337.184 168.732 337.256 168.38 337.258 168.025V156.207C336.938 155.782 336.522 155.438 336.045 155.202C335.563 154.964 335.034 154.84 334.497 154.84C333.96 154.84 333.43 154.964 332.949 155.202C332.472 155.438 332.056 155.782 331.736 156.207V168.026C331.737 168.741 332.029 169.426 332.546 169.932C333.068 170.439 333.768 170.722 334.497 170.721Z" fill="#3F3D56"/>
<path d="M225.928 268C225.624 267.736 225.375 267.413 225.197 267.051C225.019 266.689 224.915 266.296 224.891 265.893C224.868 265.491 224.927 265.089 225.062 264.71C225.198 264.33 225.408 263.982 225.68 263.686L256.427 230.077C256.986 229.47 257.76 229.106 258.584 229.063C259.41 229.016 260.22 229.293 260.844 229.835C261.149 230.1 261.398 230.422 261.576 230.784C261.755 231.146 261.859 231.54 261.883 231.942C261.906 232.344 261.847 232.747 261.711 233.126C261.576 233.506 261.365 233.854 261.092 234.15L230.345 267.759C229.786 268.364 229.012 268.728 228.188 268.771C227.363 268.818 226.553 268.542 225.928 268Z" fill="#6C63FF"/>
<path d="M481 323.334C481 328.903 479.654 333.166 479.819 336.573C470.585 340.509 461.101 343.832 451.43 346.52C450.335 346.825 449.24 347.116 448.137 347.406C442.17 329.56 436.195 313.219 433.841 311.485C428.453 307.535 425.754 323.876 425.754 319.927C425.754 315.977 428.453 315.977 421.719 310.713C414.978 305.449 419.021 281.759 419.021 281.759L409.589 258.069L420.139 220.283L433.841 171.199H447.316C447.316 171.199 447.715 171.482 448.38 172.009C451.75 174.698 461.917 183.682 460.791 193.576C460.455 196.524 461.205 205.096 462.512 216.51C466.484 250.972 475.611 288.436 475.611 298.322C475.611 311.485 481 315.435 481 323.334Z" fill="#E6E6E6"/>
<path d="M469.7 216.381C469.685 216.342 469.677 216.312 469.661 216.281C469.359 215.486 469.006 214.71 468.605 213.959C466.33 209.78 468.738 203.363 466.173 196.273C462.028 184.783 456.976 178.006 449.57 171.933C449.351 171.75 449.132 171.574 448.905 171.391L448.897 171.383C443.955 167.418 437.995 163.713 430.597 159.098C429.056 158.137 427.445 157.135 425.772 156.081C423.613 154.729 423.731 150.221 423.856 145.455C423.996 140.16 424.145 134.675 421.486 131.252L421.314 131.031L421.04 130.962C411.918 129.201 402.623 128.501 393.339 128.876H393.332C389.389 129.019 385.474 129.58 381.655 130.55C381.374 130.626 381.092 130.702 380.819 130.794C380.607 130.848 380.396 130.916 380.185 130.985L380.013 131.046L379.88 131.169C377.307 133.682 376.713 138.189 376.431 142.888V142.895C376.377 143.75 376.33 144.606 376.29 145.462C376.071 150.03 375.868 154.347 374.148 156.219C370.29 160.481 365.652 163.966 360.485 166.487C352.406 170.382 346.017 170.26 345.923 170.26L345.18 170.237L345.11 170.955C339.745 180.94 339.948 206.701 339.784 234.288C339.776 235.823 339.766 237.367 339.752 238.918C339.659 251.767 339.408 264.838 338.423 276.748C337.993 281.867 337.437 286.764 336.695 291.34C333.081 313.625 316.713 295.121 308.884 309.95C309.142 311.41 309.576 312.834 310.175 314.19C311.074 314.71 311.997 315.213 312.912 315.718C316.971 317.926 321.108 319.987 325.315 321.899C325.55 322.006 325.785 322.112 326.019 322.211C335.261 326.388 344.826 329.809 354.619 332.441C368.815 336.267 383.413 338.403 398.11 338.805C398.169 338.798 398.23 338.796 398.29 338.797C415.672 338.329 432.945 335.897 449.781 331.547L450.485 331.364C451.588 331.074 452.683 330.784 453.777 330.478C463.449 327.79 472.932 324.467 482.166 320.531C482.176 320.866 482.21 321.201 482.268 321.532C482.276 321.64 482.292 321.747 482.315 321.852C482.331 321.73 482.346 321.608 482.354 321.486C482.401 321.127 482.44 320.76 482.479 320.393C487.265 274.8 477.325 236.09 469.7 216.381Z" fill="#3F3D56"/>
<path d="M362.218 104.639C366.992 113.165 374.595 119.849 383.776 123.59C392.98 127.332 403.166 127.906 412.732 125.22C422.292 122.535 430.631 116.748 436.376 108.814C442.121 100.88 444.928 91.2715 444.336 81.5708C443.744 71.8701 439.787 62.655 433.118 55.4444C426.448 48.2337 417.463 43.4569 407.643 41.9006C397.823 40.3443 387.754 42.1016 379.093 46.8823C370.431 51.6631 363.694 59.1826 359.993 68.203C359.794 68.6944 359.607 69.1906 359.432 69.6912C357.341 75.3663 356.506 81.4276 356.986 87.4566C357.47 93.4943 359.255 99.3557 362.218 104.639Z" fill="#FFB6B6"/>
<path d="M355.924 69.6912C357.809 64.5421 356.987 67.223 358.891 62.0943C357.648 66.6365 359.612 69.1813 359.432 69.6912H411.563V40.0877C396.29 34.1753 381.359 29.1428 372.339 40.0877C364.302 40.0877 356.594 43.2066 350.911 48.7585C345.228 54.3104 342.034 61.8401 342.034 69.6912H355.924Z" fill="#2F2E41"/>
<path d="M374.404 151.979C374.443 151.432 374.504 150.864 374.584 150.315C375.146 146.282 376.549 142.405 377.971 138.568C379.475 134.438 380.998 130.286 382.521 126.156C380.56 133.653 381.159 141.591 384.224 148.71C393.023 142.014 387.472 126.704 398.976 126.704C426.635 126.704 455.095 104.795 455.095 77.7567C455.095 50.7387 443.23 30.5333 415.571 30.5333C387.892 30.5333 365.445 42.9071 364.904 69.9259C398.976 77.7567 367.97 149.238 374.404 151.979Z" fill="#2F2E41"/>
<path d="M451.639 73.6156C469.35 73.6156 483.707 59.5909 483.707 42.29C483.707 24.99 469.35 10.9644 451.639 10.9644C433.929 10.9644 419.571 24.9892 419.571 42.29C419.571 59.5909 433.929 73.6156 451.639 73.6156ZM501.632 221.942C501.522 223.554 501.426 225.271 501.343 227.091C499.685 261.385 501.116 307.552 489.94 332.601C487.437 333.938 484.909 335.217 482.354 336.436C482.252 336.482 482.159 336.528 482.073 336.574C481.384 336.902 480.696 337.223 480.008 337.529C479.983 337.55 479.953 337.566 479.922 337.575C471.423 341.497 462.645 344.783 453.66 347.407L453.027 347.59C438 351.929 422.487 354.365 406.854 354.84C406.04 354.863 405.242 354.878 404.468 354.894C404.195 354.902 403.929 354.909 403.663 354.909C402.787 354.917 401.919 354.924 401.043 354.924C399.275 354.924 397.516 354.899 395.764 354.848C381.067 354.446 366.469 352.31 352.273 348.484C342.479 345.852 332.915 342.431 323.673 338.255C323.439 338.155 323.204 338.048 322.969 337.942C318.762 336.031 314.625 333.97 310.566 331.761C309.651 331.257 308.728 330.752 307.829 330.233C307.229 328.877 306.796 327.453 306.538 325.993C304.763 317.658 303.339 323.281 302.323 305.939C301.392 290.041 300.798 274.097 300.579 264.984C300.508 262.554 300.485 260.606 300.477 259.277C301.306 253.486 314.632 246.916 334.067 240.674C335.905 240.086 337.805 239.498 339.752 238.917C345.008 237.335 350.623 235.785 356.489 234.288C371.426 230.468 388.014 226.961 404.476 224.066C412.479 222.662 420.507 221.401 428.556 220.284C442.344 218.374 455.388 217.053 466.549 216.511C467.62 216.457 468.668 216.411 469.7 216.38C470.811 216.335 471.898 216.304 472.962 216.281C489.041 215.937 500.021 217.572 501.632 221.942Z" fill="#2F2E41"/>
<path opacity="0.2" d="M501.632 221.942C501.522 223.554 501.426 225.271 501.343 227.091C489.158 214.272 357.896 271.538 302.323 305.939C301.392 290.041 300.798 274.097 300.579 264.984C300.508 262.554 300.485 260.606 300.477 259.277C301.306 253.486 314.632 246.916 334.067 240.674C335.905 240.086 337.805 239.498 339.752 238.917C345.008 237.335 350.623 235.785 356.489 234.288C371.426 230.468 388.014 226.961 404.476 224.066C412.479 222.662 420.507 221.401 428.556 220.284C442.344 218.374 455.388 217.053 466.549 216.511C467.62 216.457 468.668 216.411 469.7 216.38C470.811 216.335 471.898 216.304 472.962 216.281C489.041 215.937 500.021 217.572 501.632 221.942Z" fill="black"/>
<path d="M234.688 261.678C235.927 263.2 237.483 264.433 239.247 265.293C241.024 266.159 242.967 266.633 244.943 266.684C246.921 266.736 248.887 266.363 250.708 265.591C252.517 264.824 254.137 263.673 255.457 262.217L299.994 280.085L295.188 256.1L253.631 242.809C250.973 240.812 247.686 239.838 244.369 240.065C241.042 240.289 237.913 241.697 235.578 244.023C233.243 246.35 231.863 249.432 231.699 252.686C231.535 255.94 232.599 259.139 234.689 261.679L234.688 261.678Z" fill="#FFB6B6"/>
<path d="M382.839 161.798L382.595 161.772L356.623 163.614C353.333 163.846 350.127 164.761 347.21 166.302C344.315 167.83 341.776 169.953 339.762 172.534C338.833 173.721 338.027 175.001 337.356 176.352L337.35 176.355C335.113 180.815 334.436 185.895 335.428 190.785L347.656 250.911L318.236 248.299L307.497 250.092L294.824 245.097L268.818 245.53L268.216 247.477L262.76 265.143L262.333 266.531L302.042 290.975L313.554 287.554L318.978 291.623L319.239 291.629L329.994 291.838L375.86 292.716L388.397 271.019L390.357 267.617C404.917 235.752 408.51 213.509 407.37 198.184C406.773 190.086 404.856 183.932 402.537 179.294C395.363 164.96 383.344 161.919 382.839 161.798Z" fill="#3F3D56"/>
<path d="M455.695 70.101C449.614 68.7661 443.976 65.9522 439.304 61.9214C434.632 57.8914 431.077 52.7736 428.97 47.0434C427.088 41.7129 426.378 35.8591 423.22 31.1151C428.02 24.6813 431.879 17.5962 434.68 10.0737C435.761 7.16907 438.292 1.8956 434.001 0.297845C430.584 -0.975357 426.701 2.09738 424.674 4.52256C423.14 6.35037 422.036 8.49906 421.442 10.8104L419.346 1.76813C419.255 1.47728 419.056 1.23287 418.789 1.08617C418.519 0.937106 418.203 0.895219 417.903 0.968856C412.177 1.92141 408.024 7.10024 407.302 12.5559C406.91 15.3708 407.566 18.2317 409.145 20.5948C410.984 23.3281 413.679 25.2872 416.241 27.3252C418.968 29.4915 421.278 31.7986 422.744 34.9668C424.267 38.2593 424.953 41.8622 425.963 45.3198C427.882 51.9603 431.598 57.9728 436.721 62.723C441.843 67.4733 448.183 70.7861 455.072 72.3112C456.543 72.6263 457.172 70.417 455.695 70.101ZM423.359 15.3143C423.177 12.4277 423.957 9.56221 425.578 7.16672C426.395 5.94088 427.414 4.86251 428.592 3.97746C429.712 3.14221 431.364 2.03481 432.846 2.34216C434.769 2.74023 433.995 4.83695 433.587 6.10077C433.048 7.76899 432.455 9.41948 431.81 11.0497C429.894 15.8783 427.514 20.5098 424.704 24.8789L422.722 16.331C422.929 16.2576 423.105 16.1168 423.222 15.9313C423.338 15.7474 423.386 15.5291 423.359 15.3135V15.3143ZM409.657 15.7702C409.274 13.1618 409.832 10.5023 411.232 8.26787C412.632 6.02178 414.791 4.32313 417.335 3.46286L422.922 27.5583C422.537 28.112 422.141 28.6571 421.743 29.2022C421.639 29.0849 421.544 28.9644 421.436 28.8495C417.53 24.6967 410.718 21.8664 409.657 15.7702Z" fill="#6C63FF"/>
</svg>
