<svg width="588" height="588" viewBox="0 0 588 588" fill="none" xmlns="http://www.w3.org/2000/svg">
<circle cx="294" cy="294" r="227" fill="white"/>
<g clip-path="url(#clip0_0_1)">
<path fill-rule="evenodd" clip-rule="evenodd" d="M459.003 432.543V317.765C459.003 256.27 426.173 227.654 382.406 227.654C347.087 227.654 331.26 247.087 322.44 260.719V232.358H255.898C256.78 251.145 255.898 432.543 255.898 432.543H322.44V320.744C322.44 314.776 322.871 308.798 324.635 304.525C329.437 292.569 340.383 280.192 358.758 280.192C382.847 280.192 392.47 298.547 392.47 325.448V432.552L459.003 432.543ZM185.798 205.036C208.995 205.036 223.45 189.65 223.45 170.432C223.019 150.802 208.995 135.857 186.239 135.857C163.484 135.857 148.597 150.793 148.597 170.432C148.597 189.65 163.043 205.036 185.377 205.036H185.798ZM294 588C131.634 588 0 456.366 0 294C0 131.624 131.634 0 294 0C456.366 0 588 131.624 588 294C588 456.366 456.366 588 294 588ZM219.069 432.543V232.358H152.537V432.543H219.069Z" fill="#007AB9"/>
</g>
<defs>
<clipPath id="clip0_0_1">
<rect width="588" height="588" fill="white"/>
</clipPath>
</defs>
</svg>
