<svg width="963" height="655" viewBox="0 0 963 655" fill="none" xmlns="http://www.w3.org/2000/svg">
<circle cx="482" cy="328" r="274" fill="white" fill-opacity="0.04"/>
<path d="M540.497 71.1239H460.712V118.365H540.497V71.1239Z" fill="#2F2E41"/>
<path d="M381.669 78.7412H340.533V64.3968C340.533 58.9418 342.7 53.7103 346.557 49.8531C350.414 45.9958 355.646 43.8288 361.101 43.8288C366.556 43.8288 371.787 45.9958 375.644 49.8531C379.502 53.7103 381.669 58.9418 381.669 64.3968V78.7412ZM341.443 77.8305H380.758V64.3968C380.758 59.1834 378.687 54.1835 375 50.497C371.314 46.8106 366.314 44.7396 361.101 44.7396C355.887 44.7396 350.887 46.8106 347.201 50.497C343.514 54.1835 341.443 59.1834 341.443 64.3968V77.8305Z" fill="#3F3D56"/>
<path d="M402.009 76.7684V71.1624L297.395 73.9654L294.084 215.962L309.567 235.088L402.009 76.7684Z" fill="#3F3D56"/>
<path d="M420.527 74.7948L307.139 77.3752L309.567 235.088L418.993 223.293L420.527 74.7948Z" fill="#6C63FF"/>
<path d="M516.931 585.771H504.061L497.938 536.128H516.933L516.931 585.771Z" fill="#FFB6B6"/>
<path d="M520.213 598.247L478.714 598.246V597.721C478.714 593.437 480.416 589.328 483.445 586.299C486.474 583.27 490.583 581.568 494.866 581.568L520.214 581.569L520.213 598.247Z" fill="#E4E4E4"/>
<path d="M469.69 585.771H456.819L450.697 536.128H469.692L469.69 585.771Z" fill="#FFB6B6"/>
<path d="M472.972 598.247L431.472 598.246V597.721C431.472 593.437 433.174 589.328 436.204 586.299C439.233 583.27 443.341 581.568 447.625 581.568L472.973 581.569L472.972 598.247Z" fill="#E4E4E4"/>
<path d="M431.892 274.927C431.892 274.927 413.087 315.423 430.076 396.936C447.064 478.449 447.205 567.938 447.205 567.938L473.181 568.361L487.773 375.7L495.413 565.641H521.006L543.56 378.703C543.56 378.703 558.402 295.229 525.304 280.284L431.892 274.927Z" fill="#504F6E"/>
<path d="M521.903 132.013L465.027 126.77C447.191 139.77 437.18 163.12 439.235 187.211C442.021 219.875 441.079 264.828 418.72 284.357C418.72 284.357 479.66 332.454 533.794 286.824C533.794 286.824 515.284 237.233 527.993 217.429C540.702 197.626 545.287 141.986 521.903 132.013Z" fill="#E4E4E4"/>
<path d="M352.668 51.2999C352.493 52.9393 352.681 54.5971 353.216 56.1565C353.752 57.7158 354.623 59.1387 355.768 60.325C356.913 61.5113 358.304 62.4321 359.843 63.0226C361.383 63.6131 363.033 63.8588 364.677 63.7426L439.774 133.825L453.233 113.323L375.184 50.8807C374.805 48.1307 373.431 45.6151 371.322 43.8106C369.213 42.006 366.515 41.0378 363.739 41.0894C360.964 41.1411 358.304 42.2091 356.264 44.0909C354.223 45.9727 352.944 48.5377 352.668 51.2999Z" fill="#FFB6B6"/>
<path d="M425.75 122.999L443.565 104.699C444.072 104.178 444.685 103.773 445.363 103.511C446.041 103.248 446.767 103.135 447.492 103.179C448.218 103.222 448.925 103.422 449.566 103.763C450.208 104.105 450.768 104.581 451.209 105.159L466.654 125.402C469.302 128.01 470.809 131.563 470.843 135.28C470.876 138.998 469.435 142.577 466.834 145.234C464.233 147.89 460.684 149.406 456.967 149.451C453.249 149.495 449.666 148.063 447.002 145.47L426.415 130.627C425.826 130.202 425.335 129.655 424.976 129.023C424.617 128.391 424.399 127.689 424.336 126.965C424.273 126.241 424.367 125.512 424.611 124.828C424.855 124.143 425.243 123.52 425.75 122.999Z" fill="#E4E4E4"/>
<path d="M631.662 221.967C631.745 220.321 631.466 218.676 630.845 217.149C630.223 215.622 629.275 214.249 628.066 213.128C626.857 212.008 625.416 211.165 623.847 210.661C622.277 210.157 620.615 210.004 618.98 210.211L540.106 144.409L527.806 165.627L609.204 223.637C609.735 226.361 611.247 228.797 613.453 230.481C615.659 232.166 618.407 232.983 621.175 232.777C623.943 232.571 626.54 231.357 628.472 229.365C630.405 227.373 631.54 224.74 631.662 221.967Z" fill="#FFB6B6"/>
<path d="M554.709 154.439L537.938 173.701C537.461 174.249 536.872 174.688 536.209 174.987C535.547 175.287 534.829 175.44 534.102 175.437C533.375 175.434 532.658 175.274 531.999 174.968C531.339 174.663 530.753 174.219 530.281 173.666L513.736 154.313C510.945 151.855 509.244 148.392 509.003 144.682C508.763 140.972 510.003 137.317 512.453 134.521C514.903 131.724 518.361 130.012 522.071 129.762C525.78 129.511 529.438 130.742 532.241 133.184L553.622 146.86C554.234 147.251 554.754 147.771 555.147 148.382C555.541 148.993 555.798 149.681 555.901 150.4C556.004 151.12 555.951 151.853 555.745 152.55C555.54 153.247 555.186 153.891 554.709 154.439Z" fill="#E4E4E4"/>
<path d="M639.676 249.791H608.517V238.926C608.517 234.794 610.158 230.831 613.08 227.909C616.002 224.987 619.964 223.346 624.096 223.346C628.228 223.346 632.191 224.987 635.113 227.909C638.035 230.831 639.676 234.794 639.676 238.926L639.676 249.791ZM609.206 249.101H638.986V238.926C638.986 234.977 637.417 231.189 634.625 228.397C631.833 225.605 628.045 224.036 624.096 224.036C620.147 224.036 616.36 225.605 613.568 228.397C610.775 231.189 609.206 234.977 609.206 238.926V249.101Z" fill="#3F3D56"/>
<path d="M655.083 248.297V244.05L575.841 246.174L573.333 353.732L585.061 368.219L655.083 248.297Z" fill="#3F3D56"/>
<path d="M669.111 246.802L583.222 248.756L585.061 368.219L667.948 359.285L669.111 246.802Z" fill="#6C63FF"/>
<path d="M497.455 117.315C516.009 117.315 531.049 102.275 531.049 83.7216C531.049 65.1682 516.009 50.1277 497.455 50.1277C478.902 50.1277 463.861 65.1682 463.861 83.7216C463.861 102.275 478.902 117.315 497.455 117.315Z" fill="#FFB6B6"/>
<path d="M481.988 68.7493C493.61 80.1381 513.833 81.2296 526.613 71.1579C530.16 83.3915 530.548 96.3246 527.742 108.749C524.935 121.173 519.025 132.684 510.563 142.205C517.672 144.773 525.856 143.083 532.21 138.989C538.564 134.895 543.27 128.644 546.821 121.972C555.612 105.453 557.813 85.2837 551.594 67.6356C545.375 49.9875 530.475 35.3536 512.373 30.6151C494.271 25.8765 473.516 31.7298 461.422 46.008C448.776 60.9385 446.727 82.8157 452.268 101.581C457.81 120.347 469.966 136.462 483.321 150.762C476.906 134.267 472.652 117.011 470.665 99.4246C469.986 93.4015 469.589 87.193 471.29 81.3755C472.992 75.558 477.18 70.1393 483.016 68.5047" fill="#858585"/>
<path d="M622.879 509.094H591.72V498.228C591.72 494.096 593.361 490.134 596.283 487.212C599.205 484.29 603.167 482.649 607.299 482.649C611.431 482.649 615.394 484.29 618.316 487.212C621.238 490.134 622.879 494.096 622.879 498.228L622.879 509.094ZM592.41 508.404H622.189V498.228C622.189 494.279 620.62 490.492 617.828 487.7C615.036 484.907 611.248 483.339 607.299 483.339C603.35 483.339 599.563 484.907 596.771 487.7C593.978 490.492 592.41 494.279 592.41 498.228V508.404Z" fill="#CACACA"/>
<path d="M638.286 507.599V503.353L559.044 505.477L556.536 613.035L568.264 627.522L638.286 507.599Z" fill="#CACACA"/>
<path d="M652.314 506.104L566.425 508.059L568.264 627.522L651.151 618.588L652.314 506.104Z" fill="#E4E4E4"/>
</svg>
