<?xml version="1.0" encoding="UTF-8" standalone="no"?> <svg xmlns="http://www.w3.org/2000/svg" viewBox="0 0 256 256"><title>web_development</title><g id="web_development"><polygon points="152.15 178.92 125 195 178 226 205 210 152.15 178.92" style="fill:#9090b0"/><polygon points="80 14 80 134 148 173 148 195 182 214 182 193 192 199 233 222 233 102 80 14" style="fill:#656580"/><polygon points="125 195 120 206 173 237 178 226 125 195" style="fill:#656580"/><polygon points="173 237 205 218 205 210 178 226 173 237" style="fill:#3d3d5c"/><path d="M138,72A4,4,0,0,1,132,75.4L91,51v75l129,74V108.12L138,60Z" style="fill:#fff"/><polygon points="100 65 210 129 210 136 100 73 100 65" style="fill:#5db8f5"/><polygon points="100 81 210 145 210 152 100 89 100 81" style="fill:#5db8f5"/><polygon points="100 97 210 161 210 168 100 105 100 97" style="fill:#5db8f5"/><polygon points="169 154 210 177 210 184 169 161 169 154" style="fill:#5db8f5"/><polygon points="80 14 91 8 244 96 233 102 80 14" style="fill:#9090b0"/><polygon points="244 96 244 215 233 222 233 102 244 96" style="fill:#3d3d5c"/><polygon points="182 214 192 208 192 199 182 193 182 214" style="fill:#3d3d5c"/><polygon points="44 121 28 129 16 134 32.3 124.97 44 121" style="fill:#d4720a"/><path d="M23,154l14,1,11.17,13,16-8L67,179l14.08,8.07L83,171l11.17-1.47L108,184l7-11-11-18V140l11-5-7-19-14-1L83,101,81.08,82,66,74,64.16,89.89,53.37,91.23,39,77,32.15,87.94,44,105v16l-11.69,4L39,145Zm36.72-31.63c0-6.75,3.29-10.69,8-10.69,9.38,0,20,14.44,20,26.71,0,6.75-3.28,10.69-8,10.69C70.39,149.08,59.72,134.64,59.72,122.37Z" style="fill:#b35100"/><polygon points="115 173 99 182 92 193 108 184 115 173" style="fill:#b35100"/><polygon points="65 196 81.08 187.07 83 171 67 179 65 196" style="fill:#d4720a"/><polygon points="104 155 88 164 99 182 115 173 104 155" style="fill:#d4720a"/><polygon points="104 140 88 149 88 164 104 155 104 140" style="fill:#b35100"/><polygon points="115 135 99 144 88 149 104 140 115 135" style="fill:#7ab2bc"/><polygon points="108 116 92 125 99 144 115 135 108 116" style="fill:#d4720a"/><polygon points="94 115 78 123 92 125 108 116 94 115" style="fill:#ffee40"/><polygon points="83 101 67 110 65 91 81.08 82.03 83 101" style="fill:#d4720a"/><polygon points="39 77 24 86 37 100 53.37 91.23 39 77" style="fill:#d4720a"/><polygon points="83 101 67 110 78 123 94 115 83 101" style="fill:#b35100"/><polygon points="64.16 89.89 48.08 98.86 37 100 53.37 91.23 64.16 89.89" style="fill:#ffee40"/><path d="M78,123l14,2,7,19-11,5v15l11,18-7,11L78,177l-11,4-2,15-14-8-3-19L37,155l-14-1-7-20,12-5V114L16,97l8-11,13,14,11.08-1.14L50,83l15,8,2,19Zm-26.32-2.35c-4.75,0-8,3.94-8,10.69,0,12.28,10.67,26.72,20.05,26.72,4.75,0,8-3.95,8-10.7C71.73,135.09,61.06,120.65,51.68,120.65Z" style="fill:#edac01"/><polygon points="66 74 50 83 65 91 81.08 82.03 66 74" style="fill:#ffee40"/><path d="M134,65.83c0,2.76-2.24,3.66-5,2s-5-5.24-5-8,2.24-3.66,5-2S134,63.07,134,65.83Z" style="fill:#8beaff"/><path d="M118,55.83c0,2.76-2.24,3.66-5,2s-5-5.24-5-8,2.24-3.66,5-2S118,53.07,118,55.83Z" style="fill:#f03939"/><path d="M102,45.83c0,2.76-2.24,3.66-5,2s-5-5.24-5-8,2.24-3.66,5-2S102,43.07,102,45.83Z" style="fill:#ffed31"/></g></svg>