<?xml version="1.0" ?><svg height="512" preserveAspectRatio="xMidYMid" viewBox="0 0 512 512" width="512" xmlns="http://www.w3.org/2000/svg" xmlns:xlink="http://www.w3.org/1999/xlink"><defs><style>
      .cls-1 {
        fill: #fff;
      }

      .cls-2 {
        fill: #cd201f;
      }

      .cls-2, .cls-3 {
        fill-rule: evenodd;
      }

      .cls-3 {
        fill: #000;
        opacity: 0.1;
      }
    </style></defs><circle class="cls-1" cx="256" cy="256" r="256"/><path class="cls-2" d="M256.000,512.000 C114.615,512.000 0.000,397.385 0.000,256.000 C0.000,114.615 114.615,0.000 256.000,0.000 C397.385,0.000 512.000,114.615 512.000,256.000 C512.000,397.385 397.385,512.000 256.000,512.000 ZM372.201,157.479 C352.590,149.816 181.783,150.849 152.921,156.656 C124.058,162.463 115.000,175.541 115.000,255.439 C115.000,335.337 128.065,346.713 148.799,352.575 C169.533,358.437 333.046,358.178 366.431,353.398 C402.997,348.163 406.000,318.161 406.000,246.384 C406.000,174.607 393.866,165.945 372.201,157.479 ZM230.411,210.987 L307.901,252.146 L299.657,256.262 L230.411,210.987 ZM230.411,292.482 L230.411,213.456 L298.008,257.085 L230.411,292.482 Z"/><path class="cls-3" d="M436.999,75.012 C536.959,174.972 536.959,337.039 436.999,436.999 C337.039,536.959 174.972,536.959 75.012,436.999 "/></svg>