<svg xmlns="http://www.w3.org/2000/svg" xmlns:xlink="http://www.w3.org/1999/xlink" width="500" zoomAndPan="magnify" viewBox="0 0 375 374.999991" height="500" preserveAspectRatio="xMidYMid meet" version="1.0"><defs><clipPath id="7bbeaa72c4"><path d="M 62 136 L 120 136 L 120 323.863281 L 62 323.863281 Z M 62 136 " clip-rule="nonzero"/></clipPath><clipPath id="efed9dc452"><path d="M 113 238 L 126 238 L 126 323.863281 L 113 323.863281 Z M 113 238 " clip-rule="nonzero"/></clipPath><clipPath id="5a07fd7e6e"><path d="M 125 125 L 250 125 L 250 323.863281 L 125 323.863281 Z M 125 125 " clip-rule="nonzero"/></clipPath><clipPath id="7f057761bc"><path d="M 181 238 L 194 238 L 194 323.863281 L 181 323.863281 Z M 181 238 " clip-rule="nonzero"/></clipPath><clipPath id="e92c691309"><path d="M 11 147 L 58 147 L 58 323.863281 L 11 323.863281 Z M 11 147 " clip-rule="nonzero"/></clipPath><clipPath id="96d4ba3dde"><path d="M 51 238 L 63 238 L 63 323.863281 L 51 323.863281 Z M 51 238 " clip-rule="nonzero"/></clipPath><clipPath id="a12fc5bf6f"><path d="M 255 136 L 313 136 L 313 323.863281 L 255 323.863281 Z M 255 136 " clip-rule="nonzero"/></clipPath><clipPath id="eccd169c97"><path d="M 249 238 L 262 238 L 262 323.863281 L 249 323.863281 Z M 249 238 " clip-rule="nonzero"/></clipPath><clipPath id="861f93af9c"><path d="M 312 238 L 324 238 L 324 323.863281 L 312 323.863281 Z M 312 238 " clip-rule="nonzero"/></clipPath><clipPath id="2cde2e3f11"><path d="M 317 147 L 364 147 L 364 323.863281 L 317 323.863281 Z M 317 147 " clip-rule="nonzero"/></clipPath></defs><path fill="#ffde59" d="M 119.601562 130.820312 C 120.527344 130.820312 121.453125 130.773438 122.375 130.683594 C 123.296875 130.59375 124.214844 130.457031 125.125 130.277344 C 126.03125 130.09375 126.929688 129.871094 127.816406 129.601562 C 128.703125 129.332031 129.578125 129.019531 130.433594 128.667969 C 131.289062 128.3125 132.125 127.917969 132.945312 127.480469 C 133.761719 127.042969 134.554688 126.570312 135.328125 126.054688 C 136.097656 125.539062 136.839844 124.988281 137.558594 124.402344 C 138.273438 123.8125 138.960938 123.191406 139.617188 122.539062 C 140.273438 121.882812 140.894531 121.199219 141.480469 120.484375 C 142.070312 119.765625 142.621094 119.023438 143.136719 118.253906 C 143.652344 117.484375 144.128906 116.691406 144.5625 115.875 C 145 115.058594 145.398438 114.222656 145.75 113.367188 C 146.105469 112.511719 146.417969 111.640625 146.6875 110.753906 C 146.957031 109.867188 147.183594 108.972656 147.363281 108.0625 C 147.542969 107.15625 147.679688 106.238281 147.769531 105.320312 C 147.859375 104.398438 147.90625 103.472656 147.90625 102.546875 C 147.90625 101.621094 147.859375 100.699219 147.769531 99.777344 C 147.679688 98.855469 147.542969 97.941406 147.363281 97.03125 C 147.183594 96.125 146.957031 95.226562 146.6875 94.339844 C 146.417969 93.453125 146.105469 92.582031 145.75 91.726562 C 145.398438 90.871094 145 90.035156 144.5625 89.21875 C 144.128906 88.402344 143.652344 87.609375 143.136719 86.839844 C 142.621094 86.070312 142.070312 85.328125 141.480469 84.613281 C 140.894531 83.894531 140.273438 83.210938 139.617188 82.554688 C 138.960938 81.902344 138.273438 81.28125 137.558594 80.691406 C 136.839844 80.105469 136.097656 79.554688 135.328125 79.039062 C 134.554688 78.527344 133.761719 78.050781 132.945312 77.613281 C 132.125 77.175781 131.289062 76.78125 130.433594 76.425781 C 129.578125 76.074219 128.703125 75.761719 127.816406 75.492188 C 126.929688 75.222656 126.03125 75 125.125 74.820312 C 124.214844 74.636719 123.296875 74.503906 122.375 74.410156 C 121.453125 74.320312 120.527344 74.277344 119.601562 74.277344 C 118.675781 74.277344 117.75 74.320312 116.828125 74.410156 C 115.902344 74.503906 114.988281 74.636719 114.078125 74.820312 C 113.167969 75 112.273438 75.222656 111.382812 75.492188 C 110.496094 75.761719 109.625 76.074219 108.769531 76.425781 C 107.914062 76.78125 107.074219 77.175781 106.257812 77.613281 C 105.441406 78.050781 104.644531 78.527344 103.875 79.039062 C 103.105469 79.554688 102.359375 80.105469 101.644531 80.691406 C 100.929688 81.28125 100.242188 81.902344 99.585938 82.554688 C 98.929688 83.210938 98.308594 83.894531 97.722656 84.613281 C 97.132812 85.328125 96.582031 86.070312 96.066406 86.839844 C 95.550781 87.609375 95.074219 88.402344 94.636719 89.21875 C 94.199219 90.035156 93.804688 90.871094 93.449219 91.726562 C 93.097656 92.582031 92.785156 93.453125 92.515625 94.339844 C 92.246094 95.226562 92.019531 96.125 91.839844 97.03125 C 91.660156 97.941406 91.523438 98.855469 91.433594 99.777344 C 91.339844 100.699219 91.296875 101.621094 91.296875 102.546875 C 91.296875 103.472656 91.339844 104.398438 91.433594 105.320312 C 91.523438 106.238281 91.660156 107.15625 91.839844 108.0625 C 92.019531 108.972656 92.246094 109.867188 92.515625 110.753906 C 92.785156 111.640625 93.097656 112.511719 93.449219 113.367188 C 93.804688 114.222656 94.199219 115.058594 94.636719 115.875 C 95.074219 116.691406 95.550781 117.484375 96.066406 118.253906 C 96.582031 119.023438 97.132812 119.765625 97.722656 120.484375 C 98.308594 121.199219 98.929688 121.882812 99.585938 122.539062 C 100.242188 123.191406 100.929688 123.8125 101.644531 124.402344 C 102.359375 124.988281 103.105469 125.539062 103.875 126.054688 C 104.644531 126.570312 105.441406 127.042969 106.257812 127.480469 C 107.074219 127.917969 107.914062 128.3125 108.769531 128.667969 C 109.625 129.019531 110.496094 129.332031 111.382812 129.601562 C 112.273438 129.871094 113.167969 130.09375 114.078125 130.277344 C 114.988281 130.457031 115.902344 130.59375 116.828125 130.683594 C 117.75 130.773438 118.675781 130.820312 119.601562 130.820312 Z M 119.601562 85.585938 C 120.15625 85.585938 120.710938 85.613281 121.265625 85.667969 C 121.820312 85.71875 122.367188 85.800781 122.914062 85.910156 C 123.460938 86.019531 124 86.152344 124.53125 86.316406 C 125.0625 86.476562 125.585938 86.664062 126.101562 86.875 C 126.613281 87.089844 127.117188 87.324219 127.605469 87.585938 C 128.097656 87.847656 128.574219 88.132812 129.035156 88.441406 C 129.5 88.75 129.945312 89.082031 130.375 89.433594 C 130.804688 89.789062 131.214844 90.160156 131.609375 90.550781 C 132.003906 90.945312 132.375 91.355469 132.730469 91.785156 C 133.082031 92.214844 133.414062 92.660156 133.722656 93.125 C 134.03125 93.585938 134.316406 94.0625 134.578125 94.550781 C 134.839844 95.039062 135.078125 95.542969 135.292969 96.054688 C 135.503906 96.570312 135.691406 97.089844 135.851562 97.625 C 136.015625 98.15625 136.148438 98.691406 136.257812 99.238281 C 136.367188 99.78125 136.449219 100.332031 136.503906 100.882812 C 136.558594 101.4375 136.585938 101.992188 136.585938 102.546875 C 136.585938 103.101562 136.558594 103.65625 136.503906 104.210938 C 136.449219 104.761719 136.367188 105.3125 136.257812 105.855469 C 136.148438 106.402344 136.015625 106.941406 135.851562 107.472656 C 135.691406 108.003906 135.503906 108.527344 135.292969 109.039062 C 135.078125 109.550781 134.839844 110.054688 134.578125 110.542969 C 134.316406 111.035156 134.03125 111.507812 133.722656 111.972656 C 133.414062 112.433594 133.082031 112.878906 132.730469 113.308594 C 132.375 113.738281 132.003906 114.148438 131.609375 114.542969 C 131.214844 114.933594 130.804688 115.308594 130.375 115.660156 C 129.945312 116.011719 129.5 116.34375 129.035156 116.652344 C 128.574219 116.960938 128.097656 117.246094 127.605469 117.507812 C 127.117188 117.769531 126.613281 118.007812 126.101562 118.21875 C 125.585938 118.433594 125.0625 118.617188 124.53125 118.78125 C 124 118.941406 123.460938 119.074219 122.914062 119.183594 C 122.367188 119.292969 121.820312 119.375 121.265625 119.429688 C 120.710938 119.484375 120.15625 119.511719 119.601562 119.511719 C 119.046875 119.511719 118.488281 119.484375 117.9375 119.429688 C 117.382812 119.375 116.832031 119.292969 116.289062 119.183594 C 115.742188 119.074219 115.203125 118.941406 114.671875 118.78125 C 114.140625 118.617188 113.617188 118.433594 113.101562 118.21875 C 112.589844 118.007812 112.085938 117.769531 111.59375 117.507812 C 111.105469 117.246094 110.628906 116.960938 110.164062 116.652344 C 109.703125 116.34375 109.257812 116.011719 108.828125 115.660156 C 108.398438 115.308594 107.984375 114.933594 107.59375 114.542969 C 107.199219 114.148438 106.824219 113.738281 106.472656 113.308594 C 106.121094 112.878906 105.789062 112.433594 105.480469 111.972656 C 105.171875 111.507812 104.886719 111.035156 104.625 110.542969 C 104.359375 110.054688 104.125 109.550781 103.910156 109.039062 C 103.699219 108.527344 103.511719 108.003906 103.347656 107.472656 C 103.1875 106.941406 103.054688 106.402344 102.945312 105.855469 C 102.835938 105.3125 102.753906 104.761719 102.699219 104.210938 C 102.644531 103.65625 102.617188 103.101562 102.617188 102.546875 C 102.617188 101.992188 102.644531 101.4375 102.699219 100.882812 C 102.753906 100.332031 102.835938 99.78125 102.945312 99.238281 C 103.054688 98.691406 103.1875 98.15625 103.347656 97.625 C 103.511719 97.089844 103.699219 96.570312 103.910156 96.054688 C 104.125 95.542969 104.359375 95.042969 104.625 94.550781 C 104.886719 94.0625 105.171875 93.585938 105.480469 93.125 C 105.789062 92.660156 106.121094 92.214844 106.472656 91.785156 C 106.824219 91.355469 107.199219 90.945312 107.59375 90.550781 C 107.984375 90.160156 108.398438 89.789062 108.828125 89.433594 C 109.257812 89.082031 109.703125 88.75 110.164062 88.441406 C 110.628906 88.132812 111.105469 87.847656 111.59375 87.585938 C 112.085938 87.324219 112.589844 87.089844 113.101562 86.875 C 113.617188 86.664062 114.140625 86.476562 114.671875 86.316406 C 115.203125 86.152344 115.742188 86.019531 116.289062 85.910156 C 116.832031 85.800781 117.382812 85.71875 117.9375 85.664062 C 118.488281 85.613281 119.046875 85.585938 119.601562 85.585938 Z M 119.601562 85.585938 " fill-opacity="1" fill-rule="nonzero"/><g clip-path="url(#7bbeaa72c4)"><path fill="#ffde59" d="M 113.941406 136.472656 L 102.617188 136.472656 C 80.765625 136.472656 62.992188 151.683594 62.992188 170.398438 L 62.992188 221.289062 C 62.992188 232.203125 72.726562 241.363281 85.636719 243.453125 L 85.636719 317.414062 C 85.636719 317.785156 85.671875 318.152344 85.742188 318.515625 C 85.816406 318.878906 85.921875 319.234375 86.066406 319.578125 C 86.207031 319.917969 86.382812 320.246094 86.589844 320.554688 C 86.796875 320.863281 87.03125 321.148438 87.292969 321.410156 C 87.554688 321.671875 87.839844 321.90625 88.152344 322.113281 C 88.460938 322.320312 88.785156 322.496094 89.128906 322.636719 C 89.472656 322.777344 89.828125 322.886719 90.191406 322.957031 C 90.554688 323.03125 90.925781 323.066406 91.296875 323.066406 C 91.667969 323.066406 92.035156 323.03125 92.398438 322.957031 C 92.765625 322.886719 93.117188 322.777344 93.460938 322.636719 C 93.804688 322.496094 94.132812 322.320312 94.441406 322.113281 C 94.75 321.90625 95.035156 321.671875 95.300781 321.410156 C 95.5625 321.148438 95.796875 320.863281 96.003906 320.554688 C 96.210938 320.246094 96.382812 319.917969 96.527344 319.578125 C 96.667969 319.234375 96.777344 318.878906 96.847656 318.515625 C 96.921875 318.152344 96.957031 317.785156 96.957031 317.414062 L 96.957031 170.398438 C 96.957031 170.027344 96.921875 169.660156 96.847656 169.296875 C 96.777344 168.933594 96.667969 168.578125 96.527344 168.234375 C 96.382812 167.894531 96.210938 167.566406 96.003906 167.257812 C 95.796875 166.949219 95.5625 166.664062 95.300781 166.402344 C 95.035156 166.140625 94.75 165.90625 94.441406 165.699219 C 94.132812 165.492188 93.804688 165.316406 93.460938 165.175781 C 93.117188 165.035156 92.765625 164.925781 92.398438 164.855469 C 92.035156 164.78125 91.667969 164.746094 91.296875 164.746094 C 90.925781 164.746094 90.554688 164.78125 90.191406 164.855469 C 89.828125 164.925781 89.472656 165.035156 89.128906 165.175781 C 88.785156 165.316406 88.460938 165.492188 88.152344 165.699219 C 87.839844 165.90625 87.554688 166.140625 87.292969 166.402344 C 87.03125 166.664062 86.796875 166.949219 86.589844 167.257812 C 86.382812 167.566406 86.207031 167.894531 86.066406 168.234375 C 85.921875 168.578125 85.816406 168.933594 85.742188 169.296875 C 85.671875 169.660156 85.636719 170.027344 85.636719 170.398438 L 85.636719 231.863281 C 79.125 230.277344 74.3125 226.207031 74.3125 221.289062 L 74.3125 170.398438 C 74.3125 157.902344 86.992188 147.78125 102.617188 147.78125 L 113.941406 147.78125 C 114.3125 147.78125 114.679688 147.746094 115.042969 147.671875 C 115.410156 147.601562 115.761719 147.492188 116.105469 147.351562 C 116.449219 147.210938 116.777344 147.035156 117.085938 146.828125 C 117.394531 146.621094 117.679688 146.386719 117.941406 146.125 C 118.207031 145.863281 118.441406 145.578125 118.648438 145.269531 C 118.855469 144.960938 119.027344 144.632812 119.171875 144.292969 C 119.3125 143.949219 119.417969 143.59375 119.492188 143.230469 C 119.566406 142.867188 119.601562 142.5 119.601562 142.128906 C 119.601562 141.757812 119.566406 141.390625 119.492188 141.023438 C 119.417969 140.660156 119.3125 140.308594 119.171875 139.964844 C 119.027344 139.621094 118.855469 139.296875 118.648438 138.988281 C 118.441406 138.675781 118.207031 138.390625 117.941406 138.128906 C 117.679688 137.867188 117.394531 137.632812 117.085938 137.425781 C 116.777344 137.21875 116.449219 137.046875 116.105469 136.902344 C 115.761719 136.761719 115.410156 136.65625 115.042969 136.582031 C 114.679688 136.507812 114.3125 136.472656 113.941406 136.472656 Z M 113.941406 136.472656 " fill-opacity="1" fill-rule="nonzero"/></g><g clip-path="url(#efed9dc452)"><path fill="#ffde59" d="M 113.941406 243.90625 L 113.941406 317.414062 C 113.941406 317.785156 113.976562 318.152344 114.050781 318.515625 C 114.121094 318.878906 114.230469 319.234375 114.371094 319.578125 C 114.511719 319.917969 114.6875 320.246094 114.894531 320.554688 C 115.101562 320.863281 115.335938 321.148438 115.597656 321.410156 C 115.859375 321.671875 116.148438 321.90625 116.457031 322.113281 C 116.765625 322.320312 117.089844 322.496094 117.433594 322.636719 C 117.777344 322.777344 118.132812 322.886719 118.496094 322.957031 C 118.859375 323.03125 119.230469 323.066406 119.601562 323.066406 C 119.972656 323.066406 120.339844 323.03125 120.707031 322.957031 C 121.070312 322.886719 121.425781 322.777344 121.765625 322.636719 C 122.109375 322.496094 122.4375 322.320312 122.746094 322.113281 C 123.054688 321.90625 123.339844 321.671875 123.605469 321.410156 C 123.867188 321.148438 124.101562 320.863281 124.308594 320.554688 C 124.515625 320.246094 124.6875 319.917969 124.832031 319.578125 C 124.972656 319.234375 125.082031 318.878906 125.152344 318.515625 C 125.226562 318.152344 125.261719 317.785156 125.261719 317.414062 L 125.261719 243.90625 C 125.261719 243.535156 125.226562 243.167969 125.152344 242.804688 C 125.082031 242.4375 124.972656 242.085938 124.832031 241.742188 C 124.6875 241.398438 124.515625 241.074219 124.308594 240.765625 C 124.101562 240.457031 123.867188 240.171875 123.605469 239.90625 C 123.339844 239.644531 123.054688 239.410156 122.746094 239.203125 C 122.4375 239 122.109375 238.824219 121.765625 238.683594 C 121.425781 238.539062 121.070312 238.433594 120.707031 238.359375 C 120.339844 238.289062 119.972656 238.25 119.601562 238.25 C 119.230469 238.25 118.859375 238.289062 118.496094 238.359375 C 118.132812 238.433594 117.777344 238.539062 117.433594 238.683594 C 117.089844 238.824219 116.765625 239 116.457031 239.203125 C 116.148438 239.410156 115.859375 239.644531 115.597656 239.90625 C 115.335938 240.171875 115.101562 240.457031 114.894531 240.765625 C 114.6875 241.074219 114.511719 241.398438 114.371094 241.742188 C 114.230469 242.085938 114.121094 242.4375 114.050781 242.804688 C 113.976562 243.167969 113.941406 243.535156 113.941406 243.90625 Z M 113.941406 243.90625 " fill-opacity="1" fill-rule="nonzero"/></g><path fill="#ffde59" d="M 187.535156 119.511719 C 188.644531 119.511719 189.757812 119.457031 190.863281 119.347656 C 191.96875 119.238281 193.070312 119.074219 194.160156 118.859375 C 195.25 118.640625 196.328125 118.371094 197.394531 118.050781 C 198.457031 117.726562 199.503906 117.351562 200.53125 116.929688 C 201.558594 116.503906 202.5625 116.027344 203.546875 115.503906 C 204.527344 114.980469 205.480469 114.410156 206.40625 113.792969 C 207.328125 113.175781 208.222656 112.515625 209.082031 111.808594 C 209.941406 111.105469 210.765625 110.359375 211.550781 109.574219 C 212.339844 108.789062 213.085938 107.964844 213.789062 107.105469 C 214.496094 106.246094 215.15625 105.355469 215.777344 104.433594 C 216.394531 103.507812 216.964844 102.558594 217.488281 101.578125 C 218.015625 100.597656 218.488281 99.59375 218.914062 98.566406 C 219.339844 97.539062 219.714844 96.496094 220.039062 95.433594 C 220.359375 94.371094 220.628906 93.292969 220.847656 92.203125 C 221.066406 91.113281 221.226562 90.015625 221.335938 88.910156 C 221.445312 87.804688 221.5 86.695312 221.5 85.585938 C 221.5 84.472656 221.445312 83.363281 221.335938 82.257812 C 221.226562 81.152344 221.066406 80.054688 220.847656 78.964844 C 220.628906 77.875 220.359375 76.800781 220.039062 75.734375 C 219.714844 74.671875 219.339844 73.628906 218.914062 72.601562 C 218.488281 71.574219 218.015625 70.570312 217.488281 69.589844 C 216.964844 68.613281 216.394531 67.660156 215.777344 66.734375 C 215.15625 65.8125 214.496094 64.921875 213.789062 64.0625 C 213.085938 63.203125 212.339844 62.378906 211.550781 61.59375 C 210.765625 60.808594 209.941406 60.0625 209.082031 59.359375 C 208.222656 58.652344 207.328125 57.992188 206.40625 57.375 C 205.480469 56.757812 204.527344 56.1875 203.546875 55.664062 C 202.5625 55.140625 201.558594 54.664062 200.53125 54.242188 C 199.503906 53.816406 198.457031 53.441406 197.394531 53.117188 C 196.328125 52.796875 195.25 52.527344 194.160156 52.308594 C 193.070312 52.09375 191.96875 51.929688 190.863281 51.820312 C 189.757812 51.710938 188.644531 51.660156 187.535156 51.660156 C 186.421875 51.660156 185.3125 51.710938 184.203125 51.820312 C 183.097656 51.929688 182 52.09375 180.90625 52.308594 C 179.816406 52.527344 178.738281 52.796875 177.675781 53.117188 C 176.609375 53.441406 175.5625 53.816406 174.535156 54.242188 C 173.507812 54.664062 172.503906 55.140625 171.523438 55.664062 C 170.542969 56.1875 169.589844 56.757812 168.664062 57.375 C 167.738281 57.992188 166.847656 58.652344 165.984375 59.359375 C 165.125 60.0625 164.300781 60.808594 163.515625 61.59375 C 162.730469 62.378906 161.984375 63.203125 161.277344 64.0625 C 160.570312 64.921875 159.910156 65.8125 159.292969 66.734375 C 158.671875 67.660156 158.101562 68.613281 157.578125 69.589844 C 157.054688 70.570312 156.578125 71.574219 156.152344 72.601562 C 155.726562 73.628906 155.351562 74.671875 155.03125 75.734375 C 154.707031 76.800781 154.4375 77.875 154.21875 78.964844 C 154.003906 80.054688 153.839844 81.152344 153.730469 82.257812 C 153.621094 83.363281 153.566406 84.472656 153.566406 85.585938 C 153.566406 86.695312 153.621094 87.804688 153.730469 88.910156 C 153.839844 90.015625 154.003906 91.113281 154.21875 92.203125 C 154.4375 93.292969 154.707031 94.371094 155.03125 95.433594 C 155.351562 96.496094 155.726562 97.539062 156.152344 98.566406 C 156.578125 99.59375 157.054688 100.597656 157.578125 101.578125 C 158.101562 102.558594 158.671875 103.507812 159.292969 104.433594 C 159.910156 105.355469 160.570312 106.246094 161.277344 107.105469 C 161.984375 107.964844 162.730469 108.789062 163.515625 109.574219 C 164.300781 110.359375 165.125 111.105469 165.984375 111.808594 C 166.847656 112.515625 167.738281 113.175781 168.664062 113.792969 C 169.589844 114.410156 170.542969 114.980469 171.523438 115.503906 C 172.503906 116.027344 173.507812 116.503906 174.535156 116.929688 C 175.5625 117.351562 176.609375 117.726562 177.675781 118.050781 C 178.738281 118.371094 179.816406 118.640625 180.90625 118.859375 C 182 119.074219 183.097656 119.238281 184.203125 119.347656 C 185.3125 119.457031 186.421875 119.511719 187.535156 119.511719 Z M 187.535156 62.96875 C 188.277344 62.96875 189.015625 63.003906 189.753906 63.074219 C 190.492188 63.148438 191.222656 63.257812 191.953125 63.402344 C 192.679688 63.546875 193.398438 63.726562 194.105469 63.941406 C 194.816406 64.15625 195.515625 64.40625 196.199219 64.6875 C 196.882812 64.972656 197.554688 65.289062 198.207031 65.636719 C 198.863281 65.988281 199.496094 66.367188 200.113281 66.777344 C 200.730469 67.191406 201.324219 67.632812 201.898438 68.101562 C 202.472656 68.570312 203.019531 69.066406 203.546875 69.589844 C 204.070312 70.113281 204.566406 70.664062 205.039062 71.234375 C 205.507812 71.808594 205.949219 72.402344 206.363281 73.019531 C 206.773438 73.632812 207.15625 74.269531 207.503906 74.921875 C 207.855469 75.574219 208.171875 76.246094 208.453125 76.929688 C 208.738281 77.613281 208.988281 78.308594 209.203125 79.019531 C 209.417969 79.726562 209.597656 80.445312 209.742188 81.171875 C 209.886719 81.898438 209.996094 82.628906 210.070312 83.367188 C 210.140625 84.105469 210.179688 84.84375 210.179688 85.585938 C 210.179688 86.324219 210.140625 87.0625 210.070312 87.800781 C 209.996094 88.539062 209.886719 89.269531 209.742188 89.996094 C 209.597656 90.722656 209.417969 91.441406 209.203125 92.148438 C 208.988281 92.859375 208.738281 93.554688 208.453125 94.238281 C 208.171875 94.925781 207.855469 95.59375 207.503906 96.246094 C 207.15625 96.898438 206.773438 97.535156 206.363281 98.148438 C 205.949219 98.765625 205.507812 99.359375 205.039062 99.933594 C 204.566406 100.503906 204.070312 101.054688 203.546875 101.578125 C 203.019531 102.101562 202.472656 102.597656 201.898438 103.066406 C 201.324219 103.539062 200.730469 103.976562 200.113281 104.390625 C 199.496094 104.800781 198.863281 105.183594 198.207031 105.53125 C 197.554688 105.878906 196.882812 106.195312 196.199219 106.480469 C 195.515625 106.761719 194.816406 107.011719 194.105469 107.226562 C 193.398438 107.441406 192.679688 107.621094 191.953125 107.765625 C 191.222656 107.910156 190.492188 108.019531 189.753906 108.09375 C 189.015625 108.164062 188.277344 108.203125 187.535156 108.203125 C 186.792969 108.203125 186.050781 108.164062 185.3125 108.09375 C 184.578125 108.019531 183.84375 107.910156 183.117188 107.765625 C 182.390625 107.621094 181.671875 107.441406 180.960938 107.226562 C 180.25 107.011719 179.554688 106.761719 178.867188 106.480469 C 178.183594 106.195312 177.511719 105.878906 176.859375 105.53125 C 176.207031 105.183594 175.570312 104.800781 174.953125 104.390625 C 174.335938 103.976562 173.742188 103.539062 173.167969 103.066406 C 172.59375 102.597656 172.046875 102.101562 171.523438 101.578125 C 170.996094 101.054688 170.5 100.503906 170.03125 99.933594 C 169.558594 99.359375 169.117188 98.765625 168.707031 98.148438 C 168.292969 97.535156 167.914062 96.898438 167.5625 96.246094 C 167.214844 95.59375 166.898438 94.925781 166.613281 94.238281 C 166.328125 93.554688 166.078125 92.859375 165.863281 92.148438 C 165.648438 91.441406 165.46875 90.722656 165.324219 89.996094 C 165.179688 89.269531 165.070312 88.539062 165 87.800781 C 164.925781 87.0625 164.890625 86.324219 164.890625 85.585938 C 164.890625 84.84375 164.925781 84.105469 165 83.367188 C 165.070312 82.628906 165.179688 81.898438 165.324219 81.171875 C 165.46875 80.445312 165.648438 79.726562 165.863281 79.019531 C 166.078125 78.308594 166.328125 77.613281 166.613281 76.929688 C 166.898438 76.246094 167.214844 75.574219 167.5625 74.921875 C 167.914062 74.269531 168.292969 73.632812 168.707031 73.019531 C 169.117188 72.402344 169.558594 71.808594 170.03125 71.234375 C 170.5 70.664062 170.996094 70.113281 171.523438 69.589844 C 172.046875 69.066406 172.59375 68.570312 173.167969 68.101562 C 173.742188 67.632812 174.335938 67.191406 174.953125 66.777344 C 175.570312 66.367188 176.207031 65.988281 176.859375 65.636719 C 177.511719 65.289062 178.183594 64.972656 178.867188 64.6875 C 179.554688 64.40625 180.25 64.15625 180.960938 63.941406 C 181.671875 63.726562 182.390625 63.546875 183.117188 63.402344 C 183.84375 63.257812 184.578125 63.148438 185.3125 63.074219 C 186.050781 63.003906 186.792969 62.96875 187.535156 62.96875 Z M 187.535156 62.96875 " fill-opacity="1" fill-rule="nonzero"/><g clip-path="url(#5a07fd7e6e)"><path fill="#ffde59" d="M 210.179688 125.164062 L 164.890625 125.164062 C 143.039062 125.164062 125.261719 140.375 125.261719 159.089844 L 125.261719 193.015625 C 125.261719 193.574219 125.289062 194.125 125.34375 194.679688 C 125.398438 195.234375 125.480469 195.78125 125.589844 196.328125 C 125.695312 196.871094 125.832031 197.410156 125.992188 197.941406 C 126.15625 198.472656 126.34375 198.996094 126.554688 199.507812 C 126.769531 200.023438 127.003906 200.523438 127.265625 201.011719 C 127.53125 201.503906 127.816406 201.980469 128.125 202.441406 C 128.433594 202.902344 128.765625 203.347656 129.117188 203.777344 C 129.46875 204.207031 129.84375 204.617188 130.238281 205.011719 C 130.628906 205.40625 131.042969 205.777344 131.472656 206.128906 C 131.902344 206.480469 132.347656 206.8125 132.808594 207.121094 C 133.273438 207.429688 133.75 207.714844 134.238281 207.976562 C 134.730469 208.238281 135.230469 208.476562 135.746094 208.6875 C 136.261719 208.902344 136.78125 209.089844 137.316406 209.25 C 137.847656 209.410156 138.386719 209.546875 138.933594 209.652344 C 139.476562 209.761719 140.027344 209.84375 140.582031 209.898438 C 141.132812 209.953125 141.6875 209.980469 142.246094 209.980469 L 147.90625 209.980469 L 147.90625 317.414062 C 147.90625 317.785156 147.941406 318.152344 148.015625 318.515625 C 148.085938 318.878906 148.195312 319.234375 148.335938 319.578125 C 148.480469 319.917969 148.652344 320.246094 148.859375 320.554688 C 149.066406 320.863281 149.300781 321.148438 149.566406 321.410156 C 149.828125 321.671875 150.113281 321.90625 150.421875 322.113281 C 150.730469 322.320312 151.058594 322.496094 151.402344 322.636719 C 151.746094 322.777344 152.097656 322.886719 152.464844 322.957031 C 152.828125 323.03125 153.195312 323.066406 153.566406 323.066406 C 153.9375 323.066406 154.308594 323.03125 154.671875 322.957031 C 155.035156 322.886719 155.390625 322.777344 155.734375 322.636719 C 156.078125 322.496094 156.402344 322.320312 156.710938 322.113281 C 157.023438 321.90625 157.308594 321.671875 157.570312 321.410156 C 157.832031 321.148438 158.066406 320.863281 158.273438 320.554688 C 158.480469 320.246094 158.65625 319.917969 158.796875 319.578125 C 158.941406 319.234375 159.046875 318.878906 159.121094 318.515625 C 159.191406 318.152344 159.230469 317.785156 159.230469 317.414062 L 159.230469 209.980469 L 215.839844 209.980469 L 215.839844 317.414062 C 215.839844 317.785156 215.875 318.152344 215.949219 318.515625 C 216.019531 318.878906 216.128906 319.234375 216.269531 319.578125 C 216.414062 319.917969 216.585938 320.246094 216.792969 320.554688 C 217 320.863281 217.234375 321.148438 217.496094 321.410156 C 217.761719 321.671875 218.046875 321.90625 218.355469 322.113281 C 218.664062 322.320312 218.992188 322.496094 219.332031 322.636719 C 219.675781 322.777344 220.03125 322.886719 220.394531 322.957031 C 220.761719 323.03125 221.128906 323.066406 221.5 323.066406 C 221.871094 323.066406 222.238281 323.03125 222.605469 322.957031 C 222.96875 322.886719 223.324219 322.777344 223.667969 322.636719 C 224.011719 322.496094 224.335938 322.320312 224.644531 322.113281 C 224.953125 321.90625 225.242188 321.671875 225.503906 321.410156 C 225.765625 321.148438 226 320.863281 226.207031 320.554688 C 226.414062 320.246094 226.589844 319.917969 226.730469 319.578125 C 226.871094 319.234375 226.980469 318.878906 227.050781 318.515625 C 227.125 318.152344 227.160156 317.785156 227.160156 317.414062 L 227.160156 209.980469 L 232.824219 209.980469 C 233.378906 209.980469 233.933594 209.953125 234.488281 209.898438 C 235.039062 209.84375 235.589844 209.761719 236.136719 209.652344 C 236.679688 209.546875 237.21875 209.410156 237.753906 209.25 C 238.285156 209.089844 238.808594 208.902344 239.320312 208.6875 C 239.835938 208.476562 240.335938 208.238281 240.828125 207.976562 C 241.320312 207.714844 241.796875 207.429688 242.257812 207.121094 C 242.71875 206.8125 243.167969 206.480469 243.597656 206.128906 C 244.027344 205.777344 244.4375 205.40625 244.832031 205.011719 C 245.222656 204.617188 245.597656 204.207031 245.949219 203.777344 C 246.304688 203.347656 246.632812 202.902344 246.941406 202.441406 C 247.253906 201.980469 247.539062 201.503906 247.800781 201.011719 C 248.0625 200.523438 248.300781 200.023438 248.511719 199.507812 C 248.726562 198.996094 248.914062 198.472656 249.074219 197.941406 C 249.234375 197.410156 249.371094 196.871094 249.480469 196.328125 C 249.585938 195.78125 249.667969 195.234375 249.722656 194.679688 C 249.777344 194.125 249.804688 193.574219 249.804688 193.015625 L 249.804688 159.089844 C 249.804688 140.375 232.03125 125.164062 210.179688 125.164062 Z M 232.824219 198.671875 L 205.707031 198.671875 L 159.230469 178.03125 L 159.230469 176.730469 L 203.894531 181.652344 L 221.5 181.652344 C 221.871094 181.652344 222.238281 181.617188 222.605469 181.542969 C 222.96875 181.46875 223.324219 181.363281 223.667969 181.222656 C 224.011719 181.078125 224.335938 180.90625 224.644531 180.699219 C 224.953125 180.492188 225.242188 180.257812 225.503906 179.996094 C 225.765625 179.734375 226 179.449219 226.207031 179.140625 C 226.414062 178.828125 226.589844 178.503906 226.730469 178.160156 C 226.871094 177.816406 226.980469 177.464844 227.050781 177.101562 C 227.125 176.734375 227.160156 176.367188 227.160156 175.996094 L 227.160156 164.746094 C 227.160156 164.375 227.125 164.007812 227.050781 163.640625 C 226.980469 163.277344 226.871094 162.925781 226.730469 162.582031 C 226.589844 162.238281 226.414062 161.914062 226.207031 161.605469 C 226 161.296875 225.765625 161.007812 225.503906 160.746094 C 225.242188 160.484375 224.953125 160.25 224.644531 160.042969 C 224.335938 159.835938 224.011719 159.664062 223.667969 159.519531 C 223.324219 159.378906 222.96875 159.273438 222.605469 159.199219 C 222.238281 159.128906 221.871094 159.089844 221.5 159.089844 C 221.128906 159.089844 220.761719 159.128906 220.394531 159.199219 C 220.03125 159.273438 219.675781 159.378906 219.332031 159.519531 C 218.992188 159.664062 218.664062 159.835938 218.355469 160.042969 C 218.046875 160.25 217.761719 160.484375 217.496094 160.746094 C 217.234375 161.007812 217 161.296875 216.792969 161.605469 C 216.585938 161.914062 216.414062 162.238281 216.269531 162.582031 C 216.128906 162.925781 216.019531 163.277344 215.949219 163.640625 C 215.875 164.007812 215.839844 164.375 215.839844 164.746094 L 215.839844 170.398438 L 204.855469 170.398438 L 159.230469 165.367188 L 159.230469 164.746094 C 159.230469 164.375 159.191406 164.007812 159.121094 163.640625 C 159.046875 163.277344 158.941406 162.925781 158.796875 162.582031 C 158.65625 162.238281 158.480469 161.914062 158.273438 161.605469 C 158.066406 161.296875 157.832031 161.007812 157.570312 160.746094 C 157.308594 160.484375 157.023438 160.25 156.710938 160.042969 C 156.402344 159.835938 156.078125 159.664062 155.734375 159.519531 C 155.390625 159.378906 155.035156 159.273438 154.671875 159.199219 C 154.308594 159.128906 153.9375 159.089844 153.566406 159.089844 C 153.195312 159.089844 152.828125 159.128906 152.464844 159.199219 C 152.097656 159.273438 151.746094 159.378906 151.402344 159.519531 C 151.058594 159.664062 150.730469 159.835938 150.421875 160.042969 C 150.113281 160.25 149.828125 160.484375 149.566406 160.746094 C 149.300781 161.007812 149.066406 161.296875 148.859375 161.605469 C 148.652344 161.914062 148.480469 162.238281 148.335938 162.582031 C 148.195312 162.925781 148.085938 163.277344 148.015625 163.640625 C 147.941406 164.007812 147.90625 164.375 147.90625 164.746094 L 147.90625 181.707031 C 147.878906 181.953125 147.878906 182.199219 147.90625 182.441406 C 147.820312 182.894531 147.820312 183.347656 147.90625 183.800781 C 148.050781 184.144531 148.242188 184.464844 148.472656 184.761719 C 148.628906 185.066406 148.816406 185.347656 149.039062 185.609375 C 149.386719 185.960938 149.78125 186.246094 150.226562 186.457031 C 150.226562 186.457031 150.566406 186.796875 150.792969 186.855469 L 177.851562 198.671875 L 142.246094 198.671875 C 141.875 198.671875 141.503906 198.636719 141.140625 198.5625 C 140.777344 198.488281 140.421875 198.382812 140.078125 198.242188 C 139.734375 198.097656 139.410156 197.925781 139.101562 197.71875 C 138.792969 197.511719 138.503906 197.277344 138.242188 197.015625 C 137.980469 196.753906 137.746094 196.46875 137.539062 196.160156 C 137.332031 195.851562 137.15625 195.523438 137.015625 195.179688 C 136.871094 194.835938 136.765625 194.484375 136.691406 194.121094 C 136.621094 193.757812 136.585938 193.386719 136.585938 193.015625 L 136.585938 159.089844 C 136.585938 146.59375 149.265625 136.472656 164.890625 136.472656 L 210.179688 136.472656 C 225.800781 136.472656 238.484375 146.59375 238.484375 159.089844 L 238.484375 193.015625 C 238.484375 193.386719 238.445312 193.757812 238.375 194.121094 C 238.300781 194.484375 238.195312 194.835938 238.050781 195.179688 C 237.910156 195.523438 237.734375 195.851562 237.527344 196.160156 C 237.324219 196.46875 237.089844 196.753906 236.824219 197.015625 C 236.5625 197.277344 236.277344 197.511719 235.96875 197.71875 C 235.660156 197.925781 235.332031 198.097656 234.988281 198.242188 C 234.644531 198.382812 234.292969 198.488281 233.925781 198.5625 C 233.5625 198.636719 233.195312 198.671875 232.824219 198.671875 Z M 232.824219 198.671875 " fill-opacity="1" fill-rule="nonzero"/></g><g clip-path="url(#7f057761bc)"><path fill="#ffde59" d="M 181.871094 243.90625 L 181.871094 317.414062 C 181.871094 317.785156 181.910156 318.152344 181.980469 318.515625 C 182.054688 318.878906 182.160156 319.234375 182.304688 319.578125 C 182.445312 319.917969 182.621094 320.246094 182.828125 320.554688 C 183.035156 320.863281 183.269531 321.148438 183.53125 321.410156 C 183.792969 321.671875 184.078125 321.90625 184.390625 322.113281 C 184.699219 322.320312 185.023438 322.496094 185.367188 322.636719 C 185.710938 322.777344 186.066406 322.886719 186.429688 322.957031 C 186.792969 323.03125 187.164062 323.066406 187.535156 323.066406 C 187.90625 323.066406 188.273438 323.03125 188.636719 322.957031 C 189.003906 322.886719 189.355469 322.777344 189.699219 322.636719 C 190.042969 322.496094 190.371094 322.320312 190.679688 322.113281 C 190.988281 321.90625 191.273438 321.671875 191.535156 321.410156 C 191.800781 321.148438 192.035156 320.863281 192.242188 320.554688 C 192.449219 320.246094 192.621094 319.917969 192.765625 319.578125 C 192.90625 319.234375 193.011719 318.878906 193.085938 318.515625 C 193.160156 318.152344 193.195312 317.785156 193.195312 317.414062 L 193.195312 243.90625 C 193.195312 243.535156 193.160156 243.167969 193.085938 242.804688 C 193.011719 242.4375 192.90625 242.085938 192.765625 241.742188 C 192.621094 241.398438 192.449219 241.074219 192.242188 240.765625 C 192.035156 240.457031 191.800781 240.171875 191.535156 239.90625 C 191.273438 239.644531 190.988281 239.410156 190.679688 239.203125 C 190.371094 239 190.042969 238.824219 189.699219 238.683594 C 189.355469 238.539062 189.003906 238.433594 188.636719 238.359375 C 188.273438 238.289062 187.90625 238.25 187.535156 238.25 C 187.164062 238.25 186.792969 238.289062 186.429688 238.359375 C 186.066406 238.433594 185.710938 238.539062 185.367188 238.683594 C 185.023438 238.824219 184.699219 239 184.390625 239.203125 C 184.078125 239.410156 183.792969 239.644531 183.53125 239.90625 C 183.269531 240.171875 183.035156 240.457031 182.828125 240.765625 C 182.621094 241.074219 182.445312 241.398438 182.304688 241.742188 C 182.160156 242.085938 182.054688 242.4375 181.980469 242.804688 C 181.910156 243.167969 181.871094 243.535156 181.871094 243.90625 Z M 181.871094 243.90625 " fill-opacity="1" fill-rule="nonzero"/></g><path fill="#ffde59" d="M 57.328125 142.128906 C 58.164062 142.128906 58.996094 142.085938 59.828125 142.003906 C 60.65625 141.921875 61.480469 141.800781 62.300781 141.640625 C 63.117188 141.476562 63.925781 141.273438 64.722656 141.03125 C 65.523438 140.789062 66.308594 140.511719 67.078125 140.191406 C 67.847656 139.871094 68.601562 139.515625 69.339844 139.125 C 70.074219 138.730469 70.789062 138.300781 71.484375 137.839844 C 72.175781 137.375 72.84375 136.878906 73.492188 136.351562 C 74.136719 135.824219 74.753906 135.265625 75.34375 134.675781 C 75.933594 134.085938 76.492188 133.46875 77.023438 132.824219 C 77.550781 132.179688 78.046875 131.511719 78.511719 130.820312 C 78.972656 130.125 79.402344 129.414062 79.796875 128.675781 C 80.191406 127.941406 80.546875 127.191406 80.863281 126.421875 C 81.183594 125.652344 81.464844 124.867188 81.707031 124.070312 C 81.949219 123.273438 82.152344 122.464844 82.316406 121.648438 C 82.476562 120.828125 82.601562 120.007812 82.679688 119.175781 C 82.761719 118.347656 82.804688 117.515625 82.804688 116.683594 C 82.804688 115.851562 82.761719 115.019531 82.679688 114.1875 C 82.601562 113.359375 82.476562 112.535156 82.316406 111.71875 C 82.152344 110.902344 81.949219 110.09375 81.707031 109.296875 C 81.464844 108.5 81.183594 107.714844 80.863281 106.945312 C 80.546875 106.175781 80.191406 105.421875 79.796875 104.6875 C 79.402344 103.953125 78.972656 103.238281 78.511719 102.546875 C 78.046875 101.855469 77.550781 101.1875 77.023438 100.542969 C 76.492188 99.898438 75.933594 99.28125 75.34375 98.691406 C 74.753906 98.101562 74.136719 97.542969 73.492188 97.015625 C 72.84375 96.484375 72.175781 95.988281 71.484375 95.527344 C 70.789062 95.0625 70.074219 94.636719 69.339844 94.242188 C 68.601562 93.851562 67.847656 93.496094 67.078125 93.175781 C 66.308594 92.855469 65.523438 92.578125 64.722656 92.335938 C 63.925781 92.09375 63.117188 91.890625 62.300781 91.726562 C 61.480469 91.566406 60.65625 91.441406 59.828125 91.359375 C 58.996094 91.28125 58.164062 91.238281 57.328125 91.238281 C 56.496094 91.238281 55.664062 91.28125 54.832031 91.359375 C 54.003906 91.441406 53.179688 91.566406 52.359375 91.726562 C 51.542969 91.890625 50.734375 92.09375 49.933594 92.335938 C 49.136719 92.578125 48.351562 92.855469 47.582031 93.175781 C 46.808594 93.496094 46.054688 93.851562 45.320312 94.242188 C 44.585938 94.636719 43.871094 95.0625 43.175781 95.527344 C 42.484375 95.988281 41.8125 96.484375 41.167969 97.015625 C 40.523438 97.542969 39.90625 98.101562 39.316406 98.691406 C 38.726562 99.28125 38.167969 99.898438 37.636719 100.542969 C 37.109375 101.1875 36.613281 101.855469 36.148438 102.546875 C 35.683594 103.238281 35.257812 103.953125 34.863281 104.6875 C 34.46875 105.421875 34.113281 106.175781 33.792969 106.945312 C 33.476562 107.714844 33.195312 108.5 32.953125 109.296875 C 32.710938 110.09375 32.507812 110.902344 32.34375 111.71875 C 32.179688 112.535156 32.058594 113.359375 31.976562 114.1875 C 31.894531 115.019531 31.855469 115.851562 31.855469 116.683594 C 31.855469 117.515625 31.898438 118.347656 31.984375 119.175781 C 32.066406 120.003906 32.191406 120.828125 32.355469 121.644531 C 32.519531 122.460938 32.722656 123.265625 32.964844 124.0625 C 33.207031 124.859375 33.488281 125.644531 33.808594 126.410156 C 34.128906 127.179688 34.484375 127.933594 34.878906 128.667969 C 35.273438 129.402344 35.703125 130.113281 36.164062 130.804688 C 36.628906 131.5 37.125 132.167969 37.65625 132.808594 C 38.183594 133.453125 38.742188 134.070312 39.332031 134.660156 C 39.921875 135.246094 40.539062 135.804688 41.183594 136.335938 C 41.828125 136.863281 42.496094 137.359375 43.191406 137.824219 C 43.882812 138.285156 44.597656 138.714844 45.332031 139.105469 C 46.066406 139.5 46.820312 139.855469 47.589844 140.175781 C 48.359375 140.496094 49.144531 140.777344 49.941406 141.019531 C 50.738281 141.261719 51.546875 141.464844 52.363281 141.628906 C 53.179688 141.792969 54.003906 141.917969 54.835938 142 C 55.664062 142.082031 56.496094 142.125 57.328125 142.128906 Z M 57.328125 102.546875 C 58.257812 102.546875 59.179688 102.636719 60.089844 102.820312 C 61.003906 103 61.886719 103.269531 62.746094 103.625 C 63.605469 103.980469 64.417969 104.414062 65.191406 104.929688 C 65.964844 105.445312 66.679688 106.03125 67.335938 106.6875 C 67.992188 107.34375 68.582031 108.058594 69.097656 108.828125 C 69.613281 109.601562 70.050781 110.417969 70.40625 111.273438 C 70.761719 112.132812 71.027344 113.015625 71.210938 113.925781 C 71.390625 114.835938 71.480469 115.753906 71.480469 116.683594 C 71.480469 117.613281 71.390625 118.53125 71.210938 119.441406 C 71.027344 120.351562 70.761719 121.234375 70.40625 122.09375 C 70.050781 122.949219 69.613281 123.765625 69.097656 124.535156 C 68.582031 125.308594 67.992188 126.023438 67.335938 126.679688 C 66.679688 127.335938 65.964844 127.921875 65.191406 128.4375 C 64.417969 128.953125 63.605469 129.386719 62.746094 129.742188 C 61.886719 130.097656 61.003906 130.367188 60.089844 130.546875 C 59.179688 130.730469 58.257812 130.820312 57.328125 130.820312 C 56.398438 130.820312 55.480469 130.730469 54.570312 130.546875 C 53.65625 130.367188 52.773438 130.097656 51.914062 129.742188 C 51.054688 129.386719 50.238281 128.953125 49.464844 128.4375 C 48.695312 127.921875 47.980469 127.335938 47.320312 126.679688 C 46.664062 126.023438 46.078125 125.308594 45.5625 124.535156 C 45.046875 123.765625 44.609375 122.949219 44.253906 122.09375 C 43.898438 121.234375 43.628906 120.351562 43.449219 119.441406 C 43.265625 118.53125 43.175781 117.613281 43.175781 116.683594 C 43.175781 115.753906 43.265625 114.835938 43.449219 113.925781 C 43.628906 113.015625 43.898438 112.132812 44.253906 111.273438 C 44.609375 110.417969 45.046875 109.601562 45.5625 108.828125 C 46.078125 108.058594 46.664062 107.34375 47.320312 106.6875 C 47.980469 106.03125 48.695312 105.445312 49.464844 104.929688 C 50.238281 104.414062 51.054688 103.980469 51.914062 103.625 C 52.773438 103.269531 53.65625 103 54.570312 102.820312 C 55.480469 102.636719 56.398438 102.546875 57.328125 102.546875 Z M 57.328125 102.546875 " fill-opacity="1" fill-rule="nonzero"/><g clip-path="url(#e92c691309)"><path fill="#ffde59" d="M 29.023438 237.6875 L 29.023438 317.414062 C 29.023438 317.785156 29.058594 318.152344 29.132812 318.515625 C 29.207031 318.878906 29.3125 319.234375 29.457031 319.578125 C 29.597656 319.917969 29.773438 320.246094 29.976562 320.554688 C 30.183594 320.863281 30.417969 321.148438 30.683594 321.410156 C 30.945312 321.671875 31.230469 321.90625 31.539062 322.113281 C 31.847656 322.320312 32.175781 322.496094 32.519531 322.636719 C 32.863281 322.777344 33.214844 322.886719 33.582031 322.957031 C 33.945312 323.03125 34.3125 323.066406 34.683594 323.066406 C 35.058594 323.066406 35.425781 323.03125 35.789062 322.957031 C 36.152344 322.886719 36.507812 322.777344 36.851562 322.636719 C 37.195312 322.496094 37.519531 322.320312 37.832031 322.113281 C 38.140625 321.90625 38.425781 321.671875 38.6875 321.410156 C 38.949219 321.148438 39.1875 320.863281 39.390625 320.554688 C 39.597656 320.246094 39.773438 319.917969 39.914062 319.578125 C 40.058594 319.234375 40.164062 318.878906 40.238281 318.515625 C 40.308594 318.152344 40.347656 317.785156 40.347656 317.414062 L 40.347656 181.707031 C 40.347656 181.335938 40.308594 180.96875 40.238281 180.605469 C 40.164062 180.242188 40.058594 179.886719 39.914062 179.542969 C 39.773438 179.203125 39.597656 178.875 39.390625 178.566406 C 39.1875 178.257812 38.949219 177.972656 38.6875 177.710938 C 38.425781 177.449219 38.140625 177.214844 37.832031 177.007812 C 37.519531 176.800781 37.195312 176.625 36.851562 176.484375 C 36.507812 176.34375 36.152344 176.234375 35.789062 176.164062 C 35.425781 176.089844 35.058594 176.054688 34.683594 176.054688 C 34.3125 176.054688 33.945312 176.089844 33.582031 176.164062 C 33.214844 176.234375 32.863281 176.34375 32.519531 176.484375 C 32.175781 176.625 31.847656 176.800781 31.539062 177.007812 C 31.230469 177.214844 30.945312 177.449219 30.683594 177.710938 C 30.417969 177.972656 30.183594 178.257812 29.976562 178.566406 C 29.773438 178.875 29.597656 179.203125 29.457031 179.542969 C 29.3125 179.886719 29.207031 180.242188 29.132812 180.605469 C 29.058594 180.96875 29.023438 181.335938 29.023438 181.707031 L 29.023438 226.039062 C 25.175781 224.566406 23.363281 221.289062 23.363281 215.632812 L 23.363281 176.054688 C 23.363281 175.5 23.390625 174.945312 23.445312 174.390625 C 23.5 173.839844 23.582031 173.289062 23.691406 172.746094 C 23.796875 172.199219 23.933594 171.660156 24.09375 171.128906 C 24.257812 170.597656 24.441406 170.074219 24.65625 169.5625 C 24.867188 169.050781 25.105469 168.546875 25.367188 168.058594 C 25.628906 167.566406 25.917969 167.089844 26.226562 166.628906 C 26.535156 166.167969 26.867188 165.722656 27.21875 165.292969 C 27.570312 164.863281 27.945312 164.453125 28.335938 164.058594 C 28.730469 163.667969 29.140625 163.292969 29.574219 162.941406 C 30.003906 162.589844 30.449219 162.257812 30.910156 161.949219 C 31.375 161.640625 31.851562 161.355469 32.339844 161.09375 C 32.832031 160.832031 33.332031 160.59375 33.847656 160.382812 C 34.359375 160.167969 34.882812 159.984375 35.417969 159.820312 C 35.949219 159.660156 36.488281 159.523438 37.03125 159.417969 C 37.578125 159.308594 38.128906 159.226562 38.683594 159.171875 C 39.234375 159.117188 39.789062 159.089844 40.347656 159.089844 L 51.667969 159.089844 C 52.039062 159.089844 52.410156 159.054688 52.773438 158.980469 C 53.136719 158.910156 53.492188 158.800781 53.835938 158.660156 C 54.179688 158.519531 54.503906 158.34375 54.8125 158.136719 C 55.121094 157.929688 55.410156 157.695312 55.671875 157.433594 C 55.933594 157.171875 56.167969 156.886719 56.375 156.578125 C 56.582031 156.269531 56.757812 155.941406 56.898438 155.601562 C 57.039062 155.257812 57.148438 154.902344 57.222656 154.539062 C 57.292969 154.175781 57.328125 153.808594 57.328125 153.4375 C 57.328125 153.066406 57.292969 152.699219 57.222656 152.332031 C 57.148438 151.96875 57.039062 151.617188 56.898438 151.273438 C 56.757812 150.929688 56.582031 150.605469 56.375 150.296875 C 56.167969 149.988281 55.933594 149.699219 55.671875 149.4375 C 55.410156 149.175781 55.121094 148.941406 54.8125 148.734375 C 54.503906 148.527344 54.179688 148.355469 53.835938 148.210938 C 53.492188 148.070312 53.136719 147.964844 52.773438 147.890625 C 52.410156 147.820312 52.039062 147.78125 51.667969 147.78125 L 40.347656 147.78125 C 39.417969 147.78125 38.496094 147.828125 37.570312 147.917969 C 36.648438 148.007812 35.734375 148.144531 34.824219 148.324219 C 33.914062 148.507812 33.015625 148.730469 32.128906 149 C 31.242188 149.269531 30.371094 149.578125 29.515625 149.933594 C 28.65625 150.289062 27.820312 150.683594 27.003906 151.121094 C 26.1875 151.558594 25.390625 152.03125 24.621094 152.546875 C 23.851562 153.0625 23.105469 153.613281 22.390625 154.199219 C 21.671875 154.785156 20.988281 155.40625 20.332031 156.0625 C 19.675781 156.71875 19.054688 157.402344 18.464844 158.117188 C 17.878906 158.835938 17.328125 159.578125 16.8125 160.347656 C 16.296875 161.117188 15.820312 161.910156 15.382812 162.726562 C 14.945312 163.542969 14.550781 164.378906 14.195312 165.234375 C 13.839844 166.089844 13.527344 166.960938 13.261719 167.847656 C 12.992188 168.734375 12.765625 169.628906 12.585938 170.539062 C 12.402344 171.445312 12.269531 172.359375 12.175781 173.28125 C 12.085938 174.203125 12.042969 175.128906 12.042969 176.054688 L 12.042969 215.632812 C 11.976562 216.269531 11.945312 216.90625 11.941406 217.546875 C 11.9375 218.1875 11.964844 218.824219 12.023438 219.460938 C 12.078125 220.097656 12.167969 220.730469 12.285156 221.355469 C 12.398438 221.984375 12.546875 222.605469 12.722656 223.222656 C 12.898438 223.835938 13.101562 224.441406 13.335938 225.035156 C 13.566406 225.632812 13.828125 226.214844 14.117188 226.785156 C 14.40625 227.355469 14.71875 227.910156 15.058594 228.453125 C 15.398438 228.992188 15.765625 229.515625 16.15625 230.023438 C 16.546875 230.53125 16.957031 231.015625 17.394531 231.484375 C 17.832031 231.953125 18.289062 232.398438 18.765625 232.824219 C 19.246094 233.246094 19.742188 233.648438 20.257812 234.023438 C 20.773438 234.402344 21.308594 234.753906 21.855469 235.082031 C 22.40625 235.410156 22.96875 235.710938 23.546875 235.984375 C 24.125 236.257812 24.714844 236.503906 25.316406 236.722656 C 25.917969 236.941406 26.527344 237.132812 27.148438 237.292969 C 27.765625 237.453125 28.394531 237.585938 29.023438 237.6875 Z M 29.023438 237.6875 " fill-opacity="1" fill-rule="nonzero"/></g><g clip-path="url(#96d4ba3dde)"><path fill="#ffde59" d="M 62.992188 317.414062 L 62.992188 243.90625 C 62.992188 243.535156 62.953125 243.167969 62.882812 242.804688 C 62.808594 242.4375 62.703125 242.085938 62.558594 241.742188 C 62.417969 241.398438 62.242188 241.074219 62.035156 240.765625 C 61.828125 240.457031 61.59375 240.171875 61.332031 239.90625 C 61.070312 239.644531 60.785156 239.410156 60.476562 239.203125 C 60.164062 239 59.839844 238.824219 59.496094 238.683594 C 59.152344 238.539062 58.796875 238.433594 58.433594 238.359375 C 58.070312 238.289062 57.703125 238.25 57.328125 238.25 C 56.957031 238.25 56.589844 238.289062 56.226562 238.359375 C 55.859375 238.433594 55.507812 238.539062 55.164062 238.683594 C 54.820312 238.824219 54.492188 239 54.183594 239.203125 C 53.875 239.410156 53.589844 239.644531 53.328125 239.90625 C 53.0625 240.171875 52.828125 240.457031 52.621094 240.765625 C 52.417969 241.074219 52.242188 241.398438 52.097656 241.742188 C 51.957031 242.085938 51.851562 242.4375 51.777344 242.804688 C 51.703125 243.167969 51.667969 243.535156 51.667969 243.90625 L 51.667969 317.414062 C 51.667969 317.785156 51.703125 318.152344 51.777344 318.515625 C 51.851562 318.878906 51.957031 319.234375 52.097656 319.578125 C 52.242188 319.917969 52.417969 320.246094 52.621094 320.554688 C 52.828125 320.863281 53.0625 321.148438 53.328125 321.410156 C 53.589844 321.671875 53.875 321.90625 54.183594 322.113281 C 54.492188 322.320312 54.820312 322.496094 55.164062 322.636719 C 55.507812 322.777344 55.859375 322.886719 56.226562 322.957031 C 56.589844 323.03125 56.957031 323.066406 57.328125 323.066406 C 57.703125 323.066406 58.070312 323.03125 58.433594 322.957031 C 58.796875 322.886719 59.152344 322.777344 59.496094 322.636719 C 59.839844 322.496094 60.164062 322.320312 60.476562 322.113281 C 60.785156 321.90625 61.070312 321.671875 61.332031 321.410156 C 61.59375 321.148438 61.828125 320.863281 62.035156 320.554688 C 62.242188 320.246094 62.417969 319.917969 62.558594 319.578125 C 62.703125 319.234375 62.808594 318.878906 62.882812 318.515625 C 62.953125 318.152344 62.992188 317.785156 62.992188 317.414062 Z M 62.992188 317.414062 " fill-opacity="1" fill-rule="nonzero"/></g><path fill="#ffde59" d="M 255.464844 130.820312 C 256.394531 130.820312 257.320312 130.773438 258.242188 130.683594 C 259.164062 130.59375 260.078125 130.457031 260.988281 130.277344 C 261.898438 130.09375 262.796875 129.871094 263.683594 129.601562 C 264.570312 129.332031 265.441406 129.019531 266.296875 128.667969 C 267.15625 128.3125 267.992188 127.917969 268.808594 127.480469 C 269.628906 127.042969 270.421875 126.570312 271.191406 126.054688 C 271.960938 125.539062 272.707031 124.988281 273.421875 124.402344 C 274.140625 123.8125 274.824219 123.191406 275.480469 122.539062 C 276.136719 121.882812 276.757812 121.199219 277.347656 120.484375 C 277.933594 119.765625 278.488281 119.023438 279 118.253906 C 279.515625 117.484375 279.992188 116.691406 280.429688 115.875 C 280.867188 115.058594 281.261719 114.222656 281.617188 113.367188 C 281.972656 112.511719 282.285156 111.640625 282.554688 110.753906 C 282.820312 109.867188 283.046875 108.972656 283.226562 108.0625 C 283.410156 107.15625 283.542969 106.238281 283.636719 105.320312 C 283.726562 104.398438 283.773438 103.472656 283.773438 102.546875 C 283.773438 101.621094 283.726562 100.699219 283.636719 99.777344 C 283.542969 98.855469 283.410156 97.941406 283.226562 97.03125 C 283.046875 96.125 282.820312 95.226562 282.554688 94.339844 C 282.285156 93.453125 281.972656 92.582031 281.617188 91.726562 C 281.261719 90.871094 280.867188 90.035156 280.429688 89.21875 C 279.992188 88.402344 279.515625 87.609375 279 86.839844 C 278.488281 86.070312 277.933594 85.328125 277.347656 84.613281 C 276.757812 83.894531 276.136719 83.210938 275.480469 82.554688 C 274.824219 81.902344 274.140625 81.28125 273.421875 80.691406 C 272.707031 80.105469 271.960938 79.554688 271.191406 79.039062 C 270.421875 78.527344 269.628906 78.050781 268.808594 77.613281 C 267.992188 77.175781 267.15625 76.78125 266.296875 76.425781 C 265.441406 76.074219 264.570312 75.761719 263.683594 75.492188 C 262.796875 75.222656 261.898438 75 260.988281 74.820312 C 260.078125 74.636719 259.164062 74.503906 258.242188 74.410156 C 257.320312 74.320312 256.394531 74.277344 255.464844 74.277344 C 254.539062 74.277344 253.613281 74.320312 252.691406 74.410156 C 251.769531 74.503906 250.855469 74.636719 249.945312 74.820312 C 249.035156 75 248.136719 75.222656 247.25 75.492188 C 246.363281 75.761719 245.492188 76.074219 244.632812 76.425781 C 243.777344 76.78125 242.941406 77.175781 242.125 77.613281 C 241.304688 78.050781 240.511719 78.527344 239.742188 79.039062 C 238.96875 79.554688 238.226562 80.105469 237.511719 80.691406 C 236.792969 81.28125 236.105469 81.902344 235.453125 82.554688 C 234.796875 83.210938 234.175781 83.894531 233.585938 84.613281 C 233 85.328125 232.445312 86.070312 231.929688 86.839844 C 231.417969 87.609375 230.941406 88.402344 230.503906 89.21875 C 230.066406 90.035156 229.671875 90.871094 229.316406 91.726562 C 228.960938 92.582031 228.648438 93.453125 228.378906 94.339844 C 228.109375 95.226562 227.886719 96.125 227.707031 97.03125 C 227.523438 97.941406 227.386719 98.855469 227.296875 99.777344 C 227.207031 100.699219 227.160156 101.621094 227.160156 102.546875 C 227.160156 103.472656 227.207031 104.398438 227.296875 105.320312 C 227.386719 106.238281 227.523438 107.15625 227.707031 108.0625 C 227.886719 108.972656 228.109375 109.867188 228.378906 110.753906 C 228.648438 111.640625 228.960938 112.511719 229.316406 113.367188 C 229.671875 114.222656 230.066406 115.058594 230.503906 115.875 C 230.941406 116.691406 231.417969 117.484375 231.929688 118.253906 C 232.445312 119.023438 233 119.765625 233.585938 120.484375 C 234.175781 121.199219 234.796875 121.882812 235.453125 122.539062 C 236.105469 123.191406 236.792969 123.8125 237.511719 124.402344 C 238.226562 124.988281 238.96875 125.539062 239.742188 126.054688 C 240.511719 126.570312 241.304688 127.042969 242.125 127.480469 C 242.941406 127.917969 243.777344 128.3125 244.632812 128.667969 C 245.492188 129.019531 246.363281 129.332031 247.25 129.601562 C 248.136719 129.871094 249.035156 130.09375 249.945312 130.277344 C 250.855469 130.457031 251.769531 130.59375 252.691406 130.683594 C 253.613281 130.773438 254.539062 130.820312 255.464844 130.820312 Z M 255.464844 85.585938 C 256.023438 85.585938 256.578125 85.613281 257.132812 85.667969 C 257.683594 85.71875 258.234375 85.800781 258.78125 85.910156 C 259.324219 86.019531 259.863281 86.152344 260.394531 86.316406 C 260.929688 86.476562 261.453125 86.664062 261.964844 86.875 C 262.480469 87.089844 262.980469 87.324219 263.472656 87.585938 C 263.960938 87.847656 264.4375 88.132812 264.902344 88.441406 C 265.363281 88.75 265.8125 89.082031 266.242188 89.433594 C 266.671875 89.789062 267.082031 90.160156 267.476562 90.550781 C 267.867188 90.945312 268.242188 91.355469 268.59375 91.785156 C 268.949219 92.214844 269.277344 92.660156 269.585938 93.125 C 269.898438 93.585938 270.183594 94.0625 270.445312 94.550781 C 270.707031 95.039062 270.945312 95.542969 271.15625 96.054688 C 271.371094 96.570312 271.558594 97.089844 271.71875 97.625 C 271.878906 98.15625 272.015625 98.691406 272.125 99.238281 C 272.230469 99.78125 272.3125 100.332031 272.367188 100.882812 C 272.421875 101.4375 272.449219 101.992188 272.449219 102.546875 C 272.449219 103.101562 272.421875 103.65625 272.367188 104.210938 C 272.3125 104.761719 272.230469 105.3125 272.125 105.855469 C 272.015625 106.402344 271.878906 106.941406 271.71875 107.472656 C 271.558594 108.003906 271.371094 108.527344 271.15625 109.039062 C 270.945312 109.550781 270.707031 110.054688 270.445312 110.542969 C 270.183594 111.035156 269.898438 111.507812 269.585938 111.972656 C 269.277344 112.433594 268.949219 112.878906 268.59375 113.308594 C 268.242188 113.738281 267.867188 114.148438 267.476562 114.542969 C 267.082031 114.933594 266.671875 115.308594 266.242188 115.660156 C 265.8125 116.011719 265.363281 116.34375 264.902344 116.652344 C 264.4375 116.960938 263.960938 117.246094 263.472656 117.507812 C 262.980469 117.769531 262.480469 118.007812 261.964844 118.21875 C 261.453125 118.433594 260.929688 118.617188 260.394531 118.78125 C 259.863281 118.941406 259.324219 119.074219 258.78125 119.183594 C 258.234375 119.292969 257.683594 119.375 257.132812 119.429688 C 256.578125 119.484375 256.023438 119.511719 255.464844 119.511719 C 254.910156 119.511719 254.355469 119.484375 253.800781 119.429688 C 253.25 119.375 252.699219 119.292969 252.152344 119.183594 C 251.609375 119.074219 251.070312 118.941406 250.535156 118.78125 C 250.003906 118.617188 249.480469 118.433594 248.96875 118.21875 C 248.453125 118.007812 247.953125 117.769531 247.460938 117.507812 C 246.96875 117.246094 246.492188 116.960938 246.03125 116.652344 C 245.570312 116.34375 245.121094 116.011719 244.691406 115.660156 C 244.261719 115.308594 243.851562 114.933594 243.457031 114.542969 C 243.0625 114.148438 242.691406 113.738281 242.339844 113.308594 C 241.984375 112.878906 241.65625 112.433594 241.34375 111.972656 C 241.035156 111.507812 240.75 111.035156 240.488281 110.542969 C 240.226562 110.054688 239.988281 109.550781 239.777344 109.039062 C 239.5625 108.527344 239.375 108.003906 239.214844 107.472656 C 239.054688 106.941406 238.917969 106.402344 238.808594 105.855469 C 238.699219 105.3125 238.621094 104.761719 238.566406 104.210938 C 238.511719 103.65625 238.484375 103.101562 238.484375 102.546875 C 238.484375 101.992188 238.511719 101.4375 238.566406 100.882812 C 238.621094 100.332031 238.699219 99.78125 238.808594 99.238281 C 238.917969 98.691406 239.054688 98.15625 239.214844 97.625 C 239.375 97.089844 239.5625 96.570312 239.777344 96.054688 C 239.988281 95.542969 240.226562 95.042969 240.488281 94.550781 C 240.75 94.0625 241.035156 93.585938 241.34375 93.125 C 241.65625 92.660156 241.984375 92.214844 242.339844 91.785156 C 242.691406 91.355469 243.0625 90.945312 243.457031 90.550781 C 243.851562 90.160156 244.261719 89.789062 244.691406 89.433594 C 245.121094 89.082031 245.570312 88.75 246.03125 88.441406 C 246.492188 88.132812 246.96875 87.847656 247.460938 87.585938 C 247.953125 87.324219 248.453125 87.089844 248.96875 86.875 C 249.480469 86.664062 250.003906 86.476562 250.535156 86.316406 C 251.070312 86.152344 251.609375 86.019531 252.152344 85.910156 C 252.699219 85.800781 253.25 85.71875 253.800781 85.664062 C 254.355469 85.613281 254.910156 85.585938 255.464844 85.585938 Z M 255.464844 85.585938 " fill-opacity="1" fill-rule="nonzero"/><g clip-path="url(#a12fc5bf6f)"><path fill="#ffde59" d="M 283.773438 164.746094 C 283.398438 164.746094 283.03125 164.78125 282.667969 164.855469 C 282.304688 164.925781 281.949219 165.035156 281.605469 165.175781 C 281.261719 165.316406 280.9375 165.492188 280.625 165.699219 C 280.316406 165.90625 280.03125 166.140625 279.769531 166.402344 C 279.507812 166.664062 279.269531 166.949219 279.066406 167.257812 C 278.859375 167.566406 278.683594 167.894531 278.542969 168.234375 C 278.398438 168.578125 278.292969 168.933594 278.21875 169.296875 C 278.148438 169.660156 278.109375 170.027344 278.109375 170.398438 L 278.109375 317.414062 C 278.109375 317.785156 278.148438 318.152344 278.21875 318.515625 C 278.292969 318.878906 278.398438 319.234375 278.542969 319.578125 C 278.683594 319.917969 278.859375 320.246094 279.066406 320.554688 C 279.269531 320.863281 279.507812 321.148438 279.769531 321.410156 C 280.03125 321.671875 280.316406 321.90625 280.625 322.113281 C 280.9375 322.320312 281.261719 322.496094 281.605469 322.636719 C 281.949219 322.777344 282.304688 322.886719 282.667969 322.957031 C 283.03125 323.03125 283.398438 323.066406 283.773438 323.066406 C 284.144531 323.066406 284.511719 323.03125 284.875 322.957031 C 285.242188 322.886719 285.59375 322.777344 285.9375 322.636719 C 286.28125 322.496094 286.609375 322.320312 286.917969 322.113281 C 287.226562 321.90625 287.511719 321.671875 287.773438 321.410156 C 288.039062 321.148438 288.273438 320.863281 288.480469 320.554688 C 288.683594 320.246094 288.859375 319.917969 289 319.578125 C 289.144531 319.234375 289.25 318.878906 289.324219 318.515625 C 289.398438 318.152344 289.433594 317.785156 289.433594 317.414062 L 289.433594 243.453125 C 302.339844 241.363281 312.078125 232.144531 312.078125 221.289062 L 312.078125 170.398438 C 312.078125 151.683594 294.300781 136.472656 272.449219 136.472656 L 261.128906 136.472656 C 260.757812 136.472656 260.386719 136.507812 260.023438 136.582031 C 259.660156 136.65625 259.304688 136.761719 258.960938 136.902344 C 258.617188 137.046875 258.292969 137.21875 257.984375 137.425781 C 257.671875 137.632812 257.386719 137.867188 257.125 138.128906 C 256.863281 138.390625 256.628906 138.675781 256.421875 138.988281 C 256.214844 139.296875 256.039062 139.621094 255.898438 139.964844 C 255.753906 140.308594 255.648438 140.660156 255.574219 141.023438 C 255.503906 141.390625 255.464844 141.757812 255.464844 142.128906 C 255.464844 142.5 255.503906 142.867188 255.574219 143.230469 C 255.648438 143.59375 255.753906 143.949219 255.898438 144.292969 C 256.039062 144.632812 256.214844 144.960938 256.421875 145.269531 C 256.628906 145.578125 256.863281 145.863281 257.125 146.125 C 257.386719 146.386719 257.671875 146.621094 257.984375 146.828125 C 258.292969 147.035156 258.617188 147.210938 258.960938 147.351562 C 259.304688 147.492188 259.660156 147.601562 260.023438 147.671875 C 260.386719 147.746094 260.757812 147.78125 261.128906 147.78125 L 272.449219 147.78125 C 288.074219 147.78125 300.753906 157.902344 300.753906 170.398438 L 300.753906 221.289062 C 300.753906 226.09375 295.941406 230.277344 289.433594 231.863281 L 289.433594 170.398438 C 289.433594 170.027344 289.398438 169.660156 289.324219 169.296875 C 289.25 168.933594 289.144531 168.578125 289 168.234375 C 288.859375 167.894531 288.683594 167.566406 288.480469 167.257812 C 288.273438 166.949219 288.039062 166.664062 287.773438 166.402344 C 287.511719 166.140625 287.226562 165.90625 286.917969 165.699219 C 286.609375 165.492188 286.28125 165.316406 285.9375 165.175781 C 285.59375 165.035156 285.242188 164.925781 284.875 164.855469 C 284.511719 164.78125 284.144531 164.746094 283.773438 164.746094 Z M 283.773438 164.746094 " fill-opacity="1" fill-rule="nonzero"/></g><g clip-path="url(#eccd169c97)"><path fill="#ffde59" d="M 249.804688 243.90625 L 249.804688 317.414062 C 249.804688 317.785156 249.839844 318.152344 249.914062 318.515625 C 249.988281 318.878906 250.09375 319.234375 250.238281 319.578125 C 250.378906 319.917969 250.554688 320.246094 250.757812 320.554688 C 250.964844 320.863281 251.199219 321.148438 251.464844 321.410156 C 251.726562 321.671875 252.011719 321.90625 252.320312 322.113281 C 252.628906 322.320312 252.957031 322.496094 253.300781 322.636719 C 253.644531 322.777344 253.996094 322.886719 254.363281 322.957031 C 254.726562 323.03125 255.09375 323.066406 255.464844 323.066406 C 255.839844 323.066406 256.207031 323.03125 256.570312 322.957031 C 256.933594 322.886719 257.289062 322.777344 257.632812 322.636719 C 257.976562 322.496094 258.300781 322.320312 258.613281 322.113281 C 258.921875 321.90625 259.207031 321.671875 259.46875 321.410156 C 259.730469 321.148438 259.96875 320.863281 260.171875 320.554688 C 260.378906 320.246094 260.554688 319.917969 260.695312 319.578125 C 260.839844 319.234375 260.945312 318.878906 261.019531 318.515625 C 261.089844 318.152344 261.128906 317.785156 261.128906 317.414062 L 261.128906 243.90625 C 261.128906 243.535156 261.089844 243.167969 261.019531 242.804688 C 260.945312 242.4375 260.839844 242.085938 260.695312 241.742188 C 260.554688 241.398438 260.378906 241.074219 260.171875 240.765625 C 259.96875 240.457031 259.730469 240.171875 259.46875 239.90625 C 259.207031 239.644531 258.921875 239.410156 258.613281 239.203125 C 258.300781 239 257.976562 238.824219 257.632812 238.683594 C 257.289062 238.539062 256.933594 238.433594 256.570312 238.359375 C 256.207031 238.289062 255.839844 238.25 255.464844 238.25 C 255.09375 238.25 254.726562 238.289062 254.363281 238.359375 C 253.996094 238.433594 253.644531 238.539062 253.300781 238.683594 C 252.957031 238.824219 252.628906 239 252.320312 239.203125 C 252.011719 239.410156 251.726562 239.644531 251.464844 239.90625 C 251.199219 240.171875 250.964844 240.457031 250.757812 240.765625 C 250.554688 241.074219 250.378906 241.398438 250.238281 241.742188 C 250.09375 242.085938 249.988281 242.4375 249.914062 242.804688 C 249.839844 243.167969 249.804688 243.535156 249.804688 243.90625 Z M 249.804688 243.90625 " fill-opacity="1" fill-rule="nonzero"/></g><path fill="#ffde59" d="M 317.738281 142.128906 C 318.574219 142.128906 319.40625 142.085938 320.234375 142.003906 C 321.066406 141.921875 321.890625 141.800781 322.707031 141.640625 C 323.527344 141.476562 324.335938 141.273438 325.132812 141.03125 C 325.929688 140.789062 326.714844 140.511719 327.488281 140.191406 C 328.257812 139.871094 329.011719 139.515625 329.746094 139.125 C 330.484375 138.730469 331.199219 138.300781 331.890625 137.839844 C 332.585938 137.375 333.253906 136.878906 333.898438 136.351562 C 334.542969 135.824219 335.160156 135.265625 335.75 134.675781 C 336.339844 134.085938 336.902344 133.46875 337.429688 132.824219 C 337.960938 132.179688 338.457031 131.511719 338.917969 130.820312 C 339.382812 130.125 339.8125 129.414062 340.203125 128.675781 C 340.597656 127.941406 340.953125 127.191406 341.273438 126.421875 C 341.59375 125.652344 341.875 124.867188 342.117188 124.070312 C 342.359375 123.273438 342.5625 122.464844 342.722656 121.648438 C 342.886719 120.828125 343.007812 120.007812 343.089844 119.175781 C 343.171875 118.347656 343.214844 117.515625 343.214844 116.683594 C 343.214844 115.851562 343.171875 115.019531 343.089844 114.1875 C 343.007812 113.359375 342.886719 112.535156 342.722656 111.71875 C 342.5625 110.902344 342.359375 110.09375 342.117188 109.296875 C 341.875 108.5 341.59375 107.714844 341.273438 106.945312 C 340.953125 106.175781 340.597656 105.421875 340.203125 104.6875 C 339.8125 103.953125 339.382812 103.238281 338.917969 102.546875 C 338.457031 101.855469 337.960938 101.1875 337.429688 100.542969 C 336.902344 99.898438 336.339844 99.28125 335.75 98.691406 C 335.160156 98.101562 334.542969 97.542969 333.898438 97.015625 C 333.253906 96.484375 332.585938 95.988281 331.890625 95.527344 C 331.199219 95.0625 330.484375 94.636719 329.746094 94.242188 C 329.011719 93.851562 328.257812 93.496094 327.488281 93.175781 C 326.714844 92.855469 325.929688 92.578125 325.132812 92.335938 C 324.335938 92.09375 323.527344 91.890625 322.707031 91.726562 C 321.890625 91.566406 321.066406 91.441406 320.234375 91.359375 C 319.40625 91.28125 318.574219 91.238281 317.738281 91.238281 C 316.902344 91.238281 316.070312 91.28125 315.242188 91.359375 C 314.410156 91.441406 313.585938 91.566406 312.769531 91.726562 C 311.949219 91.890625 311.140625 92.09375 310.34375 92.335938 C 309.542969 92.578125 308.761719 92.855469 307.988281 93.175781 C 307.21875 93.496094 306.464844 93.851562 305.730469 94.242188 C 304.992188 94.636719 304.277344 95.0625 303.585938 95.527344 C 302.890625 95.988281 302.222656 96.484375 301.578125 97.015625 C 300.933594 97.542969 300.316406 98.101562 299.726562 98.691406 C 299.136719 99.28125 298.574219 99.898438 298.046875 100.542969 C 297.515625 101.1875 297.019531 101.855469 296.558594 102.546875 C 296.09375 103.238281 295.664062 103.953125 295.269531 104.6875 C 294.878906 105.421875 294.523438 106.175781 294.203125 106.945312 C 293.882812 107.714844 293.601562 108.5 293.359375 109.296875 C 293.117188 110.09375 292.914062 110.902344 292.753906 111.71875 C 292.589844 112.535156 292.46875 113.359375 292.386719 114.1875 C 292.304688 115.019531 292.261719 115.851562 292.261719 116.683594 C 292.265625 117.515625 292.308594 118.347656 292.390625 119.175781 C 292.472656 120.003906 292.597656 120.828125 292.761719 121.644531 C 292.925781 122.460938 293.128906 123.265625 293.371094 124.0625 C 293.617188 124.859375 293.898438 125.644531 294.21875 126.410156 C 294.539062 127.179688 294.894531 127.933594 295.289062 128.667969 C 295.683594 129.402344 296.109375 130.113281 296.574219 130.804688 C 297.039062 131.5 297.535156 132.167969 298.0625 132.808594 C 298.59375 133.453125 299.152344 134.070312 299.742188 134.660156 C 300.332031 135.246094 300.949219 135.804688 301.59375 136.335938 C 302.238281 136.863281 302.90625 137.359375 303.597656 137.824219 C 304.292969 138.285156 305.003906 138.714844 305.742188 139.105469 C 306.476562 139.5 307.226562 139.855469 308 140.175781 C 308.769531 140.496094 309.550781 140.777344 310.347656 141.019531 C 311.148438 141.261719 311.953125 141.464844 312.773438 141.628906 C 313.589844 141.792969 314.414062 141.917969 315.242188 142 C 316.074219 142.082031 316.90625 142.125 317.738281 142.128906 Z M 317.738281 102.546875 C 318.667969 102.546875 319.585938 102.636719 320.5 102.820312 C 321.410156 103 322.296875 103.269531 323.152344 103.625 C 324.011719 103.980469 324.828125 104.414062 325.601562 104.929688 C 326.375 105.445312 327.089844 106.03125 327.746094 106.6875 C 328.402344 107.34375 328.988281 108.058594 329.503906 108.828125 C 330.023438 109.601562 330.457031 110.417969 330.8125 111.273438 C 331.167969 112.132812 331.4375 113.015625 331.617188 113.925781 C 331.800781 114.835938 331.890625 115.753906 331.890625 116.683594 C 331.890625 117.613281 331.800781 118.53125 331.617188 119.441406 C 331.4375 120.351562 331.167969 121.234375 330.8125 122.09375 C 330.457031 122.949219 330.023438 123.765625 329.503906 124.535156 C 328.988281 125.308594 328.402344 126.023438 327.746094 126.679688 C 327.089844 127.335938 326.375 127.921875 325.601562 128.4375 C 324.828125 128.953125 324.011719 129.386719 323.152344 129.742188 C 322.296875 130.097656 321.410156 130.367188 320.5 130.546875 C 319.585938 130.730469 318.667969 130.820312 317.738281 130.820312 C 316.808594 130.820312 315.886719 130.730469 314.976562 130.546875 C 314.066406 130.367188 313.179688 130.097656 312.320312 129.742188 C 311.464844 129.386719 310.648438 128.953125 309.875 128.4375 C 309.101562 127.921875 308.386719 127.335938 307.730469 126.679688 C 307.074219 126.023438 306.488281 125.308594 305.96875 124.535156 C 305.453125 123.765625 305.019531 122.949219 304.664062 122.09375 C 304.308594 121.234375 304.039062 120.351562 303.859375 119.441406 C 303.675781 118.53125 303.585938 117.613281 303.585938 116.683594 C 303.585938 115.753906 303.675781 114.835938 303.859375 113.925781 C 304.039062 113.015625 304.308594 112.132812 304.664062 111.273438 C 305.019531 110.417969 305.453125 109.601562 305.96875 108.828125 C 306.488281 108.058594 307.074219 107.34375 307.730469 106.6875 C 308.386719 106.03125 309.101562 105.445312 309.875 104.929688 C 310.648438 104.414062 311.464844 103.980469 312.320312 103.625 C 313.179688 103.269531 314.066406 103 314.976562 102.820312 C 315.886719 102.636719 316.808594 102.546875 317.738281 102.546875 Z M 317.738281 102.546875 " fill-opacity="1" fill-rule="nonzero"/><g clip-path="url(#861f93af9c)"><path fill="#ffde59" d="M 317.738281 238.25 C 317.367188 238.25 317 238.289062 316.632812 238.359375 C 316.269531 238.433594 315.914062 238.539062 315.570312 238.683594 C 315.226562 238.824219 314.902344 239 314.59375 239.203125 C 314.285156 239.410156 313.996094 239.644531 313.734375 239.90625 C 313.472656 240.171875 313.238281 240.457031 313.03125 240.765625 C 312.824219 241.074219 312.648438 241.398438 312.507812 241.742188 C 312.367188 242.085938 312.257812 242.4375 312.1875 242.804688 C 312.113281 243.167969 312.078125 243.535156 312.078125 243.90625 L 312.078125 317.414062 C 312.078125 317.785156 312.113281 318.152344 312.1875 318.515625 C 312.257812 318.878906 312.367188 319.234375 312.507812 319.578125 C 312.648438 319.917969 312.824219 320.246094 313.03125 320.554688 C 313.238281 320.863281 313.472656 321.148438 313.734375 321.410156 C 313.996094 321.671875 314.285156 321.90625 314.59375 322.113281 C 314.902344 322.320312 315.226562 322.496094 315.570312 322.636719 C 315.914062 322.777344 316.269531 322.886719 316.632812 322.957031 C 317 323.03125 317.367188 323.066406 317.738281 323.066406 C 318.109375 323.066406 318.476562 323.03125 318.84375 322.957031 C 319.207031 322.886719 319.5625 322.777344 319.90625 322.636719 C 320.246094 322.496094 320.574219 322.320312 320.882812 322.113281 C 321.191406 321.90625 321.476562 321.671875 321.742188 321.410156 C 322.003906 321.148438 322.238281 320.863281 322.445312 320.554688 C 322.652344 320.246094 322.824219 319.917969 322.96875 319.578125 C 323.109375 319.234375 323.21875 318.878906 323.289062 318.515625 C 323.363281 318.152344 323.398438 317.785156 323.398438 317.414062 L 323.398438 243.90625 C 323.398438 243.535156 323.363281 243.167969 323.289062 242.804688 C 323.21875 242.4375 323.109375 242.085938 322.96875 241.742188 C 322.824219 241.398438 322.652344 241.074219 322.445312 240.765625 C 322.238281 240.457031 322.003906 240.171875 321.742188 239.90625 C 321.476562 239.644531 321.191406 239.410156 320.882812 239.203125 C 320.574219 239 320.246094 238.824219 319.90625 238.683594 C 319.5625 238.539062 319.207031 238.433594 318.84375 238.359375 C 318.476562 238.289062 318.109375 238.25 317.738281 238.25 Z M 317.738281 238.25 " fill-opacity="1" fill-rule="nonzero"/></g><g clip-path="url(#2cde2e3f11)"><path fill="#ffde59" d="M 334.722656 147.78125 L 323.398438 147.78125 C 323.027344 147.78125 322.660156 147.820312 322.292969 147.890625 C 321.929688 147.964844 321.578125 148.070312 321.234375 148.210938 C 320.890625 148.355469 320.5625 148.527344 320.253906 148.734375 C 319.945312 148.941406 319.660156 149.175781 319.394531 149.4375 C 319.132812 149.699219 318.898438 149.988281 318.691406 150.296875 C 318.484375 150.605469 318.3125 150.929688 318.167969 151.273438 C 318.027344 151.617188 317.917969 151.96875 317.847656 152.332031 C 317.773438 152.699219 317.738281 153.066406 317.738281 153.4375 C 317.738281 153.808594 317.773438 154.175781 317.847656 154.539062 C 317.917969 154.902344 318.027344 155.257812 318.167969 155.601562 C 318.3125 155.941406 318.484375 156.269531 318.691406 156.578125 C 318.898438 156.886719 319.132812 157.171875 319.394531 157.433594 C 319.660156 157.695312 319.945312 157.929688 320.253906 158.136719 C 320.5625 158.34375 320.890625 158.519531 321.234375 158.660156 C 321.578125 158.800781 321.929688 158.910156 322.292969 158.980469 C 322.660156 159.054688 323.027344 159.089844 323.398438 159.089844 L 334.722656 159.089844 C 335.277344 159.089844 335.832031 159.117188 336.386719 159.171875 C 336.941406 159.226562 337.488281 159.308594 338.035156 159.417969 C 338.578125 159.523438 339.117188 159.660156 339.652344 159.820312 C 340.183594 159.984375 340.707031 160.167969 341.21875 160.382812 C 341.734375 160.59375 342.238281 160.832031 342.726562 161.09375 C 343.21875 161.355469 343.695312 161.640625 344.15625 161.949219 C 344.621094 162.257812 345.066406 162.589844 345.496094 162.941406 C 345.925781 163.292969 346.335938 163.667969 346.730469 164.058594 C 347.125 164.453125 347.496094 164.863281 347.847656 165.292969 C 348.203125 165.722656 348.535156 166.167969 348.84375 166.628906 C 349.152344 167.089844 349.4375 167.566406 349.699219 168.058594 C 349.960938 168.546875 350.199219 169.050781 350.410156 169.5625 C 350.625 170.074219 350.8125 170.597656 350.972656 171.128906 C 351.132812 171.660156 351.269531 172.199219 351.378906 172.746094 C 351.488281 173.289062 351.566406 173.839844 351.621094 174.390625 C 351.675781 174.945312 351.703125 175.5 351.703125 176.054688 L 351.703125 215.632812 C 351.703125 221.289062 349.894531 224.566406 346.042969 226.039062 L 346.042969 181.707031 C 346.042969 181.335938 346.007812 180.96875 345.933594 180.605469 C 345.863281 180.242188 345.753906 179.886719 345.613281 179.542969 C 345.46875 179.203125 345.296875 178.875 345.089844 178.566406 C 344.882812 178.257812 344.648438 177.972656 344.386719 177.710938 C 344.121094 177.449219 343.835938 177.214844 343.527344 177.007812 C 343.21875 176.800781 342.890625 176.625 342.546875 176.484375 C 342.207031 176.34375 341.851562 176.234375 341.488281 176.164062 C 341.121094 176.089844 340.753906 176.054688 340.382812 176.054688 C 340.011719 176.054688 339.640625 176.089844 339.277344 176.164062 C 338.914062 176.234375 338.558594 176.34375 338.214844 176.484375 C 337.871094 176.625 337.546875 176.800781 337.238281 177.007812 C 336.929688 177.214844 336.640625 177.449219 336.378906 177.710938 C 336.117188 177.972656 335.882812 178.257812 335.675781 178.566406 C 335.46875 178.875 335.292969 179.203125 335.152344 179.542969 C 335.011719 179.886719 334.902344 180.242188 334.832031 180.605469 C 334.757812 180.96875 334.722656 181.335938 334.722656 181.707031 L 334.722656 317.414062 C 334.722656 317.785156 334.757812 318.152344 334.832031 318.515625 C 334.902344 318.878906 335.011719 319.234375 335.152344 319.578125 C 335.292969 319.917969 335.46875 320.246094 335.675781 320.554688 C 335.882812 320.863281 336.117188 321.148438 336.378906 321.410156 C 336.640625 321.671875 336.929688 321.90625 337.238281 322.113281 C 337.546875 322.320312 337.871094 322.496094 338.214844 322.636719 C 338.558594 322.777344 338.914062 322.886719 339.277344 322.957031 C 339.640625 323.03125 340.011719 323.066406 340.382812 323.066406 C 340.753906 323.066406 341.121094 323.03125 341.488281 322.957031 C 341.851562 322.886719 342.207031 322.777344 342.546875 322.636719 C 342.890625 322.496094 343.21875 322.320312 343.527344 322.113281 C 343.835938 321.90625 344.121094 321.671875 344.386719 321.410156 C 344.648438 321.148438 344.882812 320.863281 345.089844 320.554688 C 345.296875 320.246094 345.46875 319.917969 345.613281 319.578125 C 345.753906 319.234375 345.863281 318.878906 345.933594 318.515625 C 346.007812 318.152344 346.042969 317.785156 346.042969 317.414062 L 346.042969 237.6875 C 346.675781 237.585938 347.300781 237.453125 347.917969 237.292969 C 348.539062 237.132812 349.148438 236.941406 349.75 236.722656 C 350.351562 236.503906 350.941406 236.257812 351.519531 235.984375 C 352.097656 235.710938 352.660156 235.410156 353.210938 235.082031 C 353.761719 234.753906 354.292969 234.402344 354.808594 234.023438 C 355.324219 233.648438 355.824219 233.246094 356.300781 232.824219 C 356.78125 232.398438 357.238281 231.953125 357.671875 231.484375 C 358.109375 231.015625 358.523438 230.53125 358.914062 230.023438 C 359.300781 229.515625 359.667969 228.992188 360.007812 228.453125 C 360.347656 227.910156 360.664062 227.355469 360.949219 226.785156 C 361.238281 226.214844 361.5 225.632812 361.734375 225.035156 C 361.964844 224.441406 362.167969 223.835938 362.34375 223.222656 C 362.519531 222.605469 362.667969 221.984375 362.785156 221.355469 C 362.902344 220.730469 362.988281 220.097656 363.046875 219.460938 C 363.101562 218.824219 363.128906 218.1875 363.125 217.546875 C 363.125 216.90625 363.089844 216.269531 363.027344 215.632812 L 363.027344 176.054688 C 363.027344 175.128906 362.980469 174.203125 362.890625 173.28125 C 362.800781 172.359375 362.664062 171.445312 362.484375 170.539062 C 362.300781 169.628906 362.078125 168.734375 361.808594 167.847656 C 361.539062 166.960938 361.226562 166.089844 360.871094 165.234375 C 360.515625 164.378906 360.121094 163.542969 359.683594 162.726562 C 359.246094 161.910156 358.769531 161.117188 358.257812 160.347656 C 357.742188 159.578125 357.191406 158.835938 356.601562 158.117188 C 356.011719 157.402344 355.390625 156.71875 354.734375 156.0625 C 354.082031 155.40625 353.394531 154.785156 352.679688 154.199219 C 351.960938 153.613281 351.21875 153.0625 350.445312 152.546875 C 349.675781 152.03125 348.882812 151.558594 348.0625 151.121094 C 347.246094 150.683594 346.410156 150.289062 345.554688 149.933594 C 344.695312 149.578125 343.824219 149.269531 342.9375 149 C 342.050781 148.730469 341.152344 148.507812 340.242188 148.324219 C 339.335938 148.144531 338.417969 148.007812 337.496094 147.917969 C 336.574219 147.828125 335.648438 147.78125 334.722656 147.78125 Z M 334.722656 147.78125 " fill-opacity="1" fill-rule="nonzero"/></g></svg>