<svg width="500" height="500" viewBox="0 0 500 500" fill="none" xmlns="http://www.w3.org/2000/svg">
<g filter="url(#filter0_b_7_4)">
<circle cx="250" cy="250" r="247.5" fill="white" fill-opacity="0.11" stroke="#FFDE59" stroke-width="5"/>
<path d="M184.093 194.983C184.992 194.983 185.891 194.937 186.785 194.85C187.68 194.763 188.571 194.63 189.455 194.456C190.334 194.278 191.206 194.062 192.067 193.8C192.928 193.538 193.777 193.235 194.608 192.894C195.438 192.549 196.249 192.166 197.046 191.741C197.838 191.316 198.608 190.858 199.359 190.357C200.105 189.857 200.826 189.322 201.524 188.753C202.217 188.181 202.885 187.578 203.522 186.945C204.159 186.308 204.762 185.644 205.33 184.95C205.903 184.253 206.438 183.532 206.938 182.785C207.439 182.038 207.901 181.268 208.322 180.476C208.747 179.684 209.133 178.872 209.475 178.042C209.82 177.211 210.123 176.366 210.385 175.505C210.646 174.644 210.866 173.776 211.041 172.893C211.215 172.013 211.348 171.122 211.435 170.231C211.522 169.336 211.568 168.437 211.568 167.539C211.568 166.64 211.522 165.745 211.435 164.851C211.348 163.956 211.215 163.068 211.041 162.185C210.866 161.305 210.646 160.433 210.385 159.573C210.123 158.712 209.82 157.866 209.475 157.036C209.133 156.206 208.747 155.394 208.322 154.602C207.901 153.809 207.439 153.04 206.938 152.293C206.438 151.546 205.903 150.825 205.33 150.131C204.762 149.434 204.159 148.77 203.522 148.133C202.885 147.5 202.217 146.897 201.524 146.324C200.826 145.756 200.105 145.221 199.359 144.721C198.608 144.224 197.838 143.761 197.046 143.337C196.249 142.912 195.438 142.529 194.608 142.184C193.777 141.843 192.928 141.539 192.067 141.278C191.206 141.016 190.334 140.8 189.455 140.626C188.571 140.447 187.68 140.318 186.785 140.227C185.891 140.14 184.992 140.099 184.093 140.099C183.195 140.099 182.296 140.14 181.401 140.227C180.503 140.318 179.615 140.447 178.732 140.626C177.848 140.8 176.98 141.016 176.116 141.278C175.255 141.539 174.409 141.843 173.579 142.184C172.749 142.529 171.933 142.912 171.141 143.337C170.348 143.761 169.575 144.224 168.828 144.721C168.081 145.221 167.357 145.756 166.663 146.324C165.969 146.897 165.302 147.5 164.665 148.133C164.028 148.77 163.425 149.434 162.856 150.131C162.284 150.825 161.749 151.546 161.248 152.293C160.748 153.04 160.285 153.809 159.861 154.602C159.436 155.394 159.053 156.206 158.708 157.036C158.367 157.866 158.063 158.712 157.802 159.573C157.54 160.433 157.32 161.305 157.146 162.185C156.971 163.068 156.839 163.956 156.752 164.851C156.661 165.745 156.619 166.64 156.619 167.539C156.619 168.437 156.661 169.336 156.752 170.231C156.839 171.122 156.971 172.013 157.146 172.893C157.32 173.776 157.54 174.644 157.802 175.505C158.063 176.366 158.367 177.211 158.708 178.042C159.053 178.872 159.436 179.684 159.861 180.476C160.285 181.268 160.748 182.038 161.248 182.785C161.749 183.532 162.284 184.253 162.856 184.95C163.425 185.644 164.028 186.308 164.665 186.945C165.302 187.578 165.969 188.181 166.663 188.753C167.357 189.322 168.081 189.857 168.828 190.357C169.575 190.858 170.348 191.316 171.141 191.741C171.933 192.166 172.749 192.549 173.579 192.894C174.409 193.235 175.255 193.538 176.116 193.8C176.98 194.062 177.848 194.278 178.732 194.456C179.615 194.63 180.503 194.763 181.401 194.85C182.296 194.937 183.195 194.983 184.093 194.983ZM184.093 151.075C184.632 151.075 185.17 151.102 185.709 151.155C186.247 151.204 186.778 151.284 187.309 151.39C187.839 151.496 188.363 151.625 188.878 151.784C189.394 151.94 189.902 152.122 190.403 152.327C190.899 152.535 191.388 152.763 191.862 153.017C192.34 153.271 192.803 153.548 193.25 153.847C193.701 154.147 194.134 154.469 194.551 154.81C194.968 155.155 195.366 155.515 195.749 155.895C196.132 156.278 196.492 156.676 196.837 157.093C197.178 157.51 197.501 157.942 197.8 158.393C198.1 158.841 198.376 159.303 198.631 159.777C198.885 160.251 199.116 160.74 199.324 161.237C199.529 161.738 199.711 162.242 199.867 162.761C200.026 163.277 200.155 163.796 200.261 164.327C200.367 164.854 200.447 165.389 200.5 165.924C200.553 166.462 200.579 167 200.579 167.539C200.579 168.077 200.553 168.616 200.5 169.154C200.447 169.689 200.367 170.223 200.261 170.75C200.155 171.281 200.026 171.804 199.867 172.32C199.711 172.836 199.529 173.344 199.324 173.841C199.116 174.337 198.885 174.826 198.631 175.3C198.376 175.778 198.1 176.237 197.8 176.688C197.501 177.136 197.178 177.568 196.837 177.985C196.492 178.402 196.132 178.8 195.749 179.183C195.366 179.562 194.968 179.926 194.551 180.267C194.134 180.609 193.701 180.931 193.25 181.231C192.803 181.53 192.34 181.807 191.862 182.061C191.388 182.315 190.899 182.546 190.403 182.751C189.902 182.96 189.394 183.138 188.878 183.297C188.363 183.452 187.839 183.581 187.309 183.688C186.778 183.794 186.247 183.873 185.709 183.926C185.17 183.98 184.632 184.006 184.093 184.006C183.555 184.006 183.013 183.98 182.478 183.926C181.94 183.873 181.405 183.794 180.878 183.688C180.347 183.581 179.824 183.452 179.308 183.297C178.793 183.138 178.284 182.96 177.784 182.751C177.287 182.546 176.798 182.315 176.32 182.061C175.846 181.807 175.384 181.53 174.933 181.231C174.485 180.931 174.053 180.609 173.636 180.267C173.219 179.926 172.817 179.562 172.438 179.183C172.055 178.8 171.691 178.402 171.349 177.985C171.008 177.568 170.686 177.136 170.386 176.688C170.087 176.237 169.81 175.778 169.556 175.3C169.298 174.826 169.071 174.337 168.862 173.841C168.657 173.344 168.475 172.836 168.316 172.32C168.161 171.804 168.032 171.281 167.926 170.75C167.819 170.223 167.74 169.689 167.687 169.154C167.634 168.616 167.607 168.077 167.607 167.539C167.607 167 167.634 166.462 167.687 165.924C167.74 165.389 167.819 164.854 167.926 164.327C168.032 163.796 168.161 163.277 168.316 162.761C168.475 162.242 168.657 161.738 168.862 161.237C169.071 160.74 169.298 160.255 169.556 159.777C169.81 159.303 170.087 158.841 170.386 158.393C170.686 157.942 171.008 157.51 171.349 157.093C171.691 156.676 172.055 156.278 172.438 155.895C172.817 155.515 173.219 155.155 173.636 154.81C174.053 154.469 174.485 154.147 174.933 153.847C175.384 153.548 175.846 153.271 176.32 153.017C176.798 152.763 177.287 152.535 177.784 152.327C178.284 152.122 178.793 151.94 179.308 151.784C179.824 151.625 180.347 151.496 180.878 151.39C181.405 151.284 181.94 151.204 182.478 151.151C183.013 151.102 183.555 151.075 184.093 151.075Z" fill="#FFDE59"/>
<mask id="mask0_7_4" style="mask-type:luminance" maskUnits="userSpaceOnUse" x="128" y="200" width="57" height="183">
<path d="M128.181 200.011H184.48V382.363H128.181V200.011Z" fill="white"/>
</mask>
<g mask="url(#mask0_7_4)">
<path d="M178.599 200.469H167.607C146.396 200.469 129.144 215.234 129.144 233.4V282.798C129.144 293.392 138.593 302.283 151.125 304.312V376.103C151.125 376.463 151.159 376.82 151.227 377.172C151.299 377.525 151.401 377.87 151.542 378.204C151.678 378.534 151.849 378.852 152.05 379.152C152.251 379.451 152.478 379.728 152.732 379.982C152.986 380.236 153.263 380.464 153.567 380.665C153.866 380.866 154.181 381.036 154.514 381.173C154.848 381.309 155.193 381.415 155.546 381.484C155.898 381.556 156.259 381.59 156.619 381.59C156.979 381.59 157.335 381.556 157.688 381.484C158.044 381.415 158.386 381.309 158.719 381.173C159.053 381.036 159.372 380.866 159.671 380.665C159.971 380.464 160.247 380.236 160.505 379.982C160.759 379.728 160.987 379.451 161.188 379.152C161.389 378.852 161.556 378.534 161.696 378.204C161.832 377.87 161.939 377.525 162.007 377.172C162.079 376.82 162.113 376.463 162.113 376.103V233.4C162.113 233.04 162.079 232.683 162.007 232.331C161.939 231.978 161.832 231.633 161.696 231.3C161.556 230.97 161.389 230.651 161.188 230.352C160.987 230.052 160.759 229.775 160.505 229.521C160.247 229.267 159.971 229.04 159.671 228.839C159.372 228.638 159.053 228.467 158.719 228.331C158.386 228.194 158.044 228.088 157.688 228.02C157.335 227.948 156.979 227.914 156.619 227.914C156.259 227.914 155.898 227.948 155.546 228.02C155.193 228.088 154.848 228.194 154.514 228.331C154.181 228.467 153.866 228.638 153.567 228.839C153.263 229.04 152.986 229.267 152.732 229.521C152.478 229.775 152.251 230.052 152.05 230.352C151.849 230.651 151.678 230.97 151.542 231.3C151.401 231.633 151.299 231.978 151.227 232.331C151.159 232.683 151.125 233.04 151.125 233.4V293.062C144.804 291.523 140.133 287.572 140.133 282.798V233.4C140.133 221.271 152.44 211.446 167.607 211.446H178.599C178.959 211.446 179.316 211.412 179.668 211.34C180.025 211.272 180.366 211.166 180.7 211.029C181.033 210.893 181.352 210.722 181.651 210.521C181.951 210.32 182.228 210.093 182.482 209.839C182.74 209.585 182.967 209.308 183.168 209.008C183.369 208.709 183.536 208.39 183.676 208.06C183.813 207.727 183.915 207.382 183.987 207.029C184.059 206.676 184.093 206.32 184.093 205.96C184.093 205.6 184.059 205.243 183.987 204.887C183.915 204.534 183.813 204.193 183.676 203.859C183.536 203.526 183.369 203.211 183.168 202.911C182.967 202.608 182.74 202.331 182.482 202.077C182.228 201.823 181.951 201.596 181.651 201.395C181.352 201.194 181.033 201.027 180.7 200.887C180.366 200.75 180.025 200.648 179.668 200.576C179.316 200.504 178.959 200.469 178.599 200.469Z" fill="#FFDE59"/>
</g>
<mask id="mask1_7_4" style="mask-type:luminance" maskUnits="userSpaceOnUse" x="177" y="299" width="14" height="84">
<path d="M177.685 299.019H190.304V382.363H177.685V299.019Z" fill="white"/>
</mask>
<g mask="url(#mask1_7_4)">
<path d="M178.599 304.752V376.103C178.599 376.463 178.633 376.82 178.705 377.173C178.774 377.525 178.88 377.87 179.016 378.204C179.153 378.534 179.323 378.852 179.524 379.152C179.725 379.451 179.953 379.728 180.207 379.982C180.461 380.236 180.741 380.464 181.041 380.665C181.34 380.866 181.655 381.036 181.989 381.173C182.323 381.309 182.668 381.415 183.02 381.484C183.373 381.556 183.733 381.59 184.093 381.59C184.453 381.59 184.81 381.556 185.166 381.484C185.519 381.415 185.864 381.309 186.194 381.173C186.527 381.036 186.846 380.866 187.146 380.665C187.445 380.464 187.722 380.236 187.98 379.982C188.234 379.728 188.461 379.451 188.662 379.152C188.863 378.852 189.03 378.534 189.17 378.204C189.307 377.87 189.413 377.525 189.481 377.173C189.553 376.82 189.587 376.463 189.587 376.103V304.752C189.587 304.391 189.553 304.035 189.481 303.682C189.413 303.326 189.307 302.985 189.17 302.651C189.03 302.317 188.863 302.003 188.662 301.703C188.461 301.404 188.234 301.127 187.98 300.869C187.722 300.615 187.445 300.387 187.146 300.187C186.846 299.989 186.527 299.819 186.194 299.682C185.864 299.542 185.519 299.44 185.166 299.368C184.81 299.299 184.453 299.261 184.093 299.261C183.733 299.261 183.373 299.299 183.02 299.368C182.668 299.44 182.323 299.542 181.989 299.682C181.655 299.819 181.34 299.989 181.041 300.187C180.741 300.387 180.461 300.615 180.207 300.869C179.953 301.127 179.725 301.404 179.524 301.703C179.323 302.003 179.153 302.317 179.016 302.651C178.88 302.985 178.774 303.326 178.705 303.682C178.633 304.035 178.599 304.391 178.599 304.752Z" fill="#FFDE59"/>
</g>
<path d="M250.034 184.006C251.111 184.006 252.192 183.953 253.265 183.847C254.338 183.741 255.407 183.581 256.465 183.373C257.523 183.16 258.569 182.899 259.604 182.588C260.636 182.273 261.652 181.909 262.649 181.5C263.646 181.086 264.621 180.624 265.576 180.116C266.528 179.608 267.453 179.054 268.352 178.455C269.246 177.856 270.115 177.215 270.949 176.529C271.783 175.846 272.583 175.122 273.345 174.36C274.111 173.598 274.835 172.798 275.518 171.964C276.204 171.13 276.845 170.265 277.448 169.37C278.047 168.472 278.601 167.55 279.109 166.598C279.62 165.647 280.079 164.672 280.493 163.675C280.906 162.678 281.27 161.666 281.585 160.634C281.895 159.603 282.157 158.556 282.369 157.499C282.582 156.441 282.737 155.375 282.843 154.302C282.95 153.229 283.003 152.152 283.003 151.075C283.003 149.995 282.95 148.918 282.843 147.845C282.737 146.772 282.582 145.706 282.369 144.649C282.157 143.591 281.895 142.548 281.585 141.513C281.27 140.482 280.906 139.469 280.493 138.472C280.079 137.475 279.62 136.5 279.109 135.549C278.601 134.601 278.047 133.675 277.448 132.777C276.845 131.882 276.204 131.017 275.518 130.183C274.835 129.349 274.111 128.549 273.345 127.787C272.583 127.025 271.783 126.301 270.949 125.618C270.115 124.932 269.246 124.291 268.352 123.692C267.453 123.093 266.528 122.539 265.576 122.031C264.621 121.523 263.646 121.061 262.649 120.651C261.652 120.238 260.636 119.874 259.604 119.559C258.569 119.248 257.523 118.987 256.465 118.774C255.407 118.566 254.338 118.406 253.265 118.3C252.192 118.194 251.111 118.145 250.034 118.145C248.953 118.145 247.877 118.194 246.8 118.3C245.727 118.406 244.661 118.566 243.6 118.774C242.542 118.987 241.495 119.248 240.464 119.559C239.429 119.874 238.413 120.238 237.415 120.651C236.418 121.061 235.444 121.523 234.492 122.031C233.54 122.539 232.615 123.093 231.717 123.692C230.818 124.291 229.953 124.932 229.115 125.618C228.281 126.301 227.481 127.025 226.719 127.787C225.957 128.549 225.233 129.349 224.547 130.183C223.86 131.017 223.219 131.882 222.62 132.777C222.017 133.675 221.464 134.601 220.956 135.549C220.448 136.5 219.985 137.475 219.572 138.472C219.159 139.469 218.795 140.482 218.484 141.513C218.169 142.548 217.907 143.591 217.695 144.649C217.486 145.706 217.327 146.772 217.221 147.845C217.115 148.918 217.062 149.995 217.062 151.075C217.062 152.152 217.115 153.229 217.221 154.302C217.327 155.375 217.486 156.441 217.695 157.499C217.907 158.556 218.169 159.603 218.484 160.634C218.795 161.666 219.159 162.678 219.572 163.675C219.985 164.672 220.448 165.647 220.956 166.598C221.464 167.55 222.017 168.472 222.62 169.37C223.219 170.265 223.86 171.13 224.547 171.964C225.233 172.798 225.957 173.598 226.719 174.36C227.481 175.122 228.281 175.846 229.115 176.529C229.953 177.215 230.818 177.856 231.717 178.455C232.615 179.054 233.54 179.608 234.492 180.116C235.444 180.624 236.418 181.086 237.415 181.5C238.413 181.909 239.429 182.273 240.464 182.588C241.495 182.899 242.542 183.16 243.6 183.373C244.661 183.581 245.727 183.741 246.8 183.847C247.877 183.953 248.953 184.006 250.034 184.006ZM250.034 129.122C250.755 129.122 251.471 129.156 252.188 129.224C252.904 129.296 253.613 129.402 254.322 129.543C255.028 129.683 255.725 129.857 256.412 130.066C257.102 130.274 257.78 130.517 258.444 130.79C259.108 131.067 259.76 131.374 260.393 131.711C261.03 132.053 261.644 132.42 262.243 132.819C262.842 133.22 263.419 133.649 263.976 134.104C264.533 134.559 265.064 135.04 265.576 135.549C266.084 136.057 266.566 136.591 267.025 137.145C267.48 137.702 267.908 138.279 268.31 138.878C268.708 139.473 269.08 140.091 269.417 140.724C269.758 141.357 270.065 142.01 270.338 142.673C270.615 143.337 270.858 144.012 271.066 144.702C271.275 145.388 271.449 146.086 271.59 146.791C271.73 147.496 271.836 148.205 271.908 148.922C271.976 149.638 272.014 150.355 272.014 151.075C272.014 151.792 271.976 152.509 271.908 153.225C271.836 153.942 271.73 154.651 271.59 155.356C271.449 156.061 271.275 156.759 271.066 157.445C270.858 158.136 270.615 158.81 270.338 159.474C270.065 160.141 269.758 160.79 269.417 161.423C269.08 162.056 268.708 162.674 268.31 163.269C267.908 163.868 267.48 164.445 267.025 165.002C266.566 165.556 266.084 166.09 265.576 166.598C265.064 167.107 264.533 167.588 263.976 168.043C263.419 168.502 262.842 168.927 262.243 169.329C261.644 169.727 261.03 170.098 260.393 170.436C259.76 170.773 259.108 171.08 258.444 171.357C257.78 171.63 257.102 171.873 256.412 172.081C255.725 172.29 255.028 172.464 254.322 172.604C253.613 172.745 252.904 172.851 252.188 172.923C251.471 172.991 250.755 173.029 250.034 173.029C249.314 173.029 248.593 172.991 247.877 172.923C247.164 172.851 246.451 172.745 245.746 172.604C245.04 172.464 244.343 172.29 243.653 172.081C242.963 171.873 242.288 171.63 241.62 171.357C240.957 171.08 240.305 170.773 239.671 170.436C239.038 170.098 238.42 169.727 237.821 169.329C237.222 168.927 236.646 168.502 236.088 168.043C235.531 167.588 235 167.107 234.492 166.598C233.98 166.09 233.499 165.556 233.044 165.002C232.585 164.445 232.156 163.868 231.758 163.269C231.356 162.674 230.989 162.056 230.647 161.423C230.31 160.79 230.003 160.141 229.726 159.474C229.449 158.81 229.206 158.136 228.998 157.445C228.789 156.759 228.615 156.061 228.475 155.356C228.334 154.651 228.228 153.942 228.16 153.225C228.088 152.509 228.054 151.792 228.054 151.075C228.054 150.355 228.088 149.638 228.16 148.922C228.228 148.205 228.334 147.496 228.475 146.791C228.615 146.086 228.789 145.388 228.998 144.702C229.206 144.012 229.449 143.337 229.726 142.673C230.003 142.01 230.31 141.357 230.647 140.724C230.989 140.091 231.356 139.473 231.758 138.878C232.156 138.279 232.585 137.702 233.044 137.145C233.499 136.591 233.98 136.057 234.492 135.549C235 135.04 235.531 134.559 236.088 134.104C236.646 133.649 237.222 133.22 237.821 132.819C238.42 132.42 239.038 132.053 239.671 131.711C240.305 131.374 240.957 131.067 241.62 130.79C242.288 130.517 242.963 130.274 243.653 130.066C244.343 129.857 245.04 129.683 245.746 129.543C246.451 129.402 247.164 129.296 247.877 129.224C248.593 129.156 249.314 129.122 250.034 129.122Z" fill="#FFDE59"/>
<mask id="mask2_7_4" style="mask-type:luminance" maskUnits="userSpaceOnUse" x="189" y="189" width="122" height="194">
<path d="M189.333 189.333H310.667V382.363H189.333V189.333Z" fill="white"/>
</mask>
<g mask="url(#mask2_7_4)">
<path d="M272.014 189.493H228.054C206.843 189.493 189.587 204.257 189.587 222.423V255.354C189.587 255.896 189.614 256.431 189.667 256.969C189.72 257.508 189.8 258.038 189.906 258.569C190.008 259.096 190.141 259.619 190.296 260.135C190.456 260.651 190.638 261.159 190.842 261.656C191.051 262.156 191.278 262.641 191.533 263.115C191.79 263.593 192.067 264.056 192.367 264.503C192.666 264.951 192.989 265.383 193.33 265.8C193.671 266.217 194.035 266.615 194.418 266.998C194.797 267.381 195.199 267.741 195.616 268.082C196.033 268.424 196.465 268.746 196.913 269.046C197.364 269.345 197.827 269.622 198.301 269.876C198.778 270.13 199.264 270.361 199.764 270.566C200.265 270.775 200.769 270.957 201.288 271.112C201.804 271.267 202.327 271.4 202.858 271.503C203.385 271.609 203.92 271.688 204.458 271.741C204.993 271.795 205.531 271.821 206.074 271.821H211.568V376.103C211.568 376.463 211.602 376.82 211.674 377.173C211.742 377.525 211.848 377.87 211.985 378.204C212.125 378.534 212.292 378.852 212.493 379.152C212.694 379.451 212.921 379.728 213.179 379.982C213.433 380.236 213.71 380.464 214.01 380.665C214.309 380.866 214.628 381.036 214.961 381.173C215.295 381.309 215.636 381.415 215.993 381.484C216.345 381.556 216.702 381.59 217.062 381.59C217.422 381.59 217.782 381.556 218.135 381.484C218.487 381.415 218.833 381.309 219.166 381.173C219.5 381.036 219.815 380.866 220.114 380.665C220.417 380.464 220.694 380.236 220.948 379.982C221.202 379.728 221.43 379.451 221.631 379.152C221.832 378.852 222.002 378.534 222.139 378.204C222.279 377.87 222.382 377.525 222.454 377.173C222.522 376.82 222.56 376.463 222.56 376.103V271.821H277.509V376.103C277.509 376.463 277.543 376.82 277.615 377.173C277.683 377.525 277.789 377.87 277.926 378.204C278.066 378.534 278.233 378.852 278.434 379.152C278.635 379.451 278.862 379.728 279.116 379.982C279.374 380.236 279.651 380.464 279.95 380.665C280.25 380.866 280.568 381.036 280.898 381.173C281.232 381.309 281.577 381.415 281.93 381.484C282.286 381.556 282.642 381.59 283.003 381.59C283.363 381.59 283.719 381.556 284.076 381.484C284.428 381.415 284.773 381.309 285.107 381.173C285.441 381.036 285.755 380.866 286.055 380.665C286.355 380.464 286.635 380.236 286.889 379.982C287.143 379.728 287.371 379.451 287.572 379.152C287.773 378.852 287.943 378.534 288.08 378.204C288.216 377.87 288.322 377.525 288.391 377.173C288.463 376.82 288.497 376.463 288.497 376.103V271.821H293.995C294.533 271.821 295.072 271.795 295.61 271.741C296.145 271.688 296.679 271.609 297.21 271.503C297.737 271.4 298.26 271.267 298.78 271.112C299.295 270.957 299.804 270.775 300.3 270.566C300.801 270.361 301.286 270.13 301.764 269.876C302.242 269.622 302.704 269.345 303.152 269.046C303.599 268.746 304.035 268.424 304.452 268.082C304.869 267.741 305.267 267.381 305.65 266.998C306.029 266.615 306.393 266.217 306.735 265.8C307.08 265.383 307.398 264.951 307.698 264.503C308.001 264.056 308.278 263.593 308.532 263.115C308.786 262.641 309.017 262.156 309.222 261.656C309.431 261.159 309.613 260.651 309.768 260.135C309.924 259.619 310.056 259.096 310.162 258.569C310.265 258.038 310.344 257.508 310.397 256.969C310.451 256.431 310.477 255.896 310.477 255.354V222.423C310.477 204.257 293.225 189.493 272.014 189.493ZM293.995 260.844H267.673L222.56 240.809V239.546L265.914 244.324H283.003C283.363 244.324 283.719 244.29 284.076 244.218C284.428 244.146 284.773 244.043 285.107 243.907C285.441 243.767 285.755 243.6 286.055 243.399C286.355 243.198 286.635 242.97 286.889 242.716C287.143 242.462 287.371 242.185 287.572 241.886C287.773 241.583 287.943 241.268 288.08 240.934C288.216 240.6 288.322 240.259 288.391 239.907C288.463 239.55 288.497 239.194 288.497 238.834V227.914C288.497 227.553 288.463 227.197 288.391 226.841C288.322 226.488 288.216 226.147 288.08 225.813C287.943 225.479 287.773 225.165 287.572 224.865C287.371 224.566 287.143 224.285 286.889 224.031C286.635 223.777 286.355 223.549 286.055 223.348C285.755 223.147 285.441 222.981 285.107 222.84C284.773 222.704 284.428 222.601 284.076 222.529C283.719 222.461 283.363 222.423 283.003 222.423C282.642 222.423 282.286 222.461 281.93 222.529C281.577 222.601 281.232 222.704 280.898 222.84C280.568 222.981 280.25 223.147 279.95 223.348C279.651 223.549 279.374 223.777 279.116 224.031C278.862 224.285 278.635 224.566 278.434 224.865C278.233 225.165 278.066 225.479 277.926 225.813C277.789 226.147 277.683 226.488 277.615 226.841C277.543 227.197 277.509 227.553 277.509 227.914V233.4H266.846L222.56 228.516V227.914C222.56 227.553 222.522 227.197 222.454 226.841C222.382 226.488 222.279 226.147 222.139 225.813C222.002 225.479 221.832 225.165 221.631 224.865C221.43 224.566 221.202 224.285 220.948 224.031C220.694 223.777 220.417 223.549 220.114 223.348C219.815 223.147 219.5 222.981 219.166 222.84C218.833 222.704 218.487 222.601 218.135 222.529C217.782 222.461 217.422 222.423 217.062 222.423C216.702 222.423 216.345 222.461 215.993 222.529C215.636 222.601 215.295 222.704 214.961 222.84C214.628 222.981 214.309 223.147 214.01 223.348C213.71 223.549 213.433 223.777 213.179 224.031C212.921 224.285 212.694 224.566 212.493 224.865C212.292 225.165 212.125 225.479 211.985 225.813C211.848 226.147 211.742 226.488 211.674 226.841C211.602 227.197 211.568 227.553 211.568 227.914V244.377C211.541 244.616 211.541 244.855 211.568 245.09C211.484 245.53 211.484 245.969 211.568 246.409C211.708 246.743 211.894 247.054 212.117 247.342C212.269 247.638 212.451 247.911 212.667 248.165C213.005 248.506 213.388 248.783 213.82 248.988C213.82 248.988 214.15 249.318 214.37 249.374L240.635 260.844H206.074C205.713 260.844 205.353 260.81 205.001 260.738C204.648 260.666 204.303 260.564 203.969 260.427C203.636 260.287 203.321 260.12 203.021 259.919C202.722 259.718 202.441 259.491 202.187 259.237C201.933 258.982 201.706 258.706 201.505 258.406C201.304 258.107 201.133 257.788 200.997 257.454C200.856 257.121 200.754 256.78 200.682 256.427C200.614 256.074 200.579 255.714 200.579 255.354V222.423C200.579 210.294 212.887 200.469 228.054 200.469H272.014C287.177 200.469 299.489 210.294 299.489 222.423V255.354C299.489 255.714 299.451 256.074 299.383 256.427C299.311 256.78 299.208 257.121 299.068 257.454C298.931 257.788 298.761 258.107 298.56 258.406C298.363 258.706 298.135 258.982 297.877 259.237C297.623 259.491 297.347 259.718 297.047 259.919C296.747 260.12 296.429 260.287 296.095 260.427C295.762 260.564 295.42 260.666 295.064 260.738C294.711 260.81 294.355 260.844 293.995 260.844Z" fill="#FFDE59"/>
</g>
<mask id="mask3_7_4" style="mask-type:luminance" maskUnits="userSpaceOnUse" x="243" y="299" width="14" height="84">
<path d="M243.691 299.019H256.309V382.363H243.691V299.019Z" fill="white"/>
</mask>
<g mask="url(#mask3_7_4)">
<path d="M244.536 304.752V376.103C244.536 376.463 244.574 376.82 244.642 377.173C244.714 377.525 244.817 377.87 244.957 378.204C245.094 378.534 245.264 378.852 245.465 379.152C245.666 379.451 245.894 379.728 246.148 379.982C246.402 380.236 246.679 380.464 246.982 380.665C247.281 380.866 247.596 381.036 247.93 381.173C248.263 381.309 248.608 381.415 248.961 381.484C249.314 381.556 249.674 381.59 250.034 381.59C250.394 381.59 250.751 381.556 251.103 381.484C251.46 381.415 251.801 381.309 252.135 381.173C252.468 381.036 252.787 380.866 253.086 380.665C253.386 380.464 253.663 380.236 253.917 379.982C254.175 379.728 254.402 379.451 254.603 379.152C254.804 378.852 254.971 378.534 255.111 378.204C255.248 377.87 255.35 377.525 255.422 377.173C255.494 376.82 255.528 376.463 255.528 376.103V304.752C255.528 304.391 255.494 304.035 255.422 303.682C255.35 303.326 255.248 302.985 255.111 302.651C254.971 302.317 254.804 302.003 254.603 301.703C254.402 301.404 254.175 301.127 253.917 300.869C253.663 300.615 253.386 300.387 253.086 300.187C252.787 299.989 252.468 299.819 252.135 299.682C251.801 299.542 251.46 299.44 251.103 299.368C250.751 299.299 250.394 299.261 250.034 299.261C249.674 299.261 249.314 299.299 248.961 299.368C248.608 299.44 248.263 299.542 247.93 299.682C247.596 299.819 247.281 299.989 246.982 300.187C246.679 300.387 246.402 300.615 246.148 300.869C245.894 301.127 245.666 301.404 245.465 301.703C245.264 302.003 245.094 302.317 244.957 302.651C244.817 302.985 244.714 303.326 244.642 303.682C244.574 304.035 244.536 304.391 244.536 304.752Z" fill="#FFDE59"/>
</g>
<path d="M123.646 205.96C124.458 205.96 125.266 205.918 126.073 205.838C126.877 205.759 127.677 205.641 128.473 205.486C129.266 205.327 130.051 205.129 130.824 204.894C131.601 204.659 132.364 204.39 133.11 204.079C133.857 203.768 134.589 203.423 135.306 203.044C136.019 202.661 136.713 202.244 137.387 201.797C138.059 201.345 138.707 200.864 139.336 200.352C139.962 199.84 140.561 199.298 141.134 198.725C141.706 198.153 142.248 197.554 142.764 196.928C143.276 196.302 143.757 195.654 144.209 194.983C144.656 194.308 145.073 193.618 145.456 192.901C145.839 192.188 146.184 191.46 146.491 190.714C146.802 189.967 147.075 189.204 147.31 188.431C147.545 187.657 147.743 186.873 147.902 186.08C148.057 185.284 148.179 184.488 148.254 183.68C148.334 182.876 148.376 182.068 148.376 181.261C148.376 180.453 148.334 179.646 148.254 178.838C148.179 178.034 148.057 177.234 147.902 176.442C147.743 175.649 147.545 174.864 147.31 174.091C147.075 173.317 146.802 172.555 146.491 171.808C146.184 171.061 145.839 170.329 145.456 169.617C145.073 168.904 144.656 168.21 144.209 167.539C143.757 166.868 143.276 166.219 142.764 165.594C142.248 164.968 141.706 164.369 141.134 163.796C140.561 163.224 139.962 162.682 139.336 162.17C138.707 161.654 138.059 161.173 137.387 160.725C136.713 160.274 136.019 159.861 135.306 159.478C134.589 159.099 133.857 158.754 133.11 158.443C132.364 158.132 131.601 157.862 130.824 157.627C130.051 157.392 129.266 157.195 128.473 157.036C127.677 156.88 126.877 156.759 126.073 156.679C125.266 156.604 124.458 156.562 123.646 156.562C122.839 156.562 122.031 156.604 121.224 156.679C120.42 156.759 119.62 156.88 118.823 157.036C118.031 157.195 117.246 157.392 116.469 157.627C115.695 157.862 114.933 158.132 114.186 158.443C113.436 158.754 112.704 159.099 111.991 159.478C111.278 159.861 110.584 160.274 109.909 160.725C109.238 161.173 108.586 161.654 107.96 162.17C107.335 162.682 106.736 163.224 106.163 163.796C105.591 164.369 105.048 164.968 104.533 165.594C104.021 166.219 103.539 166.868 103.088 167.539C102.637 168.21 102.224 168.904 101.841 169.617C101.458 170.329 101.113 171.061 100.802 171.808C100.495 172.555 100.222 173.317 99.9865 174.091C99.7514 174.864 99.5542 175.649 99.395 176.442C99.2357 177.234 99.1182 178.034 99.0386 178.838C98.959 179.646 98.921 180.453 98.921 181.261C98.921 182.068 98.9627 182.876 99.0462 183.68C99.1258 184.484 99.2471 185.284 99.4064 186.076C99.5656 186.869 99.7628 187.65 99.9979 188.423C100.233 189.197 100.506 189.959 100.817 190.702C101.128 191.449 101.473 192.181 101.856 192.894C102.239 193.607 102.656 194.297 103.103 194.968C103.554 195.643 104.036 196.291 104.552 196.913C105.064 197.538 105.606 198.138 106.178 198.71C106.751 199.279 107.35 199.821 107.976 200.337C108.601 200.849 109.25 201.33 109.924 201.781C110.596 202.229 111.289 202.646 112.002 203.025C112.715 203.408 113.447 203.753 114.194 204.064C114.941 204.375 115.703 204.648 116.476 204.883C117.25 205.118 118.035 205.315 118.827 205.474C119.62 205.634 120.42 205.755 121.227 205.835C122.031 205.914 122.839 205.956 123.646 205.96ZM123.646 167.539C124.549 167.539 125.444 167.626 126.327 167.804C127.214 167.979 128.071 168.24 128.906 168.585C129.74 168.93 130.528 169.351 131.279 169.852C132.03 170.352 132.724 170.921 133.361 171.558C133.998 172.195 134.57 172.889 135.071 173.636C135.571 174.387 135.996 175.179 136.341 176.009C136.686 176.844 136.944 177.701 137.122 178.584C137.296 179.467 137.384 180.358 137.384 181.261C137.384 182.163 137.296 183.054 137.122 183.938C136.944 184.821 136.686 185.678 136.341 186.512C135.996 187.343 135.571 188.135 135.071 188.882C134.57 189.633 133.998 190.327 133.361 190.964C132.724 191.601 132.03 192.169 131.279 192.67C130.528 193.17 129.74 193.591 128.906 193.936C128.071 194.281 127.214 194.543 126.327 194.717C125.444 194.896 124.549 194.983 123.646 194.983C122.744 194.983 121.853 194.896 120.97 194.717C120.082 194.543 119.225 194.281 118.391 193.936C117.557 193.591 116.765 193.17 116.014 192.67C115.267 192.169 114.573 191.601 113.932 190.964C113.295 190.327 112.726 189.633 112.226 188.882C111.725 188.135 111.301 187.343 110.956 186.512C110.611 185.678 110.349 184.821 110.175 183.938C109.996 183.054 109.909 182.163 109.909 181.261C109.909 180.358 109.996 179.467 110.175 178.584C110.349 177.701 110.611 176.844 110.956 176.009C111.301 175.179 111.725 174.387 112.226 173.636C112.726 172.889 113.295 172.195 113.932 171.558C114.573 170.921 115.267 170.352 116.014 169.852C116.765 169.351 117.557 168.93 118.391 168.585C119.225 168.24 120.082 167.979 120.97 167.804C121.853 167.626 122.744 167.539 123.646 167.539Z" fill="#FFDE59"/>
<mask id="mask4_7_4" style="mask-type:luminance" maskUnits="userSpaceOnUse" x="78" y="210" width="47" height="173">
<path d="M78.6773 210.688H124.299V382.363H78.6773V210.688Z" fill="white"/>
</mask>
<g mask="url(#mask4_7_4)">
<path d="M96.1721 298.715V376.103C96.1721 376.463 96.2062 376.82 96.2782 377.172C96.3503 377.525 96.4527 377.87 96.5929 378.204C96.7294 378.534 96.9001 378.852 97.0972 379.152C97.2982 379.451 97.5257 379.728 97.7835 379.982C98.0376 380.236 98.3144 380.464 98.6139 380.665C98.9134 380.866 99.2319 381.036 99.5656 381.173C99.8993 381.309 100.241 381.415 100.597 381.484C100.95 381.556 101.306 381.59 101.666 381.59C102.03 381.59 102.387 381.556 102.739 381.484C103.092 381.415 103.437 381.309 103.771 381.173C104.104 381.036 104.419 380.866 104.722 380.665C105.022 380.464 105.299 380.236 105.553 379.982C105.807 379.728 106.038 379.451 106.235 379.152C106.436 378.852 106.607 378.534 106.743 378.204C106.884 377.87 106.986 377.525 107.058 377.172C107.126 376.82 107.164 376.463 107.164 376.103V244.377C107.164 244.017 107.126 243.66 107.058 243.308C106.986 242.955 106.884 242.61 106.743 242.276C106.607 241.947 106.436 241.628 106.235 241.328C106.038 241.029 105.807 240.752 105.553 240.498C105.299 240.244 105.022 240.017 104.722 239.816C104.419 239.615 104.104 239.444 103.771 239.308C103.437 239.171 103.092 239.065 102.739 238.997C102.387 238.925 102.03 238.89 101.666 238.89C101.306 238.89 100.95 238.925 100.597 238.997C100.241 239.065 99.8993 239.171 99.5656 239.308C99.2319 239.444 98.9134 239.615 98.6139 239.816C98.3144 240.017 98.0376 240.244 97.7835 240.498C97.5257 240.752 97.2982 241.029 97.0972 241.328C96.9001 241.628 96.7294 241.947 96.5929 242.276C96.4527 242.61 96.3503 242.955 96.2782 243.308C96.2062 243.66 96.1721 244.017 96.1721 244.377V287.409C92.4373 285.979 90.6779 282.798 90.6779 277.308V238.89C90.6779 238.352 90.7045 237.814 90.7576 237.275C90.8107 236.741 90.8903 236.206 90.9964 235.679C91.0988 235.148 91.2315 234.625 91.387 234.109C91.5462 233.593 91.7244 233.085 91.933 232.589C92.1377 232.092 92.369 231.603 92.6231 231.129C92.8771 230.651 93.1577 230.189 93.4572 229.741C93.7568 229.294 94.0791 228.861 94.4203 228.444C94.7616 228.027 95.1256 227.629 95.5047 227.246C95.8877 226.867 96.2858 226.503 96.7067 226.162C97.1238 225.821 97.556 225.498 98.0034 225.199C98.4547 224.899 98.9172 224.622 99.3912 224.368C99.8689 224.114 100.354 223.883 100.855 223.678C101.351 223.47 101.86 223.292 102.379 223.132C102.895 222.977 103.418 222.844 103.945 222.742C104.476 222.636 105.01 222.556 105.549 222.503C106.083 222.45 106.622 222.423 107.164 222.423H118.152C118.513 222.423 118.873 222.389 119.225 222.317C119.578 222.249 119.923 222.143 120.257 222.006C120.59 221.87 120.905 221.699 121.205 221.498C121.504 221.297 121.785 221.07 122.039 220.816C122.293 220.562 122.52 220.285 122.721 219.985C122.922 219.686 123.093 219.367 123.229 219.037C123.366 218.704 123.472 218.359 123.544 218.006C123.612 217.653 123.646 217.297 123.646 216.937C123.646 216.576 123.612 216.22 123.544 215.864C123.472 215.511 123.366 215.17 123.229 214.836C123.093 214.502 122.922 214.188 122.721 213.888C122.52 213.589 122.293 213.308 122.039 213.054C121.785 212.8 121.504 212.572 121.205 212.372C120.905 212.171 120.59 212.004 120.257 211.863C119.923 211.727 119.578 211.625 119.225 211.553C118.873 211.484 118.513 211.446 118.152 211.446H107.164C106.262 211.446 105.367 211.492 104.468 211.579C103.573 211.666 102.686 211.799 101.803 211.973C100.919 212.152 100.047 212.368 99.1864 212.629C98.3257 212.891 97.4802 213.191 96.6498 213.536C95.8157 213.881 95.0042 214.264 94.2118 214.688C93.4193 215.113 92.6458 215.572 91.8989 216.072C91.1519 216.573 90.4277 217.107 89.7338 217.676C89.0362 218.245 88.3726 218.848 87.7356 219.485C87.0986 220.122 86.4957 220.785 85.9232 221.479C85.3544 222.177 84.8198 222.897 84.3193 223.644C83.8188 224.391 83.3562 225.161 82.9316 225.953C82.5069 226.746 82.1239 227.557 81.7789 228.388C81.4339 229.218 81.1305 230.063 80.8727 230.924C80.6111 231.785 80.3912 232.653 80.2167 233.537C80.0385 234.416 79.9096 235.304 79.8186 236.198C79.7314 237.093 79.6897 237.992 79.6897 238.89V277.308C79.6252 277.926 79.5949 278.544 79.5911 279.166C79.5873 279.787 79.6139 280.405 79.6707 281.023C79.7238 281.641 79.811 282.256 79.9248 282.862C80.0347 283.473 80.1788 284.076 80.3494 284.675C80.5201 285.27 80.7172 285.858 80.9447 286.434C81.1684 287.014 81.4225 287.579 81.7031 288.133C81.9837 288.686 82.287 289.225 82.6169 289.752C82.9467 290.275 83.3032 290.783 83.6823 291.276C84.0615 291.769 84.4596 292.239 84.8843 292.694C85.3089 293.149 85.7526 293.581 86.2152 293.995C86.6815 294.404 87.1631 294.795 87.6636 295.159C88.1641 295.527 88.6835 295.868 89.2144 296.186C89.749 296.505 90.295 296.797 90.8562 297.062C91.4173 297.328 91.9899 297.566 92.5738 297.779C93.1577 297.991 93.7492 298.177 94.3521 298.332C94.9512 298.488 95.5616 298.617 96.1721 298.715Z" fill="#FFDE59"/>
</g>
<mask id="mask5_7_4" style="mask-type:luminance" maskUnits="userSpaceOnUse" x="117" y="299" width="13" height="84">
<path d="M117.504 299.019H129.152V382.363H117.504V299.019Z" fill="white"/>
</mask>
<g mask="url(#mask5_7_4)">
<path d="M129.144 376.103V304.752C129.144 304.391 129.106 304.035 129.038 303.682C128.966 303.326 128.864 302.985 128.724 302.651C128.587 302.317 128.416 302.003 128.215 301.703C128.014 301.404 127.787 301.127 127.533 300.869C127.279 300.615 127.002 300.387 126.703 300.187C126.399 299.989 126.085 299.819 125.751 299.682C125.417 299.542 125.072 299.44 124.72 299.368C124.367 299.299 124.01 299.261 123.646 299.261C123.286 299.261 122.93 299.299 122.577 299.368C122.221 299.44 121.88 299.542 121.546 299.682C121.212 299.819 120.894 299.989 120.594 300.187C120.295 300.387 120.018 300.615 119.764 300.869C119.506 301.127 119.278 301.404 119.078 301.703C118.88 302.003 118.71 302.317 118.569 302.651C118.433 302.985 118.331 303.326 118.259 303.682C118.186 304.035 118.152 304.391 118.152 304.752V376.103C118.152 376.463 118.186 376.82 118.259 377.173C118.331 377.525 118.433 377.87 118.569 378.204C118.71 378.534 118.88 378.852 119.078 379.152C119.278 379.451 119.506 379.728 119.764 379.982C120.018 380.236 120.295 380.464 120.594 380.665C120.894 380.866 121.212 381.036 121.546 381.173C121.88 381.309 122.221 381.415 122.577 381.484C122.93 381.556 123.286 381.59 123.646 381.59C124.01 381.59 124.367 381.556 124.72 381.484C125.072 381.415 125.417 381.309 125.751 381.173C126.085 381.036 126.399 380.866 126.703 380.665C127.002 380.464 127.279 380.236 127.533 379.982C127.787 379.728 128.014 379.451 128.215 379.152C128.416 378.852 128.587 378.534 128.724 378.204C128.864 377.87 128.966 377.525 129.038 377.173C129.106 376.82 129.144 376.463 129.144 376.103Z" fill="#FFDE59"/>
</g>
<path d="M315.971 194.983C316.874 194.983 317.772 194.937 318.667 194.85C319.562 194.763 320.449 194.63 321.333 194.456C322.216 194.278 323.088 194.062 323.949 193.8C324.81 193.538 325.655 193.235 326.486 192.894C327.32 192.549 328.131 192.166 328.924 191.741C329.72 191.316 330.49 190.858 331.236 190.357C331.983 189.857 332.708 189.322 333.402 188.753C334.099 188.181 334.763 187.578 335.4 186.945C336.037 186.308 336.64 185.644 337.212 184.95C337.781 184.253 338.319 183.532 338.816 182.785C339.317 182.038 339.779 181.268 340.204 180.476C340.628 179.684 341.011 178.872 341.356 178.042C341.701 177.211 342.005 176.366 342.266 175.505C342.524 174.644 342.744 173.776 342.919 172.893C343.097 172.013 343.226 171.122 343.317 170.231C343.404 169.336 343.449 168.437 343.449 167.539C343.449 166.64 343.404 165.745 343.317 164.851C343.226 163.956 343.097 163.068 342.919 162.185C342.744 161.305 342.524 160.433 342.266 159.573C342.005 158.712 341.701 157.866 341.356 157.036C341.011 156.206 340.628 155.394 340.204 154.602C339.779 153.809 339.317 153.04 338.816 152.293C338.319 151.546 337.781 150.825 337.212 150.131C336.64 149.434 336.037 148.77 335.4 148.133C334.763 147.5 334.099 146.897 333.402 146.324C332.708 145.756 331.983 145.221 331.236 144.721C330.49 144.224 329.72 143.761 328.924 143.337C328.131 142.912 327.32 142.529 326.486 142.184C325.655 141.843 324.81 141.539 323.949 141.278C323.088 141.016 322.216 140.8 321.333 140.626C320.449 140.447 319.562 140.318 318.667 140.227C317.772 140.14 316.874 140.099 315.971 140.099C315.073 140.099 314.174 140.14 313.279 140.227C312.384 140.318 311.497 140.447 310.614 140.626C309.73 140.8 308.858 141.016 307.997 141.278C307.137 141.539 306.291 141.843 305.457 142.184C304.627 142.529 303.815 142.912 303.023 143.337C302.226 143.761 301.457 144.224 300.71 144.721C299.959 145.221 299.239 145.756 298.545 146.324C297.847 146.897 297.18 147.5 296.547 148.133C295.91 148.77 295.307 149.434 294.734 150.131C294.165 150.825 293.627 151.546 293.126 152.293C292.63 153.04 292.167 153.809 291.742 154.602C291.318 155.394 290.935 156.206 290.59 157.036C290.245 157.866 289.941 158.712 289.68 159.573C289.418 160.433 289.202 161.305 289.028 162.185C288.849 163.068 288.717 163.956 288.63 164.851C288.542 165.745 288.497 166.64 288.497 167.539C288.497 168.437 288.542 169.336 288.63 170.231C288.717 171.122 288.849 172.013 289.028 172.893C289.202 173.776 289.418 174.644 289.68 175.505C289.941 176.366 290.245 177.211 290.59 178.042C290.935 178.872 291.318 179.684 291.742 180.476C292.167 181.268 292.63 182.038 293.126 182.785C293.627 183.532 294.165 184.253 294.734 184.95C295.307 185.644 295.91 186.308 296.547 186.945C297.18 187.578 297.847 188.181 298.545 188.753C299.239 189.322 299.959 189.857 300.71 190.357C301.457 190.858 302.226 191.316 303.023 191.741C303.815 192.166 304.627 192.549 305.457 192.894C306.291 193.235 307.137 193.538 307.997 193.8C308.858 194.062 309.73 194.278 310.614 194.456C311.497 194.63 312.384 194.763 313.279 194.85C314.174 194.937 315.073 194.983 315.971 194.983ZM315.971 151.075C316.513 151.075 317.052 151.102 317.59 151.155C318.125 151.204 318.66 151.284 319.19 151.39C319.717 151.496 320.241 151.625 320.756 151.784C321.276 151.94 321.784 152.122 322.281 152.327C322.781 152.535 323.266 152.763 323.744 153.017C324.218 153.271 324.681 153.548 325.132 153.847C325.579 154.147 326.015 154.469 326.432 154.81C326.849 155.155 327.248 155.515 327.631 155.895C328.01 156.278 328.374 156.676 328.715 157.093C329.06 157.51 329.379 157.942 329.678 158.393C329.981 158.841 330.258 159.303 330.512 159.777C330.766 160.251 330.998 160.74 331.202 161.237C331.411 161.738 331.593 162.242 331.748 162.761C331.904 163.277 332.036 163.796 332.143 164.327C332.245 164.854 332.325 165.389 332.378 165.924C332.431 166.462 332.457 167 332.457 167.539C332.457 168.077 332.431 168.616 332.378 169.154C332.325 169.689 332.245 170.223 332.143 170.75C332.036 171.281 331.904 171.804 331.748 172.32C331.593 172.836 331.411 173.344 331.202 173.841C330.998 174.337 330.766 174.826 330.512 175.3C330.258 175.778 329.981 176.237 329.678 176.688C329.379 177.136 329.06 177.568 328.715 177.985C328.374 178.402 328.01 178.8 327.631 179.183C327.248 179.562 326.849 179.926 326.432 180.267C326.015 180.609 325.579 180.931 325.132 181.231C324.681 181.53 324.218 181.807 323.744 182.061C323.266 182.315 322.781 182.546 322.281 182.751C321.784 182.96 321.276 183.138 320.756 183.297C320.241 183.452 319.717 183.581 319.19 183.688C318.66 183.794 318.125 183.873 317.59 183.926C317.052 183.98 316.513 184.006 315.971 184.006C315.433 184.006 314.894 183.98 314.356 183.926C313.821 183.873 313.287 183.794 312.756 183.688C312.229 183.581 311.706 183.452 311.186 183.297C310.67 183.138 310.162 182.96 309.666 182.751C309.165 182.546 308.68 182.315 308.202 182.061C307.724 181.807 307.262 181.53 306.814 181.231C306.367 180.931 305.931 180.609 305.514 180.267C305.097 179.926 304.699 179.562 304.316 179.183C303.933 178.8 303.572 178.402 303.231 177.985C302.886 177.568 302.568 177.136 302.264 176.688C301.965 176.237 301.688 175.778 301.434 175.3C301.18 174.826 300.949 174.337 300.744 173.841C300.535 173.344 300.353 172.836 300.198 172.32C300.042 171.804 299.91 171.281 299.804 170.75C299.697 170.223 299.622 169.689 299.568 169.154C299.515 168.616 299.489 168.077 299.489 167.539C299.489 167 299.515 166.462 299.568 165.924C299.622 165.389 299.697 164.854 299.804 164.327C299.91 163.796 300.042 163.277 300.198 162.761C300.353 162.242 300.535 161.738 300.744 161.237C300.949 160.74 301.18 160.255 301.434 159.777C301.688 159.303 301.965 158.841 302.264 158.393C302.568 157.942 302.886 157.51 303.231 157.093C303.572 156.676 303.933 156.278 304.316 155.895C304.699 155.515 305.097 155.155 305.514 154.81C305.931 154.469 306.367 154.147 306.814 153.847C307.262 153.548 307.724 153.271 308.202 153.017C308.68 152.763 309.165 152.535 309.666 152.327C310.162 152.122 310.67 151.94 311.186 151.784C311.706 151.625 312.229 151.496 312.756 151.39C313.287 151.284 313.821 151.204 314.356 151.151C314.894 151.102 315.433 151.075 315.971 151.075Z" fill="#FFDE59"/>
<mask id="mask6_7_4" style="mask-type:luminance" maskUnits="userSpaceOnUse" x="315" y="200" width="57" height="183">
<path d="M315.52 200.011H371.819V382.363H315.52V200.011Z" fill="white"/>
</mask>
<g mask="url(#mask6_7_4)">
<path d="M343.449 227.914C343.085 227.914 342.729 227.948 342.376 228.02C342.024 228.088 341.679 228.194 341.345 228.331C341.011 228.467 340.697 228.638 340.393 228.839C340.094 229.04 339.817 229.267 339.563 229.521C339.309 229.775 339.078 230.052 338.88 230.352C338.679 230.651 338.509 230.97 338.372 231.3C338.232 231.633 338.13 231.978 338.058 232.331C337.989 232.683 337.951 233.04 337.951 233.4V376.103C337.951 376.463 337.989 376.82 338.058 377.172C338.13 377.525 338.232 377.87 338.372 378.204C338.509 378.534 338.679 378.852 338.88 379.152C339.078 379.451 339.309 379.728 339.563 379.982C339.817 380.236 340.094 380.464 340.393 380.665C340.697 380.866 341.011 381.036 341.345 381.173C341.679 381.309 342.024 381.415 342.376 381.484C342.729 381.556 343.085 381.59 343.449 381.59C343.81 381.59 344.166 381.556 344.519 381.484C344.875 381.415 345.216 381.309 345.55 381.173C345.884 381.036 346.202 380.866 346.502 380.665C346.801 380.464 347.078 380.236 347.332 379.982C347.59 379.728 347.817 379.451 348.018 379.152C348.216 378.852 348.386 378.534 348.523 378.204C348.663 377.87 348.765 377.525 348.837 377.172C348.909 376.82 348.944 376.463 348.944 376.103V304.312C361.471 302.283 370.924 293.335 370.924 282.798V233.4C370.924 215.234 353.668 200.469 332.457 200.469H321.469C321.109 200.469 320.749 200.504 320.396 200.576C320.043 200.648 319.698 200.75 319.365 200.887C319.031 201.027 318.716 201.194 318.417 201.395C318.113 201.596 317.837 201.823 317.583 202.077C317.329 202.331 317.101 202.608 316.9 202.911C316.699 203.211 316.529 203.526 316.392 203.859C316.252 204.193 316.149 204.534 316.077 204.887C316.009 205.243 315.971 205.6 315.971 205.96C315.971 206.32 316.009 206.676 316.077 207.029C316.149 207.382 316.252 207.727 316.392 208.06C316.529 208.39 316.699 208.709 316.9 209.008C317.101 209.308 317.329 209.585 317.583 209.839C317.837 210.093 318.113 210.32 318.417 210.521C318.716 210.722 319.031 210.893 319.365 211.029C319.698 211.166 320.043 211.272 320.396 211.34C320.749 211.412 321.109 211.446 321.469 211.446H332.457C347.624 211.446 359.932 221.271 359.932 233.4V282.798C359.932 287.462 355.26 291.523 348.944 293.062V233.4C348.944 233.04 348.909 232.683 348.837 232.331C348.765 231.978 348.663 231.633 348.523 231.3C348.386 230.97 348.216 230.651 348.018 230.352C347.817 230.052 347.59 229.775 347.332 229.521C347.078 229.267 346.801 229.04 346.502 228.839C346.202 228.638 345.884 228.467 345.55 228.331C345.216 228.194 344.875 228.088 344.519 228.02C344.166 227.948 343.81 227.914 343.449 227.914Z" fill="#FFDE59"/>
</g>
<mask id="mask7_7_4" style="mask-type:luminance" maskUnits="userSpaceOnUse" x="309" y="299" width="14" height="84">
<path d="M309.696 299.019H322.315V382.363H309.696V299.019Z" fill="white"/>
</mask>
<g mask="url(#mask7_7_4)">
<path d="M310.477 304.752V376.103C310.477 376.463 310.511 376.82 310.583 377.173C310.655 377.525 310.758 377.87 310.898 378.204C311.034 378.534 311.205 378.852 311.402 379.152C311.603 379.451 311.831 379.728 312.089 379.982C312.343 380.236 312.619 380.464 312.919 380.665C313.218 380.866 313.537 381.036 313.871 381.173C314.204 381.309 314.546 381.415 314.902 381.484C315.255 381.556 315.611 381.59 315.971 381.59C316.335 381.59 316.692 381.556 317.044 381.484C317.397 381.415 317.742 381.309 318.076 381.173C318.409 381.036 318.724 380.866 319.027 380.665C319.327 380.464 319.604 380.236 319.858 379.982C320.112 379.728 320.343 379.451 320.54 379.152C320.741 378.852 320.912 378.534 321.048 378.204C321.189 377.87 321.291 377.525 321.363 377.173C321.431 376.82 321.469 376.463 321.469 376.103V304.752C321.469 304.391 321.431 304.035 321.363 303.682C321.291 303.326 321.189 302.985 321.048 302.651C320.912 302.317 320.741 302.003 320.54 301.703C320.343 301.404 320.112 301.127 319.858 300.869C319.604 300.615 319.327 300.387 319.027 300.187C318.724 299.989 318.409 299.819 318.076 299.682C317.742 299.542 317.397 299.44 317.044 299.368C316.692 299.299 316.335 299.261 315.971 299.261C315.611 299.261 315.255 299.299 314.902 299.368C314.546 299.44 314.204 299.542 313.871 299.682C313.537 299.819 313.218 299.989 312.919 300.187C312.619 300.387 312.343 300.615 312.089 300.869C311.831 301.127 311.603 301.404 311.402 301.703C311.205 302.003 311.034 302.317 310.898 302.651C310.758 302.985 310.655 303.326 310.583 303.682C310.511 304.035 310.477 304.391 310.477 304.752Z" fill="#FFDE59"/>
</g>
<path d="M376.418 205.96C377.229 205.96 378.037 205.918 378.841 205.838C379.648 205.759 380.449 205.641 381.241 205.486C382.037 205.327 382.822 205.129 383.596 204.894C384.369 204.659 385.131 204.39 385.882 204.079C386.629 203.768 387.361 203.423 388.074 203.044C388.79 202.661 389.484 202.244 390.155 201.797C390.83 201.345 391.478 200.864 392.104 200.352C392.73 199.84 393.329 199.298 393.901 198.725C394.474 198.153 395.02 197.554 395.532 196.928C396.047 196.302 396.529 195.654 396.976 194.983C397.428 194.308 397.845 193.618 398.224 192.901C398.607 192.188 398.952 191.46 399.263 190.714C399.574 189.967 399.847 189.204 400.082 188.431C400.317 187.657 400.514 186.873 400.669 186.08C400.829 185.284 400.946 184.488 401.026 183.68C401.106 182.876 401.147 182.068 401.147 181.261C401.147 180.453 401.106 179.646 401.026 178.838C400.946 178.034 400.829 177.234 400.669 176.442C400.514 175.649 400.317 174.864 400.082 174.091C399.847 173.317 399.574 172.555 399.263 171.808C398.952 171.061 398.607 170.329 398.224 169.617C397.845 168.904 397.428 168.21 396.976 167.539C396.529 166.868 396.047 166.219 395.532 165.594C395.02 164.968 394.474 164.369 393.901 163.796C393.329 163.224 392.73 162.682 392.104 162.17C391.478 161.654 390.83 161.173 390.155 160.725C389.484 160.274 388.79 159.861 388.074 159.478C387.361 159.099 386.629 158.754 385.882 158.443C385.131 158.132 384.369 157.862 383.596 157.627C382.822 157.392 382.037 157.195 381.241 157.036C380.449 156.88 379.648 156.759 378.841 156.679C378.037 156.604 377.229 156.562 376.418 156.562C375.607 156.562 374.799 156.604 373.995 156.679C373.187 156.759 372.387 156.88 371.595 157.036C370.799 157.195 370.014 157.392 369.24 157.627C368.463 157.862 367.705 158.132 366.954 158.443C366.207 158.754 365.475 159.099 364.762 159.478C364.046 159.861 363.352 160.274 362.681 160.725C362.006 161.173 361.357 161.654 360.732 162.17C360.106 162.682 359.507 163.224 358.935 163.796C358.362 164.369 357.816 164.968 357.304 165.594C356.789 166.219 356.307 166.868 355.86 167.539C355.408 168.21 354.991 168.904 354.608 169.617C354.229 170.329 353.884 171.061 353.573 171.808C353.262 172.555 352.989 173.317 352.754 174.091C352.519 174.864 352.322 175.649 352.166 176.442C352.007 177.234 351.89 178.034 351.81 178.838C351.73 179.646 351.689 180.453 351.689 181.261C351.693 182.068 351.734 182.876 351.814 183.68C351.893 184.484 352.015 185.284 352.174 186.076C352.333 186.869 352.53 187.65 352.766 188.423C353.004 189.197 353.277 189.959 353.588 190.702C353.899 191.449 354.244 192.181 354.627 192.894C355.01 193.607 355.424 194.297 355.875 194.968C356.326 195.643 356.807 196.291 357.319 196.913C357.835 197.538 358.377 198.138 358.95 198.71C359.522 199.279 360.121 199.821 360.747 200.337C361.373 200.849 362.021 201.33 362.692 201.781C363.367 202.229 364.057 202.646 364.774 203.025C365.487 203.408 366.215 203.753 366.965 204.064C367.712 204.375 368.471 204.648 369.244 204.883C370.021 205.118 370.803 205.315 371.599 205.474C372.391 205.634 373.191 205.755 373.995 205.835C374.803 205.914 375.61 205.956 376.418 205.96ZM376.418 167.539C377.32 167.539 378.211 167.626 379.099 167.804C379.982 167.979 380.843 168.24 381.673 168.585C382.507 168.93 383.3 169.351 384.051 169.852C384.801 170.352 385.495 170.921 386.132 171.558C386.769 172.195 387.338 172.889 387.838 173.636C388.343 174.387 388.764 175.179 389.109 176.009C389.454 176.844 389.715 177.701 389.89 178.584C390.068 179.467 390.155 180.358 390.155 181.261C390.155 182.163 390.068 183.054 389.89 183.938C389.715 184.821 389.454 185.678 389.109 186.512C388.764 187.343 388.343 188.135 387.838 188.882C387.338 189.633 386.769 190.327 386.132 190.964C385.495 191.601 384.801 192.169 384.051 192.67C383.3 193.17 382.507 193.591 381.673 193.936C380.843 194.281 379.982 194.543 379.099 194.717C378.211 194.896 377.32 194.983 376.418 194.983C375.516 194.983 374.621 194.896 373.737 194.717C372.854 194.543 371.993 194.281 371.159 193.936C370.329 193.591 369.536 193.17 368.785 192.67C368.035 192.169 367.341 191.601 366.704 190.964C366.067 190.327 365.498 189.633 364.994 188.882C364.493 188.135 364.072 187.343 363.727 186.512C363.382 185.678 363.121 184.821 362.946 183.938C362.768 183.054 362.681 182.163 362.681 181.261C362.681 180.358 362.768 179.467 362.946 178.584C363.121 177.701 363.382 176.844 363.727 176.009C364.072 175.179 364.493 174.387 364.994 173.636C365.498 172.889 366.067 172.195 366.704 171.558C367.341 170.921 368.035 170.352 368.785 169.852C369.536 169.351 370.329 168.93 371.159 168.585C371.993 168.24 372.854 167.979 373.737 167.804C374.621 167.626 375.516 167.539 376.418 167.539Z" fill="#FFDE59"/>
<mask id="mask8_7_4" style="mask-type:luminance" maskUnits="userSpaceOnUse" x="370" y="299" width="13" height="84">
<path d="M370.848 299.019H382.496V382.363H370.848V299.019Z" fill="white"/>
</mask>
<g mask="url(#mask8_7_4)">
<path d="M376.418 299.261C376.058 299.261 375.701 299.299 375.345 299.368C374.992 299.44 374.647 299.542 374.314 299.682C373.98 299.819 373.665 299.989 373.366 300.187C373.066 300.387 372.786 300.615 372.531 300.869C372.277 301.127 372.05 301.404 371.849 301.703C371.648 302.003 371.477 302.317 371.341 302.651C371.204 302.985 371.098 303.326 371.03 303.682C370.958 304.035 370.924 304.391 370.924 304.752V376.103C370.924 376.463 370.958 376.82 371.03 377.173C371.098 377.525 371.204 377.87 371.341 378.204C371.477 378.534 371.648 378.852 371.849 379.152C372.05 379.451 372.277 379.728 372.531 379.982C372.786 380.236 373.066 380.464 373.366 380.665C373.665 380.866 373.98 381.036 374.314 381.173C374.647 381.309 374.992 381.415 375.345 381.484C375.701 381.556 376.058 381.59 376.418 381.59C376.778 381.59 377.135 381.556 377.491 381.484C377.844 381.415 378.189 381.309 378.522 381.173C378.852 381.036 379.171 380.866 379.47 380.665C379.77 380.464 380.047 380.236 380.304 379.982C380.558 379.728 380.786 379.451 380.987 379.152C381.188 378.852 381.355 378.534 381.495 378.204C381.631 377.87 381.738 377.525 381.806 377.173C381.878 376.82 381.912 376.463 381.912 376.103V304.752C381.912 304.391 381.878 304.035 381.806 303.682C381.738 303.326 381.631 302.985 381.495 302.651C381.355 302.317 381.188 302.003 380.987 301.703C380.786 301.404 380.558 301.127 380.304 300.869C380.047 300.615 379.77 300.387 379.47 300.187C379.171 299.989 378.852 299.819 378.522 299.682C378.189 299.542 377.844 299.44 377.491 299.368C377.135 299.299 376.778 299.261 376.418 299.261Z" fill="#FFDE59"/>
</g>
<mask id="mask9_7_4" style="mask-type:luminance" maskUnits="userSpaceOnUse" x="375" y="210" width="47" height="173">
<path d="M375.701 210.688H421.323V382.363H375.701V210.688Z" fill="white"/>
</mask>
<g mask="url(#mask9_7_4)">
<path d="M392.904 211.446H381.912C381.552 211.446 381.195 211.484 380.839 211.553C380.486 211.625 380.145 211.727 379.812 211.863C379.478 212.004 379.159 212.171 378.86 212.372C378.56 212.572 378.283 212.8 378.026 213.054C377.772 213.308 377.544 213.589 377.343 213.888C377.142 214.188 376.975 214.502 376.835 214.836C376.699 215.17 376.592 215.511 376.524 215.864C376.452 216.22 376.418 216.576 376.418 216.937C376.418 217.297 376.452 217.653 376.524 218.006C376.592 218.359 376.699 218.704 376.835 219.037C376.975 219.367 377.142 219.686 377.343 219.985C377.544 220.285 377.772 220.562 378.026 220.816C378.283 221.07 378.56 221.297 378.86 221.498C379.159 221.699 379.478 221.87 379.812 222.006C380.145 222.143 380.486 222.249 380.839 222.317C381.195 222.389 381.552 222.423 381.912 222.423H392.904C393.443 222.423 393.981 222.45 394.519 222.503C395.058 222.556 395.589 222.636 396.119 222.742C396.647 222.844 397.17 222.977 397.689 223.132C398.205 223.292 398.713 223.47 399.21 223.678C399.71 223.883 400.199 224.114 400.673 224.368C401.151 224.622 401.614 224.899 402.061 225.199C402.512 225.498 402.944 225.821 403.362 226.162C403.779 226.503 404.177 226.867 404.56 227.246C404.943 227.629 405.303 228.027 405.644 228.444C405.989 228.861 406.311 229.294 406.611 229.741C406.911 230.189 407.187 230.651 407.441 231.129C407.695 231.603 407.927 232.092 408.131 232.589C408.34 233.085 408.522 233.593 408.677 234.109C408.833 234.625 408.966 235.148 409.072 235.679C409.178 236.206 409.254 236.741 409.307 237.275C409.36 237.814 409.387 238.352 409.387 238.89V277.308C409.387 282.798 407.631 285.979 403.892 287.409V244.377C403.892 244.017 403.858 243.66 403.786 243.308C403.718 242.955 403.612 242.61 403.475 242.276C403.335 241.947 403.168 241.628 402.967 241.328C402.766 241.029 402.539 240.752 402.285 240.498C402.027 240.244 401.75 240.017 401.451 239.816C401.151 239.615 400.833 239.444 400.499 239.308C400.169 239.171 399.824 239.065 399.471 238.997C399.115 238.925 398.758 238.89 398.398 238.89C398.038 238.89 397.678 238.925 397.325 238.997C396.973 239.065 396.628 239.171 396.294 239.308C395.96 239.444 395.646 239.615 395.346 239.816C395.046 240.017 394.766 240.244 394.512 240.498C394.258 240.752 394.03 241.029 393.829 241.328C393.628 241.628 393.458 241.947 393.321 242.276C393.185 242.61 393.079 242.955 393.01 243.308C392.938 243.66 392.904 244.017 392.904 244.377V376.103C392.904 376.463 392.938 376.82 393.01 377.172C393.079 377.525 393.185 377.87 393.321 378.204C393.458 378.534 393.628 378.852 393.829 379.152C394.03 379.451 394.258 379.728 394.512 379.982C394.766 380.236 395.046 380.464 395.346 380.665C395.646 380.866 395.96 381.036 396.294 381.173C396.628 381.309 396.973 381.415 397.325 381.484C397.678 381.556 398.038 381.59 398.398 381.59C398.758 381.59 399.115 381.556 399.471 381.484C399.824 381.415 400.169 381.309 400.499 381.173C400.833 381.036 401.151 380.866 401.451 380.665C401.75 380.464 402.027 380.236 402.285 379.982C402.539 379.728 402.766 379.451 402.967 379.152C403.168 378.852 403.335 378.534 403.475 378.204C403.612 377.87 403.718 377.525 403.786 377.172C403.858 376.82 403.892 376.463 403.892 376.103V298.715C404.507 298.617 405.113 298.488 405.712 298.332C406.315 298.177 406.907 297.991 407.491 297.779C408.075 297.566 408.647 297.328 409.208 297.062C409.769 296.797 410.315 296.505 410.85 296.186C411.385 295.868 411.9 295.527 412.401 295.159C412.901 294.795 413.387 294.404 413.849 293.995C414.316 293.581 414.759 293.149 415.18 292.694C415.605 292.239 416.007 291.769 416.386 291.276C416.761 290.783 417.118 290.275 417.448 289.752C417.777 289.225 418.085 288.686 418.361 288.133C418.642 287.579 418.896 287.014 419.124 286.434C419.347 285.858 419.544 285.27 419.715 284.675C419.886 284.076 420.03 283.473 420.143 282.862C420.257 282.256 420.341 281.641 420.398 281.023C420.451 280.405 420.477 279.787 420.473 279.166C420.473 278.544 420.439 277.926 420.379 277.308V238.89C420.379 237.992 420.333 237.093 420.246 236.198C420.159 235.304 420.026 234.416 419.852 233.537C419.673 232.653 419.457 231.785 419.196 230.924C418.934 230.063 418.631 229.218 418.286 228.388C417.941 227.557 417.558 226.746 417.133 225.953C416.708 225.161 416.246 224.391 415.749 223.644C415.248 222.897 414.714 222.177 414.141 221.479C413.569 220.785 412.966 220.122 412.329 219.485C411.696 218.848 411.028 218.245 410.334 217.676C409.637 217.107 408.916 216.573 408.166 216.072C407.419 215.572 406.649 215.113 405.853 214.688C405.06 214.264 404.249 213.881 403.418 213.536C402.584 213.191 401.739 212.891 400.878 212.629C400.017 212.368 399.145 212.152 398.262 211.973C397.382 211.799 396.491 211.666 395.596 211.579C394.701 211.492 393.803 211.446 392.904 211.446Z" fill="#FFDE59"/>
</g>
</g>
<path d="M95.7843 388.112H100.14C101.16 388.112 102.078 388.268 102.894 388.58C103.71 388.892 104.406 389.336 104.982 389.912C105.558 390.476 105.996 391.154 106.296 391.946C106.608 392.738 106.764 393.608 106.764 394.556C106.764 395.516 106.608 396.392 106.296 397.184C105.996 397.976 105.558 398.654 104.982 399.218C104.406 399.782 103.71 400.22 102.894 400.532C102.078 400.844 101.16 401 100.14 401H95.7843V388.112ZM100.032 398.696C100.74 398.696 101.364 398.6 101.904 398.408C102.444 398.204 102.894 397.922 103.254 397.562C103.614 397.202 103.884 396.77 104.064 396.266C104.244 395.75 104.334 395.18 104.334 394.556C104.334 393.932 104.244 393.368 104.064 392.864C103.884 392.348 103.614 391.91 103.254 391.55C102.894 391.19 102.444 390.914 101.904 390.722C101.364 390.518 100.74 390.416 100.032 390.416H98.2143V398.696H100.032ZM113.312 390.416V393.404H118.478V395.708H113.312V398.696H119.054V401H110.882V388.112H119.054V390.416H113.312ZM127.39 401.288C126.838 401.288 126.31 401.21 125.806 401.054C125.302 400.898 124.84 400.664 124.42 400.352C124 400.04 123.634 399.662 123.322 399.218C123.01 398.762 122.764 398.234 122.584 397.634L124.87 396.734C125.038 397.382 125.332 397.922 125.752 398.354C126.172 398.774 126.724 398.984 127.408 398.984C127.66 398.984 127.9 398.954 128.128 398.894C128.368 398.822 128.578 398.726 128.758 398.606C128.95 398.474 129.1 398.312 129.208 398.12C129.316 397.928 129.37 397.706 129.37 397.454C129.37 397.214 129.328 396.998 129.244 396.806C129.16 396.614 129.016 396.434 128.812 396.266C128.62 396.098 128.362 395.936 128.038 395.78C127.726 395.624 127.336 395.462 126.868 395.294L126.076 395.006C125.728 394.886 125.374 394.724 125.014 394.52C124.666 394.316 124.348 394.07 124.06 393.782C123.772 393.494 123.532 393.158 123.34 392.774C123.16 392.378 123.07 391.934 123.07 391.442C123.07 390.938 123.166 390.47 123.358 390.038C123.562 389.594 123.844 389.21 124.204 388.886C124.576 388.55 125.014 388.292 125.518 388.112C126.034 387.92 126.604 387.824 127.228 387.824C127.876 387.824 128.434 387.914 128.902 388.094C129.382 388.262 129.784 388.484 130.108 388.76C130.444 389.024 130.714 389.318 130.918 389.642C131.122 389.966 131.272 390.272 131.368 390.56L129.226 391.46C129.106 391.1 128.884 390.776 128.56 390.488C128.248 390.2 127.816 390.056 127.264 390.056C126.736 390.056 126.298 390.182 125.95 390.434C125.602 390.674 125.428 390.992 125.428 391.388C125.428 391.772 125.596 392.102 125.932 392.378C126.268 392.642 126.802 392.9 127.534 393.152L128.344 393.422C128.86 393.602 129.328 393.812 129.748 394.052C130.18 394.28 130.546 394.556 130.846 394.88C131.158 395.204 131.392 395.576 131.548 395.996C131.716 396.404 131.8 396.878 131.8 397.418C131.8 398.09 131.662 398.672 131.386 399.164C131.122 399.644 130.78 400.04 130.36 400.352C129.94 400.664 129.466 400.898 128.938 401.054C128.41 401.21 127.894 401.288 127.39 401.288ZM135.962 388.112H138.392V401H135.962V388.112ZM149.093 393.926H155.411C155.447 394.07 155.477 394.244 155.501 394.448C155.525 394.652 155.537 394.856 155.537 395.06C155.537 395.888 155.411 396.668 155.159 397.4C154.907 398.132 154.511 398.786 153.971 399.362C153.395 399.974 152.705 400.448 151.901 400.784C151.097 401.12 150.179 401.288 149.147 401.288C148.211 401.288 147.329 401.12 146.501 400.784C145.673 400.448 144.953 399.98 144.341 399.38C143.729 398.78 143.243 398.072 142.883 397.256C142.523 396.428 142.343 395.528 142.343 394.556C142.343 393.584 142.523 392.69 142.883 391.874C143.243 391.046 143.729 390.332 144.341 389.732C144.953 389.132 145.673 388.664 146.501 388.328C147.329 387.992 148.211 387.824 149.147 387.824C150.191 387.824 151.121 388.004 151.937 388.364C152.765 388.724 153.473 389.222 154.061 389.858L152.387 391.496C151.967 391.052 151.499 390.716 150.983 390.488C150.467 390.248 149.849 390.128 149.129 390.128C148.541 390.128 147.983 390.236 147.455 390.452C146.927 390.656 146.465 390.95 146.069 391.334C145.673 391.718 145.355 392.186 145.115 392.738C144.887 393.278 144.773 393.884 144.773 394.556C144.773 395.228 144.887 395.84 145.115 396.392C145.355 396.932 145.673 397.394 146.069 397.778C146.477 398.162 146.945 398.462 147.473 398.678C148.001 398.882 148.565 398.984 149.165 398.984C149.849 398.984 150.425 398.888 150.893 398.696C151.373 398.492 151.781 398.234 152.117 397.922C152.357 397.706 152.561 397.436 152.729 397.112C152.909 396.776 153.047 396.404 153.143 395.996H149.093V393.926ZM159.705 388.112H162.531L167.715 396.752H167.859L167.715 394.268V388.112H170.127V401H167.571L162.099 391.874H161.955L162.099 394.358V401H159.705V388.112ZM187.103 386.744H189.263V403.16H187.103V386.744ZM200.125 388.112H204.481C205.501 388.112 206.419 388.268 207.235 388.58C208.051 388.892 208.747 389.336 209.323 389.912C209.899 390.476 210.337 391.154 210.637 391.946C210.949 392.738 211.105 393.608 211.105 394.556C211.105 395.516 210.949 396.392 210.637 397.184C210.337 397.976 209.899 398.654 209.323 399.218C208.747 399.782 208.051 400.22 207.235 400.532C206.419 400.844 205.501 401 204.481 401H200.125V388.112ZM204.373 398.696C205.081 398.696 205.705 398.6 206.245 398.408C206.785 398.204 207.235 397.922 207.595 397.562C207.955 397.202 208.225 396.77 208.405 396.266C208.585 395.75 208.675 395.18 208.675 394.556C208.675 393.932 208.585 393.368 208.405 392.864C208.225 392.348 207.955 391.91 207.595 391.55C207.235 391.19 206.785 390.914 206.245 390.722C205.705 390.518 205.081 390.416 204.373 390.416H202.555V398.696H204.373ZM217.652 390.416V393.404H222.818V395.708H217.652V398.696H223.394V401H215.222V388.112H223.394V390.416H217.652ZM226.708 388.112H229.336L232 395.87L232.468 397.526H232.612L233.116 395.87L235.888 388.112H238.516L233.818 401H231.262L226.708 388.112ZM244.613 390.416V393.404H249.779V395.708H244.613V398.696H250.355V401H242.183V388.112H250.355V390.416H244.613ZM254.749 388.112H257.179V398.696H262.633V401H254.749V388.112ZM272.362 401.288C271.402 401.288 270.508 401.114 269.68 400.766C268.864 400.418 268.156 399.944 267.556 399.344C266.956 398.732 266.482 398.018 266.134 397.202C265.798 396.374 265.63 395.492 265.63 394.556C265.63 393.62 265.798 392.744 266.134 391.928C266.482 391.1 266.956 390.386 267.556 389.786C268.156 389.174 268.864 388.694 269.68 388.346C270.508 387.998 271.402 387.824 272.362 387.824C273.322 387.824 274.21 387.998 275.026 388.346C275.854 388.694 276.568 389.174 277.168 389.786C277.768 390.386 278.236 391.1 278.572 391.928C278.92 392.744 279.094 393.62 279.094 394.556C279.094 395.492 278.92 396.374 278.572 397.202C278.236 398.018 277.768 398.732 277.168 399.344C276.568 399.944 275.854 400.418 275.026 400.766C274.21 401.114 273.322 401.288 272.362 401.288ZM272.362 398.984C272.962 398.984 273.52 398.876 274.036 398.66C274.564 398.444 275.02 398.144 275.404 397.76C275.8 397.376 276.106 396.914 276.322 396.374C276.55 395.822 276.664 395.216 276.664 394.556C276.664 393.896 276.55 393.296 276.322 392.756C276.106 392.204 275.8 391.736 275.404 391.352C275.02 390.968 274.564 390.668 274.036 390.452C273.52 390.236 272.962 390.128 272.362 390.128C271.762 390.128 271.198 390.236 270.67 390.452C270.154 390.668 269.698 390.968 269.302 391.352C268.918 391.736 268.612 392.204 268.384 392.756C268.168 393.296 268.06 393.896 268.06 394.556C268.06 395.216 268.168 395.822 268.384 396.374C268.612 396.914 268.918 397.376 269.302 397.76C269.698 398.144 270.154 398.444 270.67 398.66C271.198 398.876 271.762 398.984 272.362 398.984ZM283.221 401V388.112H287.757C288.369 388.112 288.939 388.214 289.467 388.418C290.007 388.61 290.475 388.886 290.871 389.246C291.267 389.606 291.579 390.038 291.807 390.542C292.035 391.034 292.149 391.58 292.149 392.18C292.149 392.792 292.035 393.35 291.807 393.854C291.579 394.346 291.267 394.772 290.871 395.132C290.475 395.492 290.007 395.774 289.467 395.978C288.939 396.17 288.369 396.266 287.757 396.266H285.651V401H283.221ZM287.793 393.962C288.429 393.962 288.909 393.782 289.233 393.422C289.557 393.062 289.719 392.648 289.719 392.18C289.719 391.952 289.677 391.73 289.593 391.514C289.521 391.298 289.401 391.112 289.233 390.956C289.077 390.788 288.879 390.656 288.639 390.56C288.399 390.464 288.117 390.416 287.793 390.416H285.651V393.962H287.793ZM302.149 386.744H304.309V403.16H302.149V386.744ZM315.17 388.112H317.564L321.506 394.934H321.65L325.592 388.112H328.004V401H325.592V394.646L325.736 392.486H325.592L322.316 398.264H320.858L317.564 392.486H317.42L317.564 394.646V401H315.17V388.112ZM336.525 388.112H339.297L344.139 401H341.457L340.395 397.922H335.427L334.365 401H331.683L336.525 388.112ZM339.603 395.69L338.451 392.468L337.983 390.902H337.839L337.371 392.468L336.219 395.69H339.603ZM347.808 388.112H350.634L355.818 396.752H355.962L355.818 394.268V388.112H358.23V401H355.674L350.202 391.874H350.058L350.202 394.358V401H347.808V388.112ZM366.738 388.112H369.51L374.352 401H371.67L370.608 397.922H365.64L364.578 401H361.896L366.738 388.112ZM369.816 395.69L368.664 392.468L368.196 390.902H368.052L367.584 392.468L366.432 395.69H369.816ZM383.789 393.926H390.107C390.143 394.07 390.173 394.244 390.197 394.448C390.221 394.652 390.233 394.856 390.233 395.06C390.233 395.888 390.107 396.668 389.855 397.4C389.603 398.132 389.207 398.786 388.667 399.362C388.091 399.974 387.401 400.448 386.597 400.784C385.793 401.12 384.875 401.288 383.843 401.288C382.907 401.288 382.025 401.12 381.197 400.784C380.369 400.448 379.649 399.98 379.037 399.38C378.425 398.78 377.939 398.072 377.579 397.256C377.219 396.428 377.039 395.528 377.039 394.556C377.039 393.584 377.219 392.69 377.579 391.874C377.939 391.046 378.425 390.332 379.037 389.732C379.649 389.132 380.369 388.664 381.197 388.328C382.025 387.992 382.907 387.824 383.843 387.824C384.887 387.824 385.817 388.004 386.633 388.364C387.461 388.724 388.169 389.222 388.757 389.858L387.083 391.496C386.663 391.052 386.195 390.716 385.679 390.488C385.163 390.248 384.545 390.128 383.825 390.128C383.237 390.128 382.679 390.236 382.151 390.452C381.623 390.656 381.161 390.95 380.765 391.334C380.369 391.718 380.051 392.186 379.811 392.738C379.583 393.278 379.469 393.884 379.469 394.556C379.469 395.228 379.583 395.84 379.811 396.392C380.051 396.932 380.369 397.394 380.765 397.778C381.173 398.162 381.641 398.462 382.169 398.678C382.697 398.882 383.261 398.984 383.861 398.984C384.545 398.984 385.121 398.888 385.589 398.696C386.069 398.492 386.477 398.234 386.813 397.922C387.053 397.706 387.257 397.436 387.425 397.112C387.605 396.776 387.743 396.404 387.839 395.996H383.789V393.926ZM396.831 390.416V393.404H401.997V395.708H396.831V398.696H402.573V401H394.401V388.112H402.573V390.416H396.831Z" fill="white"/>
<defs>
<filter id="filter0_b_7_4" x="-20" y="-20" width="540" height="540" filterUnits="userSpaceOnUse" color-interpolation-filters="sRGB">
<feFlood flood-opacity="0" result="BackgroundImageFix"/>
<feGaussianBlur in="BackgroundImageFix" stdDeviation="10"/>
<feComposite in2="SourceAlpha" operator="in" result="effect1_backgroundBlur_7_4"/>
<feBlend mode="normal" in="SourceGraphic" in2="effect1_backgroundBlur_7_4" result="shape"/>
</filter>
</defs>
</svg>
